  0
SECTION
  2
BLOCKS
  0
ENDSEC
  0
SECTION
  2
ENTITIES
  0
LINE
  8
0
 10
357.188
 20
140.494
 11
227.5
 21
140.494
  0
LINE
  8
0
 10
227.5
 20
140.494
 11
227.5
 21
131.977
  0
LINE
  8
0
 10
227.5
 20
131.977
 11
227.596
 21
132.083
  0
LINE
  8
0
 10
227.596
 20
132.083
 11
227.85
 21
132.268
  0
LINE
  8
0
 10
227.85
 20
132.268
 11
228.136
 21
132.395
  0
LINE
  8
0
 10
228.136
 20
132.395
 11
228.443
 21
132.461
  0
LINE
  8
0
 10
228.443
 20
132.461
 11
228.757
 21
132.461
  0
LINE
  8
0
 10
228.757
 20
132.461
 11
229.063
 21
132.395
  0
LINE
  8
0
 10
229.063
 20
132.395
 11
229.35
 21
132.268
  0
LINE
  8
0
 10
229.35
 20
132.268
 11
229.604
 21
132.083
  0
LINE
  8
0
 10
229.604
 20
132.083
 11
229.813
 21
131.85
  0
LINE
  8
0
 10
229.813
 20
131.85
 11
229.97
 21
131.579
  0
LINE
  8
0
 10
229.97
 20
131.579
 11
230.067
 21
131.281
  0
LINE
  8
0
 10
230.067
 20
131.281
 11
230.1
 21
130.969
  0
LINE
  8
0
 10
230.1
 20
130.969
 11
230.067
 21
130.657
  0
LINE
  8
0
 10
230.067
 20
130.657
 11
229.97
 21
130.359
  0
LINE
  8
0
 10
229.97
 20
130.359
 11
229.813
 21
130.087
  0
LINE
  8
0
 10
229.813
 20
130.087
 11
229.604
 21
129.854
  0
LINE
  8
0
 10
229.604
 20
129.854
 11
229.35
 21
129.67
  0
LINE
  8
0
 10
229.35
 20
129.67
 11
229.063
 21
129.542
  0
LINE
  8
0
 10
229.063
 20
129.542
 11
228.757
 21
129.477
  0
LINE
  8
0
 10
228.757
 20
129.477
 11
228.443
 21
129.477
  0
LINE
  8
0
 10
228.443
 20
129.477
 11
228.136
 21
129.542
  0
LINE
  8
0
 10
228.136
 20
129.542
 11
227.85
 21
129.67
  0
LINE
  8
0
 10
227.85
 20
129.67
 11
227.596
 21
129.854
  0
LINE
  8
0
 10
227.596
 20
129.854
 11
227.5
 21
129.961
  0
LINE
  8
0
 10
227.5
 20
129.961
 11
227.5
 21
104.994
  0
LINE
  8
0
 10
227.5
 20
104.994
 11
225.314
 21
104.994
  0
LINE
  8
0
 10
225.314
 20
104.994
 11
225.337
 21
104.775
  0
LINE
  8
0
 10
225.337
 20
104.775
 11
225.305
 21
104.463
  0
LINE
  8
0
 10
225.305
 20
104.463
 11
225.208
 21
104.165
  0
LINE
  8
0
 10
225.208
 20
104.165
 11
225.051
 21
103.893
  0
LINE
  8
0
 10
225.051
 20
103.893
 11
224.841
 21
103.66
  0
LINE
  8
0
 10
224.841
 20
103.66
 11
224.587
 21
103.476
  0
LINE
  8
0
 10
224.587
 20
103.476
 11
224.301
 21
103.348
  0
LINE
  8
0
 10
224.301
 20
103.348
 11
223.994
 21
103.283
  0
LINE
  8
0
 10
223.994
 20
103.283
 11
223.681
 21
103.283
  0
LINE
  8
0
 10
223.681
 20
103.283
 11
223.374
 21
103.348
  0
LINE
  8
0
 10
223.374
 20
103.348
 11
223.087
 21
103.476
  0
LINE
  8
0
 10
223.087
 20
103.476
 11
222.834
 21
103.66
  0
LINE
  8
0
 10
222.834
 20
103.66
 11
222.624
 21
103.893
  0
LINE
  8
0
 10
222.624
 20
103.893
 11
222.467
 21
104.165
  0
LINE
  8
0
 10
222.467
 20
104.165
 11
222.37
 21
104.463
  0
LINE
  8
0
 10
222.37
 20
104.463
 11
222.337
 21
104.775
  0
LINE
  8
0
 10
222.337
 20
104.775
 11
222.36
 21
104.994
  0
LINE
  8
0
 10
222.36
 20
104.994
 11
206.264
 21
104.994
  0
LINE
  8
0
 10
206.264
 20
104.994
 11
206.287
 21
104.775
  0
LINE
  8
0
 10
206.287
 20
104.775
 11
206.255
 21
104.463
  0
LINE
  8
0
 10
206.255
 20
104.463
 11
206.158
 21
104.165
  0
LINE
  8
0
 10
206.158
 20
104.165
 11
206.001
 21
103.893
  0
LINE
  8
0
 10
206.001
 20
103.893
 11
205.791
 21
103.66
  0
LINE
  8
0
 10
205.791
 20
103.66
 11
205.537
 21
103.476
  0
LINE
  8
0
 10
205.537
 20
103.476
 11
205.251
 21
103.348
  0
LINE
  8
0
 10
205.251
 20
103.348
 11
204.944
 21
103.283
  0
LINE
  8
0
 10
204.944
 20
103.283
 11
204.631
 21
103.283
  0
LINE
  8
0
 10
204.631
 20
103.283
 11
204.324
 21
103.348
  0
LINE
  8
0
 10
204.324
 20
103.348
 11
204.037
 21
103.476
  0
LINE
  8
0
 10
204.037
 20
103.476
 11
203.784
 21
103.66
  0
LINE
  8
0
 10
203.784
 20
103.66
 11
203.574
 21
103.893
  0
LINE
  8
0
 10
203.574
 20
103.893
 11
203.417
 21
104.165
  0
LINE
  8
0
 10
203.417
 20
104.165
 11
203.32
 21
104.463
  0
LINE
  8
0
 10
203.32
 20
104.463
 11
203.287
 21
104.775
  0
LINE
  8
0
 10
203.287
 20
104.775
 11
203.31
 21
104.994
  0
LINE
  8
0
 10
203.31
 20
104.994
 11
187.214
 21
104.994
  0
LINE
  8
0
 10
187.214
 20
104.994
 11
187.237
 21
104.775
  0
LINE
  8
0
 10
187.237
 20
104.775
 11
187.205
 21
104.463
  0
LINE
  8
0
 10
187.205
 20
104.463
 11
187.108
 21
104.165
  0
LINE
  8
0
 10
187.108
 20
104.165
 11
186.951
 21
103.893
  0
LINE
  8
0
 10
186.951
 20
103.893
 11
186.741
 21
103.66
  0
LINE
  8
0
 10
186.741
 20
103.66
 11
186.487
 21
103.476
  0
LINE
  8
0
 10
186.487
 20
103.476
 11
186.201
 21
103.348
  0
LINE
  8
0
 10
186.201
 20
103.348
 11
185.894
 21
103.283
  0
LINE
  8
0
 10
185.894
 20
103.283
 11
185.581
 21
103.283
  0
LINE
  8
0
 10
185.581
 20
103.283
 11
185.274
 21
103.348
  0
LINE
  8
0
 10
185.274
 20
103.348
 11
184.987
 21
103.476
  0
LINE
  8
0
 10
184.987
 20
103.476
 11
184.734
 21
103.66
  0
LINE
  8
0
 10
184.734
 20
103.66
 11
184.524
 21
103.893
  0
LINE
  8
0
 10
184.524
 20
103.893
 11
184.367
 21
104.165
  0
LINE
  8
0
 10
184.367
 20
104.165
 11
184.27
 21
104.463
  0
LINE
  8
0
 10
184.27
 20
104.463
 11
184.237
 21
104.775
  0
LINE
  8
0
 10
184.237
 20
104.775
 11
184.26
 21
104.994
  0
LINE
  8
0
 10
184.26
 20
104.994
 11
168.164
 21
104.994
  0
LINE
  8
0
 10
168.164
 20
104.994
 11
168.187
 21
104.775
  0
LINE
  8
0
 10
168.187
 20
104.775
 11
168.155
 21
104.463
  0
LINE
  8
0
 10
168.155
 20
104.463
 11
168.058
 21
104.165
  0
LINE
  8
0
 10
168.058
 20
104.165
 11
167.901
 21
103.893
  0
LINE
  8
0
 10
167.901
 20
103.893
 11
167.691
 21
103.66
  0
LINE
  8
0
 10
167.691
 20
103.66
 11
167.437
 21
103.476
  0
LINE
  8
0
 10
167.437
 20
103.476
 11
167.151
 21
103.348
  0
LINE
  8
0
 10
167.151
 20
103.348
 11
166.844
 21
103.283
  0
LINE
  8
0
 10
166.844
 20
103.283
 11
166.531
 21
103.283
  0
LINE
  8
0
 10
166.531
 20
103.283
 11
166.224
 21
103.348
  0
LINE
  8
0
 10
166.224
 20
103.348
 11
165.937
 21
103.476
  0
LINE
  8
0
 10
165.937
 20
103.476
 11
165.684
 21
103.66
  0
LINE
  8
0
 10
165.684
 20
103.66
 11
165.474
 21
103.893
  0
LINE
  8
0
 10
165.474
 20
103.893
 11
165.317
 21
104.165
  0
LINE
  8
0
 10
165.317
 20
104.165
 11
165.22
 21
104.463
  0
LINE
  8
0
 10
165.22
 20
104.463
 11
165.187
 21
104.775
  0
LINE
  8
0
 10
165.187
 20
104.775
 11
165.21
 21
104.994
  0
LINE
  8
0
 10
165.21
 20
104.994
 11
149.114
 21
104.994
  0
LINE
  8
0
 10
149.114
 20
104.994
 11
149.137
 21
104.775
  0
LINE
  8
0
 10
149.137
 20
104.775
 11
149.105
 21
104.463
  0
LINE
  8
0
 10
149.105
 20
104.463
 11
149.008
 21
104.165
  0
LINE
  8
0
 10
149.008
 20
104.165
 11
148.851
 21
103.893
  0
LINE
  8
0
 10
148.851
 20
103.893
 11
148.641
 21
103.66
  0
LINE
  8
0
 10
148.641
 20
103.66
 11
148.387
 21
103.476
  0
LINE
  8
0
 10
148.387
 20
103.476
 11
148.101
 21
103.348
  0
LINE
  8
0
 10
148.101
 20
103.348
 11
147.794
 21
103.283
  0
LINE
  8
0
 10
147.794
 20
103.283
 11
147.481
 21
103.283
  0
LINE
  8
0
 10
147.481
 20
103.283
 11
147.174
 21
103.348
  0
LINE
  8
0
 10
147.174
 20
103.348
 11
146.887
 21
103.476
  0
LINE
  8
0
 10
146.887
 20
103.476
 11
146.634
 21
103.66
  0
LINE
  8
0
 10
146.634
 20
103.66
 11
146.424
 21
103.893
  0
LINE
  8
0
 10
146.424
 20
103.893
 11
146.267
 21
104.165
  0
LINE
  8
0
 10
146.267
 20
104.165
 11
146.17
 21
104.463
  0
LINE
  8
0
 10
146.17
 20
104.463
 11
146.137
 21
104.775
  0
LINE
  8
0
 10
146.137
 20
104.775
 11
146.16
 21
104.994
  0
LINE
  8
0
 10
146.16
 20
104.994
 11
130.064
 21
104.994
  0
LINE
  8
0
 10
130.064
 20
104.994
 11
130.087
 21
104.775
  0
LINE
  8
0
 10
130.087
 20
104.775
 11
130.055
 21
104.463
  0
LINE
  8
0
 10
130.055
 20
104.463
 11
129.958
 21
104.165
  0
LINE
  8
0
 10
129.958
 20
104.165
 11
129.801
 21
103.893
  0
LINE
  8
0
 10
129.801
 20
103.893
 11
129.591
 21
103.66
  0
LINE
  8
0
 10
129.591
 20
103.66
 11
129.337
 21
103.476
  0
LINE
  8
0
 10
129.337
 20
103.476
 11
129.051
 21
103.348
  0
LINE
  8
0
 10
129.051
 20
103.348
 11
128.744
 21
103.283
  0
LINE
  8
0
 10
128.744
 20
103.283
 11
128.431
 21
103.283
  0
LINE
  8
0
 10
128.431
 20
103.283
 11
128.124
 21
103.348
  0
LINE
  8
0
 10
128.124
 20
103.348
 11
127.837
 21
103.476
  0
LINE
  8
0
 10
127.837
 20
103.476
 11
127.584
 21
103.66
  0
LINE
  8
0
 10
127.584
 20
103.66
 11
127.374
 21
103.893
  0
LINE
  8
0
 10
127.374
 20
103.893
 11
127.217
 21
104.165
  0
LINE
  8
0
 10
127.217
 20
104.165
 11
127.12
 21
104.463
  0
LINE
  8
0
 10
127.12
 20
104.463
 11
127.087
 21
104.775
  0
LINE
  8
0
 10
127.087
 20
104.775
 11
127.11
 21
104.994
  0
LINE
  8
0
 10
127.11
 20
104.994
 11
111.014
 21
104.994
  0
LINE
  8
0
 10
111.014
 20
104.994
 11
111.037
 21
104.775
  0
LINE
  8
0
 10
111.037
 20
104.775
 11
111.005
 21
104.463
  0
LINE
  8
0
 10
111.005
 20
104.463
 11
110.908
 21
104.165
  0
LINE
  8
0
 10
110.908
 20
104.165
 11
110.751
 21
103.893
  0
LINE
  8
0
 10
110.751
 20
103.893
 11
110.541
 21
103.66
  0
LINE
  8
0
 10
110.541
 20
103.66
 11
110.287
 21
103.476
  0
LINE
  8
0
 10
110.287
 20
103.476
 11
110.001
 21
103.348
  0
LINE
  8
0
 10
110.001
 20
103.348
 11
109.694
 21
103.283
  0
LINE
  8
0
 10
109.694
 20
103.283
 11
109.381
 21
103.283
  0
LINE
  8
0
 10
109.381
 20
103.283
 11
109.074
 21
103.348
  0
LINE
  8
0
 10
109.074
 20
103.348
 11
108.787
 21
103.476
  0
LINE
  8
0
 10
108.787
 20
103.476
 11
108.534
 21
103.66
  0
LINE
  8
0
 10
108.534
 20
103.66
 11
108.324
 21
103.893
  0
LINE
  8
0
 10
108.324
 20
103.893
 11
108.167
 21
104.165
  0
LINE
  8
0
 10
108.167
 20
104.165
 11
108.07
 21
104.463
  0
LINE
  8
0
 10
108.07
 20
104.463
 11
108.037
 21
104.775
  0
LINE
  8
0
 10
108.037
 20
104.775
 11
108.06
 21
104.994
  0
LINE
  8
0
 10
108.06
 20
104.994
 11
91.9645
 21
104.994
  0
LINE
  8
0
 10
91.9645
 20
104.994
 11
91.9875
 21
104.775
  0
LINE
  8
0
 10
91.9875
 20
104.775
 11
91.9547
 21
104.463
  0
LINE
  8
0
 10
91.9547
 20
104.463
 11
91.8578
 21
104.165
  0
LINE
  8
0
 10
91.8578
 20
104.165
 11
91.701
 21
103.893
  0
LINE
  8
0
 10
91.701
 20
103.893
 11
91.4911
 21
103.66
  0
LINE
  8
0
 10
91.4911
 20
103.66
 11
91.2375
 21
103.476
  0
LINE
  8
0
 10
91.2375
 20
103.476
 11
90.951
 21
103.348
  0
LINE
  8
0
 10
90.951
 20
103.348
 11
90.6443
 21
103.283
  0
LINE
  8
0
 10
90.6443
 20
103.283
 11
90.3307
 21
103.283
  0
LINE
  8
0
 10
90.3307
 20
103.283
 11
90.0239
 21
103.348
  0
LINE
  8
0
 10
90.0239
 20
103.348
 11
89.7375
 21
103.476
  0
LINE
  8
0
 10
89.7375
 20
103.476
 11
89.4838
 21
103.66
  0
LINE
  8
0
 10
89.4838
 20
103.66
 11
89.2739
 21
103.893
  0
LINE
  8
0
 10
89.2739
 20
103.893
 11
89.1171
 21
104.165
  0
LINE
  8
0
 10
89.1171
 20
104.165
 11
89.0202
 21
104.463
  0
LINE
  8
0
 10
89.0202
 20
104.463
 11
88.9875
 21
104.775
  0
LINE
  8
0
 10
88.9875
 20
104.775
 11
89.0105
 21
104.994
  0
LINE
  8
0
 10
89.0105
 20
104.994
 11
72.9145
 21
104.994
  0
LINE
  8
0
 10
72.9145
 20
104.994
 11
72.9375
 21
104.775
  0
LINE
  8
0
 10
72.9375
 20
104.775
 11
72.9047
 21
104.463
  0
LINE
  8
0
 10
72.9047
 20
104.463
 11
72.8078
 21
104.165
  0
LINE
  8
0
 10
72.8078
 20
104.165
 11
72.651
 21
103.893
  0
LINE
  8
0
 10
72.651
 20
103.893
 11
72.4412
 21
103.66
  0
LINE
  8
0
 10
72.4412
 20
103.66
 11
72.1875
 21
103.476
  0
LINE
  8
0
 10
72.1875
 20
103.476
 11
71.901
 21
103.348
  0
LINE
  8
0
 10
71.901
 20
103.348
 11
71.5943
 21
103.283
  0
LINE
  8
0
 10
71.5943
 20
103.283
 11
71.2807
 21
103.283
  0
LINE
  8
0
 10
71.2807
 20
103.283
 11
70.9739
 21
103.348
  0
LINE
  8
0
 10
70.9739
 20
103.348
 11
70.6875
 21
103.476
  0
LINE
  8
0
 10
70.6875
 20
103.476
 11
70.4338
 21
103.66
  0
LINE
  8
0
 10
70.4338
 20
103.66
 11
70.2239
 21
103.893
  0
LINE
  8
0
 10
70.2239
 20
103.893
 11
70.0671
 21
104.165
  0
LINE
  8
0
 10
70.0671
 20
104.165
 11
69.9702
 21
104.463
  0
LINE
  8
0
 10
69.9702
 20
104.463
 11
69.9375
 21
104.775
  0
LINE
  8
0
 10
69.9375
 20
104.775
 11
69.9604
 21
104.994
  0
LINE
  8
0
 10
69.9604
 20
104.994
 11
53.8645
 21
104.994
  0
LINE
  8
0
 10
53.8645
 20
104.994
 11
53.8875
 21
104.775
  0
LINE
  8
0
 10
53.8875
 20
104.775
 11
53.8547
 21
104.463
  0
LINE
  8
0
 10
53.8547
 20
104.463
 11
53.7578
 21
104.165
  0
LINE
  8
0
 10
53.7578
 20
104.165
 11
53.601
 21
103.893
  0
LINE
  8
0
 10
53.601
 20
103.893
 11
53.3912
 21
103.66
  0
LINE
  8
0
 10
53.3912
 20
103.66
 11
53.1375
 21
103.476
  0
LINE
  8
0
 10
53.1375
 20
103.476
 11
52.851
 21
103.348
  0
LINE
  8
0
 10
52.851
 20
103.348
 11
52.5443
 21
103.283
  0
LINE
  8
0
 10
52.5443
 20
103.283
 11
52.2307
 21
103.283
  0
LINE
  8
0
 10
52.2307
 20
103.283
 11
51.9239
 21
103.348
  0
LINE
  8
0
 10
51.9239
 20
103.348
 11
51.6375
 21
103.476
  0
LINE
  8
0
 10
51.6375
 20
103.476
 11
51.3838
 21
103.66
  0
LINE
  8
0
 10
51.3838
 20
103.66
 11
51.1739
 21
103.893
  0
LINE
  8
0
 10
51.1739
 20
103.893
 11
51.0171
 21
104.165
  0
LINE
  8
0
 10
51.0171
 20
104.165
 11
50.9202
 21
104.463
  0
LINE
  8
0
 10
50.9202
 20
104.463
 11
50.8875
 21
104.775
  0
LINE
  8
0
 10
50.8875
 20
104.775
 11
50.9105
 21
104.994
  0
LINE
  8
0
 10
50.9105
 20
104.994
 11
34.8145
 21
104.994
  0
LINE
  8
0
 10
34.8145
 20
104.994
 11
34.8375
 21
104.775
  0
LINE
  8
0
 10
34.8375
 20
104.775
 11
34.8047
 21
104.463
  0
LINE
  8
0
 10
34.8047
 20
104.463
 11
34.7078
 21
104.165
  0
LINE
  8
0
 10
34.7078
 20
104.165
 11
34.551
 21
103.893
  0
LINE
  8
0
 10
34.551
 20
103.893
 11
34.3412
 21
103.66
  0
LINE
  8
0
 10
34.3412
 20
103.66
 11
34.0875
 21
103.476
  0
LINE
  8
0
 10
34.0875
 20
103.476
 11
33.801
 21
103.348
  0
LINE
  8
0
 10
33.801
 20
103.348
 11
33.4942
 21
103.283
  0
LINE
  8
0
 10
33.4942
 20
103.283
 11
33.1807
 21
103.283
  0
LINE
  8
0
 10
33.1807
 20
103.283
 11
32.8739
 21
103.348
  0
LINE
  8
0
 10
32.8739
 20
103.348
 11
32.5875
 21
103.476
  0
LINE
  8
0
 10
32.5875
 20
103.476
 11
32.3338
 21
103.66
  0
LINE
  8
0
 10
32.3338
 20
103.66
 11
32.1239
 21
103.893
  0
LINE
  8
0
 10
32.1239
 20
103.893
 11
31.9671
 21
104.165
  0
LINE
  8
0
 10
31.9671
 20
104.165
 11
31.8702
 21
104.463
  0
LINE
  8
0
 10
31.8702
 20
104.463
 11
31.8375
 21
104.775
  0
LINE
  8
0
 10
31.8375
 20
104.775
 11
31.8605
 21
104.994
  0
LINE
  8
0
 10
31.8605
 20
104.994
 11
11.002
 21
104.994
  0
LINE
  8
0
 10
11.002
 20
104.994
 11
11.025
 21
104.775
  0
LINE
  8
0
 10
11.025
 20
104.775
 11
10.9922
 21
104.463
  0
LINE
  8
0
 10
10.9922
 20
104.463
 11
10.8953
 21
104.165
  0
LINE
  8
0
 10
10.8953
 20
104.165
 11
10.7385
 21
103.893
  0
LINE
  8
0
 10
10.7385
 20
103.893
 11
10.5287
 21
103.66
  0
LINE
  8
0
 10
10.5287
 20
103.66
 11
10.275
 21
103.476
  0
LINE
  8
0
 10
10.275
 20
103.476
 11
9.98848
 21
103.348
  0
LINE
  8
0
 10
9.98848
 20
103.348
 11
9.68175
 21
103.283
  0
LINE
  8
0
 10
9.68175
 20
103.283
 11
9.36816
 21
103.283
  0
LINE
  8
0
 10
9.36816
 20
103.283
 11
9.06143
 21
103.348
  0
LINE
  8
0
 10
9.06143
 20
103.348
 11
8.77496
 21
103.476
  0
LINE
  8
0
 10
8.77496
 20
103.476
 11
8.52126
 21
103.66
  0
LINE
  8
0
 10
8.52126
 20
103.66
 11
8.31143
 21
103.893
  0
LINE
  8
0
 10
8.31143
 20
103.893
 11
8.15465
 21
104.165
  0
LINE
  8
0
 10
8.15465
 20
104.165
 11
8.05774
 21
104.463
  0
LINE
  8
0
 10
8.05774
 20
104.463
 11
8.02496
 21
104.775
  0
LINE
  8
0
 10
8.02496
 20
104.775
 11
8.04796
 21
104.994
  0
LINE
  8
0
 10
8.04796
 20
104.994
 11
0
 21
104.994
  0
LINE
  8
0
 10
0
 20
104.994
 11
0
 21
0
  0
LINE
  8
0
 10
0
 20
0
 11
357.188
 21
0
  0
LINE
  8
0
 10
357.188
 20
0
 11
357.188
 21
140.494
  0
LINE
  8
0
 10
351.926
 20
133.007
 11
351.415
 21
133.116
  0
LINE
  8
0
 10
351.415
 20
133.116
 11
350.937
 21
133.329
  0
LINE
  8
0
 10
350.937
 20
133.329
 11
350.515
 21
133.636
  0
LINE
  8
0
 10
350.515
 20
133.636
 11
350.165
 21
134.024
  0
LINE
  8
0
 10
350.165
 20
134.024
 11
349.904
 21
134.477
  0
LINE
  8
0
 10
349.904
 20
134.477
 11
349.742
 21
134.974
  0
LINE
  8
0
 10
349.742
 20
134.974
 11
349.687
 21
135.494
  0
LINE
  8
0
 10
349.687
 20
135.494
 11
349.742
 21
136.014
  0
LINE
  8
0
 10
349.742
 20
136.014
 11
349.904
 21
136.511
  0
LINE
  8
0
 10
349.904
 20
136.511
 11
350.165
 21
136.963
  0
LINE
  8
0
 10
350.165
 20
136.963
 11
350.515
 21
137.352
  0
LINE
  8
0
 10
350.515
 20
137.352
 11
350.937
 21
137.659
  0
LINE
  8
0
 10
350.937
 20
137.659
 11
351.415
 21
137.871
  0
LINE
  8
0
 10
351.415
 20
137.871
 11
351.926
 21
137.98
  0
LINE
  8
0
 10
351.926
 20
137.98
 11
352.449
 21
137.98
  0
LINE
  8
0
 10
352.449
 20
137.98
 11
352.96
 21
137.871
  0
LINE
  8
0
 10
352.96
 20
137.871
 11
353.437
 21
137.659
  0
LINE
  8
0
 10
353.437
 20
137.659
 11
353.86
 21
137.352
  0
LINE
  8
0
 10
353.86
 20
137.352
 11
354.21
 21
136.963
  0
LINE
  8
0
 10
354.21
 20
136.963
 11
354.471
 21
136.511
  0
LINE
  8
0
 10
354.471
 20
136.511
 11
354.633
 21
136.014
  0
LINE
  8
0
 10
354.633
 20
136.014
 11
354.687
 21
135.494
  0
LINE
  8
0
 10
354.687
 20
135.494
 11
354.633
 21
134.974
  0
LINE
  8
0
 10
354.633
 20
134.974
 11
354.471
 21
134.477
  0
LINE
  8
0
 10
354.471
 20
134.477
 11
354.21
 21
134.024
  0
LINE
  8
0
 10
354.21
 20
134.024
 11
353.86
 21
133.636
  0
LINE
  8
0
 10
353.86
 20
133.636
 11
353.437
 21
133.329
  0
LINE
  8
0
 10
353.437
 20
133.329
 11
352.96
 21
133.116
  0
LINE
  8
0
 10
352.96
 20
133.116
 11
352.449
 21
133.007
  0
LINE
  8
0
 10
352.449
 20
133.007
 11
351.926
 21
133.007
  0
LINE
  8
0
 10
323.693
 20
129.477
 11
323.386
 21
129.542
  0
LINE
  8
0
 10
323.386
 20
129.542
 11
323.1
 21
129.67
  0
LINE
  8
0
 10
323.1
 20
129.67
 11
322.846
 21
129.854
  0
LINE
  8
0
 10
322.846
 20
129.854
 11
322.636
 21
130.087
  0
LINE
  8
0
 10
322.636
 20
130.087
 11
322.48
 21
130.359
  0
LINE
  8
0
 10
322.48
 20
130.359
 11
322.383
 21
130.657
  0
LINE
  8
0
 10
322.383
 20
130.657
 11
322.35
 21
130.969
  0
LINE
  8
0
 10
322.35
 20
130.969
 11
322.383
 21
131.281
  0
LINE
  8
0
 10
322.383
 20
131.281
 11
322.48
 21
131.579
  0
LINE
  8
0
 10
322.48
 20
131.579
 11
322.636
 21
131.85
  0
LINE
  8
0
 10
322.636
 20
131.85
 11
322.846
 21
132.083
  0
LINE
  8
0
 10
322.846
 20
132.083
 11
323.1
 21
132.268
  0
LINE
  8
0
 10
323.1
 20
132.268
 11
323.386
 21
132.395
  0
LINE
  8
0
 10
323.386
 20
132.395
 11
323.693
 21
132.461
  0
LINE
  8
0
 10
323.693
 20
132.461
 11
324.007
 21
132.461
  0
LINE
  8
0
 10
324.007
 20
132.461
 11
324.313
 21
132.395
  0
LINE
  8
0
 10
324.313
 20
132.395
 11
324.6
 21
132.268
  0
LINE
  8
0
 10
324.6
 20
132.268
 11
324.854
 21
132.083
  0
LINE
  8
0
 10
324.854
 20
132.083
 11
325.063
 21
131.85
  0
LINE
  8
0
 10
325.063
 20
131.85
 11
325.22
 21
131.579
  0
LINE
  8
0
 10
325.22
 20
131.579
 11
325.317
 21
131.281
  0
LINE
  8
0
 10
325.317
 20
131.281
 11
325.35
 21
130.969
  0
LINE
  8
0
 10
325.35
 20
130.969
 11
325.317
 21
130.657
  0
LINE
  8
0
 10
325.317
 20
130.657
 11
325.22
 21
130.359
  0
LINE
  8
0
 10
325.22
 20
130.359
 11
325.063
 21
130.087
  0
LINE
  8
0
 10
325.063
 20
130.087
 11
324.854
 21
129.854
  0
LINE
  8
0
 10
324.854
 20
129.854
 11
324.6
 21
129.67
  0
LINE
  8
0
 10
324.6
 20
129.67
 11
324.313
 21
129.542
  0
LINE
  8
0
 10
324.313
 20
129.542
 11
324.007
 21
129.477
  0
LINE
  8
0
 10
324.007
 20
129.477
 11
323.693
 21
129.477
  0
LINE
  8
0
 10
276.068
 20
129.477
 11
275.761
 21
129.542
  0
LINE
  8
0
 10
275.761
 20
129.542
 11
275.475
 21
129.67
  0
LINE
  8
0
 10
275.475
 20
129.67
 11
275.221
 21
129.854
  0
LINE
  8
0
 10
275.221
 20
129.854
 11
275.011
 21
130.087
  0
LINE
  8
0
 10
275.011
 20
130.087
 11
274.855
 21
130.359
  0
LINE
  8
0
 10
274.855
 20
130.359
 11
274.758
 21
130.657
  0
LINE
  8
0
 10
274.758
 20
130.657
 11
274.725
 21
130.969
  0
LINE
  8
0
 10
274.725
 20
130.969
 11
274.758
 21
131.281
  0
LINE
  8
0
 10
274.758
 20
131.281
 11
274.855
 21
131.579
  0
LINE
  8
0
 10
274.855
 20
131.579
 11
275.011
 21
131.85
  0
LINE
  8
0
 10
275.011
 20
131.85
 11
275.221
 21
132.083
  0
LINE
  8
0
 10
275.221
 20
132.083
 11
275.475
 21
132.268
  0
LINE
  8
0
 10
275.475
 20
132.268
 11
275.761
 21
132.395
  0
LINE
  8
0
 10
275.761
 20
132.395
 11
276.068
 21
132.461
  0
LINE
  8
0
 10
276.068
 20
132.461
 11
276.382
 21
132.461
  0
LINE
  8
0
 10
276.382
 20
132.461
 11
276.688
 21
132.395
  0
LINE
  8
0
 10
276.688
 20
132.395
 11
276.975
 21
132.268
  0
LINE
  8
0
 10
276.975
 20
132.268
 11
277.229
 21
132.083
  0
LINE
  8
0
 10
277.229
 20
132.083
 11
277.438
 21
131.85
  0
LINE
  8
0
 10
277.438
 20
131.85
 11
277.595
 21
131.579
  0
LINE
  8
0
 10
277.595
 20
131.579
 11
277.692
 21
131.281
  0
LINE
  8
0
 10
277.692
 20
131.281
 11
277.725
 21
130.969
  0
LINE
  8
0
 10
277.725
 20
130.969
 11
277.692
 21
130.657
  0
LINE
  8
0
 10
277.692
 20
130.657
 11
277.595
 21
130.359
  0
LINE
  8
0
 10
277.595
 20
130.359
 11
277.438
 21
130.087
  0
LINE
  8
0
 10
277.438
 20
130.087
 11
277.229
 21
129.854
  0
LINE
  8
0
 10
277.229
 20
129.854
 11
276.975
 21
129.67
  0
LINE
  8
0
 10
276.975
 20
129.67
 11
276.688
 21
129.542
  0
LINE
  8
0
 10
276.688
 20
129.542
 11
276.382
 21
129.477
  0
LINE
  8
0
 10
276.382
 20
129.477
 11
276.068
 21
129.477
  0
LINE
  8
0
 10
252.256
 20
129.477
 11
251.949
 21
129.542
  0
LINE
  8
0
 10
251.949
 20
129.542
 11
251.662
 21
129.67
  0
LINE
  8
0
 10
251.662
 20
129.67
 11
251.409
 21
129.854
  0
LINE
  8
0
 10
251.409
 20
129.854
 11
251.199
 21
130.087
  0
LINE
  8
0
 10
251.199
 20
130.087
 11
251.042
 21
130.359
  0
LINE
  8
0
 10
251.042
 20
130.359
 11
250.945
 21
130.657
  0
LINE
  8
0
 10
250.945
 20
130.657
 11
250.912
 21
130.969
  0
LINE
  8
0
 10
250.912
 20
130.969
 11
250.945
 21
131.281
  0
LINE
  8
0
 10
250.945
 20
131.281
 11
251.042
 21
131.579
  0
LINE
  8
0
 10
251.042
 20
131.579
 11
251.199
 21
131.85
  0
LINE
  8
0
 10
251.199
 20
131.85
 11
251.409
 21
132.083
  0
LINE
  8
0
 10
251.409
 20
132.083
 11
251.662
 21
132.268
  0
LINE
  8
0
 10
251.662
 20
132.268
 11
251.949
 21
132.395
  0
LINE
  8
0
 10
251.949
 20
132.395
 11
252.256
 21
132.461
  0
LINE
  8
0
 10
252.256
 20
132.461
 11
252.569
 21
132.461
  0
LINE
  8
0
 10
252.569
 20
132.461
 11
252.876
 21
132.395
  0
LINE
  8
0
 10
252.876
 20
132.395
 11
253.162
 21
132.268
  0
LINE
  8
0
 10
253.162
 20
132.268
 11
253.416
 21
132.083
  0
LINE
  8
0
 10
253.416
 20
132.083
 11
253.626
 21
131.85
  0
LINE
  8
0
 10
253.626
 20
131.85
 11
253.783
 21
131.579
  0
LINE
  8
0
 10
253.783
 20
131.579
 11
253.88
 21
131.281
  0
LINE
  8
0
 10
253.88
 20
131.281
 11
253.912
 21
130.969
  0
LINE
  8
0
 10
253.912
 20
130.969
 11
253.88
 21
130.657
  0
LINE
  8
0
 10
253.88
 20
130.657
 11
253.783
 21
130.359
  0
LINE
  8
0
 10
253.783
 20
130.359
 11
253.626
 21
130.087
  0
LINE
  8
0
 10
253.626
 20
130.087
 11
253.416
 21
129.854
  0
LINE
  8
0
 10
253.416
 20
129.854
 11
253.162
 21
129.67
  0
LINE
  8
0
 10
253.162
 20
129.67
 11
252.876
 21
129.542
  0
LINE
  8
0
 10
252.876
 20
129.542
 11
252.569
 21
129.477
  0
LINE
  8
0
 10
252.569
 20
129.477
 11
252.256
 21
129.477
  0
LINE
  8
0
 10
233.506
 20
114.444
 11
233.506
 21
128.444
  0
LINE
  8
0
 10
233.506
 20
128.444
 11
247.506
 21
128.444
  0
LINE
  8
0
 10
247.506
 20
128.444
 11
247.506
 21
114.444
  0
LINE
  8
0
 10
247.506
 20
114.444
 11
233.506
 21
114.444
  0
LINE
  8
0
 10
328.756
 20
114.444
 11
328.756
 21
128.444
  0
LINE
  8
0
 10
328.756
 20
128.444
 11
342.756
 21
128.444
  0
LINE
  8
0
 10
342.756
 20
128.444
 11
342.756
 21
114.444
  0
LINE
  8
0
 10
342.756
 20
114.444
 11
328.756
 21
114.444
  0
LINE
  8
0
 10
257.319
 20
114.444
 11
257.319
 21
128.444
  0
LINE
  8
0
 10
257.319
 20
128.444
 11
271.319
 21
128.444
  0
LINE
  8
0
 10
271.319
 20
128.444
 11
271.319
 21
114.444
  0
LINE
  8
0
 10
271.319
 20
114.444
 11
257.319
 21
114.444
  0
LINE
  8
0
 10
281.131
 20
114.444
 11
281.131
 21
128.444
  0
LINE
  8
0
 10
281.131
 20
128.444
 11
295.131
 21
128.444
  0
LINE
  8
0
 10
295.131
 20
128.444
 11
295.131
 21
114.444
  0
LINE
  8
0
 10
295.131
 20
114.444
 11
281.131
 21
114.444
  0
LINE
  8
0
 10
280.831
 20
103.283
 11
280.524
 21
103.348
  0
LINE
  8
0
 10
280.524
 20
103.348
 11
280.237
 21
103.476
  0
LINE
  8
0
 10
280.237
 20
103.476
 11
279.984
 21
103.66
  0
LINE
  8
0
 10
279.984
 20
103.66
 11
279.774
 21
103.893
  0
LINE
  8
0
 10
279.774
 20
103.893
 11
279.617
 21
104.165
  0
LINE
  8
0
 10
279.617
 20
104.165
 11
279.52
 21
104.463
  0
LINE
  8
0
 10
279.52
 20
104.463
 11
279.487
 21
104.775
  0
LINE
  8
0
 10
279.487
 20
104.775
 11
279.52
 21
105.087
  0
LINE
  8
0
 10
279.52
 20
105.087
 11
279.617
 21
105.385
  0
LINE
  8
0
 10
279.617
 20
105.385
 11
279.774
 21
105.657
  0
LINE
  8
0
 10
279.774
 20
105.657
 11
279.984
 21
105.89
  0
LINE
  8
0
 10
279.984
 20
105.89
 11
280.237
 21
106.074
  0
LINE
  8
0
 10
280.237
 20
106.074
 11
280.524
 21
106.202
  0
LINE
  8
0
 10
280.524
 20
106.202
 11
280.831
 21
106.267
  0
LINE
  8
0
 10
280.831
 20
106.267
 11
281.144
 21
106.267
  0
LINE
  8
0
 10
281.144
 20
106.267
 11
281.451
 21
106.202
  0
LINE
  8
0
 10
281.451
 20
106.202
 11
281.737
 21
106.074
  0
LINE
  8
0
 10
281.737
 20
106.074
 11
281.991
 21
105.89
  0
LINE
  8
0
 10
281.991
 20
105.89
 11
282.201
 21
105.657
  0
LINE
  8
0
 10
282.201
 20
105.657
 11
282.358
 21
105.385
  0
LINE
  8
0
 10
282.358
 20
105.385
 11
282.455
 21
105.087
  0
LINE
  8
0
 10
282.455
 20
105.087
 11
282.487
 21
104.775
  0
LINE
  8
0
 10
282.487
 20
104.775
 11
282.455
 21
104.463
  0
LINE
  8
0
 10
282.455
 20
104.463
 11
282.358
 21
104.165
  0
LINE
  8
0
 10
282.358
 20
104.165
 11
282.201
 21
103.893
  0
LINE
  8
0
 10
282.201
 20
103.893
 11
281.991
 21
103.66
  0
LINE
  8
0
 10
281.991
 20
103.66
 11
281.737
 21
103.476
  0
LINE
  8
0
 10
281.737
 20
103.476
 11
281.451
 21
103.348
  0
LINE
  8
0
 10
281.451
 20
103.348
 11
281.144
 21
103.283
  0
LINE
  8
0
 10
281.144
 20
103.283
 11
280.831
 21
103.283
  0
LINE
  8
0
 10
261.781
 20
103.283
 11
261.474
 21
103.348
  0
LINE
  8
0
 10
261.474
 20
103.348
 11
261.187
 21
103.476
  0
LINE
  8
0
 10
261.187
 20
103.476
 11
260.934
 21
103.66
  0
LINE
  8
0
 10
260.934
 20
103.66
 11
260.724
 21
103.893
  0
LINE
  8
0
 10
260.724
 20
103.893
 11
260.567
 21
104.165
  0
LINE
  8
0
 10
260.567
 20
104.165
 11
260.47
 21
104.463
  0
LINE
  8
0
 10
260.47
 20
104.463
 11
260.437
 21
104.775
  0
LINE
  8
0
 10
260.437
 20
104.775
 11
260.47
 21
105.087
  0
LINE
  8
0
 10
260.47
 20
105.087
 11
260.567
 21
105.385
  0
LINE
  8
0
 10
260.567
 20
105.385
 11
260.724
 21
105.657
  0
LINE
  8
0
 10
260.724
 20
105.657
 11
260.934
 21
105.89
  0
LINE
  8
0
 10
260.934
 20
105.89
 11
261.187
 21
106.074
  0
LINE
  8
0
 10
261.187
 20
106.074
 11
261.474
 21
106.202
  0
LINE
  8
0
 10
261.474
 20
106.202
 11
261.781
 21
106.267
  0
LINE
  8
0
 10
261.781
 20
106.267
 11
262.094
 21
106.267
  0
LINE
  8
0
 10
262.094
 20
106.267
 11
262.401
 21
106.202
  0
LINE
  8
0
 10
262.401
 20
106.202
 11
262.687
 21
106.074
  0
LINE
  8
0
 10
262.687
 20
106.074
 11
262.941
 21
105.89
  0
LINE
  8
0
 10
262.941
 20
105.89
 11
263.151
 21
105.657
  0
LINE
  8
0
 10
263.151
 20
105.657
 11
263.308
 21
105.385
  0
LINE
  8
0
 10
263.308
 20
105.385
 11
263.405
 21
105.087
  0
LINE
  8
0
 10
263.405
 20
105.087
 11
263.437
 21
104.775
  0
LINE
  8
0
 10
263.437
 20
104.775
 11
263.405
 21
104.463
  0
LINE
  8
0
 10
263.405
 20
104.463
 11
263.308
 21
104.165
  0
LINE
  8
0
 10
263.308
 20
104.165
 11
263.151
 21
103.893
  0
LINE
  8
0
 10
263.151
 20
103.893
 11
262.941
 21
103.66
  0
LINE
  8
0
 10
262.941
 20
103.66
 11
262.687
 21
103.476
  0
LINE
  8
0
 10
262.687
 20
103.476
 11
262.401
 21
103.348
  0
LINE
  8
0
 10
262.401
 20
103.348
 11
262.094
 21
103.283
  0
LINE
  8
0
 10
262.094
 20
103.283
 11
261.781
 21
103.283
  0
LINE
  8
0
 10
242.731
 20
103.283
 11
242.424
 21
103.348
  0
LINE
  8
0
 10
242.424
 20
103.348
 11
242.137
 21
103.476
  0
LINE
  8
0
 10
242.137
 20
103.476
 11
241.884
 21
103.66
  0
LINE
  8
0
 10
241.884
 20
103.66
 11
241.674
 21
103.893
  0
LINE
  8
0
 10
241.674
 20
103.893
 11
241.517
 21
104.165
  0
LINE
  8
0
 10
241.517
 20
104.165
 11
241.42
 21
104.463
  0
LINE
  8
0
 10
241.42
 20
104.463
 11
241.387
 21
104.775
  0
LINE
  8
0
 10
241.387
 20
104.775
 11
241.42
 21
105.087
  0
LINE
  8
0
 10
241.42
 20
105.087
 11
241.517
 21
105.385
  0
LINE
  8
0
 10
241.517
 20
105.385
 11
241.674
 21
105.657
  0
LINE
  8
0
 10
241.674
 20
105.657
 11
241.884
 21
105.89
  0
LINE
  8
0
 10
241.884
 20
105.89
 11
242.137
 21
106.074
  0
LINE
  8
0
 10
242.137
 20
106.074
 11
242.424
 21
106.202
  0
LINE
  8
0
 10
242.424
 20
106.202
 11
242.731
 21
106.267
  0
LINE
  8
0
 10
242.731
 20
106.267
 11
243.044
 21
106.267
  0
LINE
  8
0
 10
243.044
 20
106.267
 11
243.351
 21
106.202
  0
LINE
  8
0
 10
243.351
 20
106.202
 11
243.637
 21
106.074
  0
LINE
  8
0
 10
243.637
 20
106.074
 11
243.891
 21
105.89
  0
LINE
  8
0
 10
243.891
 20
105.89
 11
244.101
 21
105.657
  0
LINE
  8
0
 10
244.101
 20
105.657
 11
244.258
 21
105.385
  0
LINE
  8
0
 10
244.258
 20
105.385
 11
244.355
 21
105.087
  0
LINE
  8
0
 10
244.355
 20
105.087
 11
244.387
 21
104.775
  0
LINE
  8
0
 10
244.387
 20
104.775
 11
244.355
 21
104.463
  0
LINE
  8
0
 10
244.355
 20
104.463
 11
244.258
 21
104.165
  0
LINE
  8
0
 10
244.258
 20
104.165
 11
244.101
 21
103.893
  0
LINE
  8
0
 10
244.101
 20
103.893
 11
243.891
 21
103.66
  0
LINE
  8
0
 10
243.891
 20
103.66
 11
243.637
 21
103.476
  0
LINE
  8
0
 10
243.637
 20
103.476
 11
243.351
 21
103.348
  0
LINE
  8
0
 10
243.351
 20
103.348
 11
243.044
 21
103.283
  0
LINE
  8
0
 10
243.044
 20
103.283
 11
242.731
 21
103.283
  0
LINE
  8
0
 10
323.693
 20
100.902
 11
323.386
 21
100.967
  0
LINE
  8
0
 10
323.386
 20
100.967
 11
323.1
 21
101.095
  0
LINE
  8
0
 10
323.1
 20
101.095
 11
322.846
 21
101.279
  0
LINE
  8
0
 10
322.846
 20
101.279
 11
322.636
 21
101.512
  0
LINE
  8
0
 10
322.636
 20
101.512
 11
322.48
 21
101.784
  0
LINE
  8
0
 10
322.48
 20
101.784
 11
322.383
 21
102.082
  0
LINE
  8
0
 10
322.383
 20
102.082
 11
322.35
 21
102.394
  0
LINE
  8
0
 10
322.35
 20
102.394
 11
322.383
 21
102.706
  0
LINE
  8
0
 10
322.383
 20
102.706
 11
322.48
 21
103.004
  0
LINE
  8
0
 10
322.48
 20
103.004
 11
322.636
 21
103.275
  0
LINE
  8
0
 10
322.636
 20
103.275
 11
322.846
 21
103.508
  0
LINE
  8
0
 10
322.846
 20
103.508
 11
323.1
 21
103.693
  0
LINE
  8
0
 10
323.1
 20
103.693
 11
323.386
 21
103.82
  0
LINE
  8
0
 10
323.386
 20
103.82
 11
323.693
 21
103.885
  0
LINE
  8
0
 10
323.693
 20
103.885
 11
324.007
 21
103.885
  0
LINE
  8
0
 10
324.007
 20
103.885
 11
324.313
 21
103.82
  0
LINE
  8
0
 10
324.313
 20
103.82
 11
324.6
 21
103.693
  0
LINE
  8
0
 10
324.6
 20
103.693
 11
324.854
 21
103.508
  0
LINE
  8
0
 10
324.854
 20
103.508
 11
325.063
 21
103.275
  0
LINE
  8
0
 10
325.063
 20
103.275
 11
325.22
 21
103.004
  0
LINE
  8
0
 10
325.22
 20
103.004
 11
325.317
 21
102.706
  0
LINE
  8
0
 10
325.317
 20
102.706
 11
325.35
 21
102.394
  0
LINE
  8
0
 10
325.35
 20
102.394
 11
325.317
 21
102.082
  0
LINE
  8
0
 10
325.317
 20
102.082
 11
325.22
 21
101.784
  0
LINE
  8
0
 10
325.22
 20
101.784
 11
325.063
 21
101.512
  0
LINE
  8
0
 10
325.063
 20
101.512
 11
324.854
 21
101.279
  0
LINE
  8
0
 10
324.854
 20
101.279
 11
324.6
 21
101.095
  0
LINE
  8
0
 10
324.6
 20
101.095
 11
324.313
 21
100.967
  0
LINE
  8
0
 10
324.313
 20
100.967
 11
324.007
 21
100.902
  0
LINE
  8
0
 10
324.007
 20
100.902
 11
323.693
 21
100.902
  0
LINE
  8
0
 10
93.0125
 20
88.25
 11
93.0125
 21
102.25
  0
LINE
  8
0
 10
93.0125
 20
102.25
 11
107.012
 21
102.25
  0
LINE
  8
0
 10
107.012
 20
102.25
 11
107.012
 21
88.25
  0
LINE
  8
0
 10
107.012
 20
88.25
 11
93.0125
 21
88.25
  0
LINE
  8
0
 10
226.362
 20
88.25
 11
226.362
 21
102.25
  0
LINE
  8
0
 10
226.362
 20
102.25
 11
240.362
 21
102.25
  0
LINE
  8
0
 10
240.362
 20
102.25
 11
240.362
 21
88.25
  0
LINE
  8
0
 10
240.362
 20
88.25
 11
226.362
 21
88.25
  0
LINE
  8
0
 10
14.4312
 20
88.25
 11
14.4312
 21
102.25
  0
LINE
  8
0
 10
14.4312
 20
102.25
 11
28.4312
 21
102.25
  0
LINE
  8
0
 10
28.4312
 20
102.25
 11
28.4312
 21
88.25
  0
LINE
  8
0
 10
28.4312
 20
88.25
 11
14.4312
 21
88.25
  0
LINE
  8
0
 10
35.8625
 20
88.25
 11
35.8625
 21
102.25
  0
LINE
  8
0
 10
35.8625
 20
102.25
 11
49.8625
 21
102.25
  0
LINE
  8
0
 10
49.8625
 20
102.25
 11
49.8625
 21
88.25
  0
LINE
  8
0
 10
49.8625
 20
88.25
 11
35.8625
 21
88.25
  0
LINE
  8
0
 10
54.9125
 20
88.25
 11
54.9125
 21
102.25
  0
LINE
  8
0
 10
54.9125
 20
102.25
 11
68.9125
 21
102.25
  0
LINE
  8
0
 10
68.9125
 20
102.25
 11
68.9125
 21
88.25
  0
LINE
  8
0
 10
68.9125
 20
88.25
 11
54.9125
 21
88.25
  0
LINE
  8
0
 10
73.9625
 20
88.25
 11
73.9625
 21
102.25
  0
LINE
  8
0
 10
73.9625
 20
102.25
 11
87.9625
 21
102.25
  0
LINE
  8
0
 10
87.9625
 20
102.25
 11
87.9625
 21
88.25
  0
LINE
  8
0
 10
87.9625
 20
88.25
 11
73.9625
 21
88.25
  0
LINE
  8
0
 10
283.512
 20
88.25
 11
283.512
 21
102.25
  0
LINE
  8
0
 10
283.512
 20
102.25
 11
297.512
 21
102.25
  0
LINE
  8
0
 10
297.512
 20
102.25
 11
297.512
 21
88.25
  0
LINE
  8
0
 10
297.512
 20
88.25
 11
283.512
 21
88.25
  0
LINE
  8
0
 10
264.462
 20
88.25
 11
264.462
 21
102.25
  0
LINE
  8
0
 10
264.462
 20
102.25
 11
278.462
 21
102.25
  0
LINE
  8
0
 10
278.462
 20
102.25
 11
278.462
 21
88.25
  0
LINE
  8
0
 10
278.462
 20
88.25
 11
264.462
 21
88.25
  0
LINE
  8
0
 10
245.412
 20
88.25
 11
245.412
 21
102.25
  0
LINE
  8
0
 10
245.412
 20
102.25
 11
259.412
 21
102.25
  0
LINE
  8
0
 10
259.412
 20
102.25
 11
259.412
 21
88.25
  0
LINE
  8
0
 10
259.412
 20
88.25
 11
245.412
 21
88.25
  0
LINE
  8
0
 10
207.312
 20
88.25
 11
207.312
 21
102.25
  0
LINE
  8
0
 10
207.312
 20
102.25
 11
221.312
 21
102.25
  0
LINE
  8
0
 10
221.312
 20
102.25
 11
221.312
 21
88.25
  0
LINE
  8
0
 10
221.312
 20
88.25
 11
207.312
 21
88.25
  0
LINE
  8
0
 10
188.262
 20
88.25
 11
188.262
 21
102.25
  0
LINE
  8
0
 10
188.262
 20
102.25
 11
202.262
 21
102.25
  0
LINE
  8
0
 10
202.262
 20
102.25
 11
202.262
 21
88.25
  0
LINE
  8
0
 10
202.262
 20
88.25
 11
188.262
 21
88.25
  0
LINE
  8
0
 10
169.212
 20
88.25
 11
169.212
 21
102.25
  0
LINE
  8
0
 10
169.212
 20
102.25
 11
183.212
 21
102.25
  0
LINE
  8
0
 10
183.212
 20
102.25
 11
183.212
 21
88.25
  0
LINE
  8
0
 10
183.212
 20
88.25
 11
169.212
 21
88.25
  0
LINE
  8
0
 10
150.162
 20
88.25
 11
150.162
 21
102.25
  0
LINE
  8
0
 10
150.162
 20
102.25
 11
164.162
 21
102.25
  0
LINE
  8
0
 10
164.162
 20
102.25
 11
164.162
 21
88.25
  0
LINE
  8
0
 10
164.162
 20
88.25
 11
150.162
 21
88.25
  0
LINE
  8
0
 10
131.112
 20
88.25
 11
131.112
 21
102.25
  0
LINE
  8
0
 10
131.112
 20
102.25
 11
145.112
 21
102.25
  0
LINE
  8
0
 10
145.112
 20
102.25
 11
145.112
 21
88.25
  0
LINE
  8
0
 10
145.112
 20
88.25
 11
131.112
 21
88.25
  0
LINE
  8
0
 10
112.062
 20
88.25
 11
112.062
 21
102.25
  0
LINE
  8
0
 10
112.062
 20
102.25
 11
126.062
 21
102.25
  0
LINE
  8
0
 10
126.062
 20
102.25
 11
126.062
 21
88.25
  0
LINE
  8
0
 10
126.062
 20
88.25
 11
112.062
 21
88.25
  0
LINE
  8
0
 10
328.756
 20
85.8687
 11
328.756
 21
99.8687
  0
LINE
  8
0
 10
328.756
 20
99.8687
 11
342.756
 21
99.8687
  0
LINE
  8
0
 10
342.756
 20
99.8687
 11
342.756
 21
85.8687
  0
LINE
  8
0
 10
342.756
 20
85.8687
 11
328.756
 21
85.8687
  0
LINE
  8
0
 10
214.156
 20
84.2332
 11
213.849
 21
84.2984
  0
LINE
  8
0
 10
213.849
 20
84.2984
 11
213.562
 21
84.4259
  0
LINE
  8
0
 10
213.562
 20
84.4259
 11
213.309
 21
84.6103
  0
LINE
  8
0
 10
213.309
 20
84.6103
 11
213.099
 21
84.8433
  0
LINE
  8
0
 10
213.099
 20
84.8433
 11
212.942
 21
85.1149
  0
LINE
  8
0
 10
212.942
 20
85.1149
 11
212.845
 21
85.4131
  0
LINE
  8
0
 10
212.845
 20
85.4131
 11
212.812
 21
85.725
  0
LINE
  8
0
 10
212.812
 20
85.725
 11
212.845
 21
86.0368
  0
LINE
  8
0
 10
212.845
 20
86.0368
 11
212.942
 21
86.3351
  0
LINE
  8
0
 10
212.942
 20
86.3351
 11
213.099
 21
86.6066
  0
LINE
  8
0
 10
213.099
 20
86.6066
 11
213.309
 21
86.8397
  0
LINE
  8
0
 10
213.309
 20
86.8397
 11
213.562
 21
87.024
  0
LINE
  8
0
 10
213.562
 20
87.024
 11
213.849
 21
87.1516
  0
LINE
  8
0
 10
213.849
 20
87.1516
 11
214.156
 21
87.2168
  0
LINE
  8
0
 10
214.156
 20
87.2168
 11
214.469
 21
87.2168
  0
LINE
  8
0
 10
214.469
 20
87.2168
 11
214.776
 21
87.1516
  0
LINE
  8
0
 10
214.776
 20
87.1516
 11
215.062
 21
87.024
  0
LINE
  8
0
 10
215.062
 20
87.024
 11
215.316
 21
86.8397
  0
LINE
  8
0
 10
215.316
 20
86.8397
 11
215.526
 21
86.6066
  0
LINE
  8
0
 10
215.526
 20
86.6066
 11
215.683
 21
86.3351
  0
LINE
  8
0
 10
215.683
 20
86.3351
 11
215.78
 21
86.0368
  0
LINE
  8
0
 10
215.78
 20
86.0368
 11
215.812
 21
85.725
  0
LINE
  8
0
 10
215.812
 20
85.725
 11
215.78
 21
85.4131
  0
LINE
  8
0
 10
215.78
 20
85.4131
 11
215.683
 21
85.1149
  0
LINE
  8
0
 10
215.683
 20
85.1149
 11
215.526
 21
84.8433
  0
LINE
  8
0
 10
215.526
 20
84.8433
 11
215.316
 21
84.6103
  0
LINE
  8
0
 10
215.316
 20
84.6103
 11
215.062
 21
84.4259
  0
LINE
  8
0
 10
215.062
 20
84.4259
 11
214.776
 21
84.2984
  0
LINE
  8
0
 10
214.776
 20
84.2984
 11
214.469
 21
84.2332
  0
LINE
  8
0
 10
214.469
 20
84.2332
 11
214.156
 21
84.2332
  0
LINE
  8
0
 10
195.106
 20
84.2332
 11
194.799
 21
84.2984
  0
LINE
  8
0
 10
194.799
 20
84.2984
 11
194.512
 21
84.4259
  0
LINE
  8
0
 10
194.512
 20
84.4259
 11
194.259
 21
84.6103
  0
LINE
  8
0
 10
194.259
 20
84.6103
 11
194.049
 21
84.8433
  0
LINE
  8
0
 10
194.049
 20
84.8433
 11
193.892
 21
85.1149
  0
LINE
  8
0
 10
193.892
 20
85.1149
 11
193.795
 21
85.4131
  0
LINE
  8
0
 10
193.795
 20
85.4131
 11
193.762
 21
85.725
  0
LINE
  8
0
 10
193.762
 20
85.725
 11
193.795
 21
86.0368
  0
LINE
  8
0
 10
193.795
 20
86.0368
 11
193.892
 21
86.3351
  0
LINE
  8
0
 10
193.892
 20
86.3351
 11
194.049
 21
86.6066
  0
LINE
  8
0
 10
194.049
 20
86.6066
 11
194.259
 21
86.8397
  0
LINE
  8
0
 10
194.259
 20
86.8397
 11
194.512
 21
87.024
  0
LINE
  8
0
 10
194.512
 20
87.024
 11
194.799
 21
87.1516
  0
LINE
  8
0
 10
194.799
 20
87.1516
 11
195.106
 21
87.2168
  0
LINE
  8
0
 10
195.106
 20
87.2168
 11
195.419
 21
87.2168
  0
LINE
  8
0
 10
195.419
 20
87.2168
 11
195.726
 21
87.1516
  0
LINE
  8
0
 10
195.726
 20
87.1516
 11
196.012
 21
87.024
  0
LINE
  8
0
 10
196.012
 20
87.024
 11
196.266
 21
86.8397
  0
LINE
  8
0
 10
196.266
 20
86.8397
 11
196.476
 21
86.6066
  0
LINE
  8
0
 10
196.476
 20
86.6066
 11
196.633
 21
86.3351
  0
LINE
  8
0
 10
196.633
 20
86.3351
 11
196.73
 21
86.0368
  0
LINE
  8
0
 10
196.73
 20
86.0368
 11
196.762
 21
85.725
  0
LINE
  8
0
 10
196.762
 20
85.725
 11
196.73
 21
85.4131
  0
LINE
  8
0
 10
196.73
 20
85.4131
 11
196.633
 21
85.1149
  0
LINE
  8
0
 10
196.633
 20
85.1149
 11
196.476
 21
84.8433
  0
LINE
  8
0
 10
196.476
 20
84.8433
 11
196.266
 21
84.6103
  0
LINE
  8
0
 10
196.266
 20
84.6103
 11
196.012
 21
84.4259
  0
LINE
  8
0
 10
196.012
 20
84.4259
 11
195.726
 21
84.2984
  0
LINE
  8
0
 10
195.726
 20
84.2984
 11
195.419
 21
84.2332
  0
LINE
  8
0
 10
195.419
 20
84.2332
 11
195.106
 21
84.2332
  0
LINE
  8
0
 10
9.36816
 20
84.2332
 11
9.06143
 21
84.2984
  0
LINE
  8
0
 10
9.06143
 20
84.2984
 11
8.77496
 21
84.4259
  0
LINE
  8
0
 10
8.77496
 20
84.4259
 11
8.52126
 21
84.6103
  0
LINE
  8
0
 10
8.52126
 20
84.6103
 11
8.31143
 21
84.8433
  0
LINE
  8
0
 10
8.31143
 20
84.8433
 11
8.15465
 21
85.1149
  0
LINE
  8
0
 10
8.15465
 20
85.1149
 11
8.05774
 21
85.4131
  0
LINE
  8
0
 10
8.05774
 20
85.4131
 11
8.02496
 21
85.725
  0
LINE
  8
0
 10
8.02496
 20
85.725
 11
8.05774
 21
86.0368
  0
LINE
  8
0
 10
8.05774
 20
86.0368
 11
8.15465
 21
86.3351
  0
LINE
  8
0
 10
8.15465
 20
86.3351
 11
8.31143
 21
86.6066
  0
LINE
  8
0
 10
8.31143
 20
86.6066
 11
8.52126
 21
86.8397
  0
LINE
  8
0
 10
8.52126
 20
86.8397
 11
8.77496
 21
87.024
  0
LINE
  8
0
 10
8.77496
 20
87.024
 11
9.06143
 21
87.1516
  0
LINE
  8
0
 10
9.06143
 20
87.1516
 11
9.36816
 21
87.2168
  0
LINE
  8
0
 10
9.36816
 20
87.2168
 11
9.68175
 21
87.2168
  0
LINE
  8
0
 10
9.68175
 20
87.2168
 11
9.98848
 21
87.1516
  0
LINE
  8
0
 10
9.98848
 20
87.1516
 11
10.275
 21
87.024
  0
LINE
  8
0
 10
10.275
 20
87.024
 11
10.5287
 21
86.8397
  0
LINE
  8
0
 10
10.5287
 20
86.8397
 11
10.7385
 21
86.6066
  0
LINE
  8
0
 10
10.7385
 20
86.6066
 11
10.8953
 21
86.3351
  0
LINE
  8
0
 10
10.8953
 20
86.3351
 11
10.9922
 21
86.0368
  0
LINE
  8
0
 10
10.9922
 20
86.0368
 11
11.025
 21
85.725
  0
LINE
  8
0
 10
11.025
 20
85.725
 11
10.9922
 21
85.4131
  0
LINE
  8
0
 10
10.9922
 20
85.4131
 11
10.8953
 21
85.1149
  0
LINE
  8
0
 10
10.8953
 20
85.1149
 11
10.7385
 21
84.8433
  0
LINE
  8
0
 10
10.7385
 20
84.8433
 11
10.5287
 21
84.6103
  0
LINE
  8
0
 10
10.5287
 20
84.6103
 11
10.275
 21
84.4259
  0
LINE
  8
0
 10
10.275
 20
84.4259
 11
9.98848
 21
84.2984
  0
LINE
  8
0
 10
9.98848
 20
84.2984
 11
9.68175
 21
84.2332
  0
LINE
  8
0
 10
9.68175
 20
84.2332
 11
9.36816
 21
84.2332
  0
LINE
  8
0
 10
61.7557
 20
84.2332
 11
61.4489
 21
84.2984
  0
LINE
  8
0
 10
61.4489
 20
84.2984
 11
61.1625
 21
84.4259
  0
LINE
  8
0
 10
61.1625
 20
84.4259
 11
60.9088
 21
84.6103
  0
LINE
  8
0
 10
60.9088
 20
84.6103
 11
60.6989
 21
84.8433
  0
LINE
  8
0
 10
60.6989
 20
84.8433
 11
60.5421
 21
85.1149
  0
LINE
  8
0
 10
60.5421
 20
85.1149
 11
60.4452
 21
85.4131
  0
LINE
  8
0
 10
60.4452
 20
85.4131
 11
60.4125
 21
85.725
  0
LINE
  8
0
 10
60.4125
 20
85.725
 11
60.4452
 21
86.0368
  0
LINE
  8
0
 10
60.4452
 20
86.0368
 11
60.5421
 21
86.3351
  0
LINE
  8
0
 10
60.5421
 20
86.3351
 11
60.6989
 21
86.6066
  0
LINE
  8
0
 10
60.6989
 20
86.6066
 11
60.9088
 21
86.8397
  0
LINE
  8
0
 10
60.9088
 20
86.8397
 11
61.1625
 21
87.024
  0
LINE
  8
0
 10
61.1625
 20
87.024
 11
61.4489
 21
87.1516
  0
LINE
  8
0
 10
61.4489
 20
87.1516
 11
61.7557
 21
87.2168
  0
LINE
  8
0
 10
61.7557
 20
87.2168
 11
62.0692
 21
87.2168
  0
LINE
  8
0
 10
62.0692
 20
87.2168
 11
62.376
 21
87.1516
  0
LINE
  8
0
 10
62.376
 20
87.1516
 11
62.6625
 21
87.024
  0
LINE
  8
0
 10
62.6625
 20
87.024
 11
62.9162
 21
86.8397
  0
LINE
  8
0
 10
62.9162
 20
86.8397
 11
63.126
 21
86.6066
  0
LINE
  8
0
 10
63.126
 20
86.6066
 11
63.2828
 21
86.3351
  0
LINE
  8
0
 10
63.2828
 20
86.3351
 11
63.3797
 21
86.0368
  0
LINE
  8
0
 10
63.3797
 20
86.0368
 11
63.4125
 21
85.725
  0
LINE
  8
0
 10
63.4125
 20
85.725
 11
63.3797
 21
85.4131
  0
LINE
  8
0
 10
63.3797
 20
85.4131
 11
63.2828
 21
85.1149
  0
LINE
  8
0
 10
63.2828
 20
85.1149
 11
63.126
 21
84.8433
  0
LINE
  8
0
 10
63.126
 20
84.8433
 11
62.9162
 21
84.6103
  0
LINE
  8
0
 10
62.9162
 20
84.6103
 11
62.6625
 21
84.4259
  0
LINE
  8
0
 10
62.6625
 20
84.4259
 11
62.376
 21
84.2984
  0
LINE
  8
0
 10
62.376
 20
84.2984
 11
62.0692
 21
84.2332
  0
LINE
  8
0
 10
62.0692
 20
84.2332
 11
61.7557
 21
84.2332
  0
LINE
  8
0
 10
80.8057
 20
84.2332
 11
80.4989
 21
84.2984
  0
LINE
  8
0
 10
80.4989
 20
84.2984
 11
80.2125
 21
84.4259
  0
LINE
  8
0
 10
80.2125
 20
84.4259
 11
79.9588
 21
84.6103
  0
LINE
  8
0
 10
79.9588
 20
84.6103
 11
79.7489
 21
84.8433
  0
LINE
  8
0
 10
79.7489
 20
84.8433
 11
79.5921
 21
85.1149
  0
LINE
  8
0
 10
79.5921
 20
85.1149
 11
79.4952
 21
85.4131
  0
LINE
  8
0
 10
79.4952
 20
85.4131
 11
79.4625
 21
85.725
  0
LINE
  8
0
 10
79.4625
 20
85.725
 11
79.4952
 21
86.0368
  0
LINE
  8
0
 10
79.4952
 20
86.0368
 11
79.5921
 21
86.3351
  0
LINE
  8
0
 10
79.5921
 20
86.3351
 11
79.7489
 21
86.6066
  0
LINE
  8
0
 10
79.7489
 20
86.6066
 11
79.9588
 21
86.8397
  0
LINE
  8
0
 10
79.9588
 20
86.8397
 11
80.2125
 21
87.024
  0
LINE
  8
0
 10
80.2125
 20
87.024
 11
80.4989
 21
87.1516
  0
LINE
  8
0
 10
80.4989
 20
87.1516
 11
80.8057
 21
87.2168
  0
LINE
  8
0
 10
80.8057
 20
87.2168
 11
81.1192
 21
87.2168
  0
LINE
  8
0
 10
81.1192
 20
87.2168
 11
81.426
 21
87.1516
  0
LINE
  8
0
 10
81.426
 20
87.1516
 11
81.7125
 21
87.024
  0
LINE
  8
0
 10
81.7125
 20
87.024
 11
81.9662
 21
86.8397
  0
LINE
  8
0
 10
81.9662
 20
86.8397
 11
82.176
 21
86.6066
  0
LINE
  8
0
 10
82.176
 20
86.6066
 11
82.3328
 21
86.3351
  0
LINE
  8
0
 10
82.3328
 20
86.3351
 11
82.4297
 21
86.0368
  0
LINE
  8
0
 10
82.4297
 20
86.0368
 11
82.4625
 21
85.725
  0
LINE
  8
0
 10
82.4625
 20
85.725
 11
82.4297
 21
85.4131
  0
LINE
  8
0
 10
82.4297
 20
85.4131
 11
82.3328
 21
85.1149
  0
LINE
  8
0
 10
82.3328
 20
85.1149
 11
82.176
 21
84.8433
  0
LINE
  8
0
 10
82.176
 20
84.8433
 11
81.9662
 21
84.6103
  0
LINE
  8
0
 10
81.9662
 20
84.6103
 11
81.7125
 21
84.4259
  0
LINE
  8
0
 10
81.7125
 20
84.4259
 11
81.426
 21
84.2984
  0
LINE
  8
0
 10
81.426
 20
84.2984
 11
81.1192
 21
84.2332
  0
LINE
  8
0
 10
81.1192
 20
84.2332
 11
80.8057
 21
84.2332
  0
LINE
  8
0
 10
99.8557
 20
84.2332
 11
99.5489
 21
84.2984
  0
LINE
  8
0
 10
99.5489
 20
84.2984
 11
99.2625
 21
84.4259
  0
LINE
  8
0
 10
99.2625
 20
84.4259
 11
99.0088
 21
84.6103
  0
LINE
  8
0
 10
99.0088
 20
84.6103
 11
98.7989
 21
84.8433
  0
LINE
  8
0
 10
98.7989
 20
84.8433
 11
98.6421
 21
85.1149
  0
LINE
  8
0
 10
98.6421
 20
85.1149
 11
98.5452
 21
85.4131
  0
LINE
  8
0
 10
98.5452
 20
85.4131
 11
98.5125
 21
85.725
  0
LINE
  8
0
 10
98.5125
 20
85.725
 11
98.5452
 21
86.0368
  0
LINE
  8
0
 10
98.5452
 20
86.0368
 11
98.6421
 21
86.3351
  0
LINE
  8
0
 10
98.6421
 20
86.3351
 11
98.7989
 21
86.6066
  0
LINE
  8
0
 10
98.7989
 20
86.6066
 11
99.0088
 21
86.8397
  0
LINE
  8
0
 10
99.0088
 20
86.8397
 11
99.2625
 21
87.024
  0
LINE
  8
0
 10
99.2625
 20
87.024
 11
99.5489
 21
87.1516
  0
LINE
  8
0
 10
99.5489
 20
87.1516
 11
99.8557
 21
87.2168
  0
LINE
  8
0
 10
99.8557
 20
87.2168
 11
100.169
 21
87.2168
  0
LINE
  8
0
 10
100.169
 20
87.2168
 11
100.476
 21
87.1516
  0
LINE
  8
0
 10
100.476
 20
87.1516
 11
100.762
 21
87.024
  0
LINE
  8
0
 10
100.762
 20
87.024
 11
101.016
 21
86.8397
  0
LINE
  8
0
 10
101.016
 20
86.8397
 11
101.226
 21
86.6066
  0
LINE
  8
0
 10
101.226
 20
86.6066
 11
101.383
 21
86.3351
  0
LINE
  8
0
 10
101.383
 20
86.3351
 11
101.48
 21
86.0368
  0
LINE
  8
0
 10
101.48
 20
86.0368
 11
101.512
 21
85.725
  0
LINE
  8
0
 10
101.512
 20
85.725
 11
101.48
 21
85.4131
  0
LINE
  8
0
 10
101.48
 20
85.4131
 11
101.383
 21
85.1149
  0
LINE
  8
0
 10
101.383
 20
85.1149
 11
101.226
 21
84.8433
  0
LINE
  8
0
 10
101.226
 20
84.8433
 11
101.016
 21
84.6103
  0
LINE
  8
0
 10
101.016
 20
84.6103
 11
100.762
 21
84.4259
  0
LINE
  8
0
 10
100.762
 20
84.4259
 11
100.476
 21
84.2984
  0
LINE
  8
0
 10
100.476
 20
84.2984
 11
100.169
 21
84.2332
  0
LINE
  8
0
 10
100.169
 20
84.2332
 11
99.8557
 21
84.2332
  0
LINE
  8
0
 10
118.906
 20
84.2332
 11
118.599
 21
84.2984
  0
LINE
  8
0
 10
118.599
 20
84.2984
 11
118.312
 21
84.4259
  0
LINE
  8
0
 10
118.312
 20
84.4259
 11
118.059
 21
84.6103
  0
LINE
  8
0
 10
118.059
 20
84.6103
 11
117.849
 21
84.8433
  0
LINE
  8
0
 10
117.849
 20
84.8433
 11
117.692
 21
85.1149
  0
LINE
  8
0
 10
117.692
 20
85.1149
 11
117.595
 21
85.4131
  0
LINE
  8
0
 10
117.595
 20
85.4131
 11
117.562
 21
85.725
  0
LINE
  8
0
 10
117.562
 20
85.725
 11
117.595
 21
86.0368
  0
LINE
  8
0
 10
117.595
 20
86.0368
 11
117.692
 21
86.3351
  0
LINE
  8
0
 10
117.692
 20
86.3351
 11
117.849
 21
86.6066
  0
LINE
  8
0
 10
117.849
 20
86.6066
 11
118.059
 21
86.8397
  0
LINE
  8
0
 10
118.059
 20
86.8397
 11
118.312
 21
87.024
  0
LINE
  8
0
 10
118.312
 20
87.024
 11
118.599
 21
87.1516
  0
LINE
  8
0
 10
118.599
 20
87.1516
 11
118.906
 21
87.2168
  0
LINE
  8
0
 10
118.906
 20
87.2168
 11
119.219
 21
87.2168
  0
LINE
  8
0
 10
119.219
 20
87.2168
 11
119.526
 21
87.1516
  0
LINE
  8
0
 10
119.526
 20
87.1516
 11
119.812
 21
87.024
  0
LINE
  8
0
 10
119.812
 20
87.024
 11
120.066
 21
86.8397
  0
LINE
  8
0
 10
120.066
 20
86.8397
 11
120.276
 21
86.6066
  0
LINE
  8
0
 10
120.276
 20
86.6066
 11
120.433
 21
86.3351
  0
LINE
  8
0
 10
120.433
 20
86.3351
 11
120.53
 21
86.0368
  0
LINE
  8
0
 10
120.53
 20
86.0368
 11
120.562
 21
85.725
  0
LINE
  8
0
 10
120.562
 20
85.725
 11
120.53
 21
85.4131
  0
LINE
  8
0
 10
120.53
 20
85.4131
 11
120.433
 21
85.1149
  0
LINE
  8
0
 10
120.433
 20
85.1149
 11
120.276
 21
84.8433
  0
LINE
  8
0
 10
120.276
 20
84.8433
 11
120.066
 21
84.6103
  0
LINE
  8
0
 10
120.066
 20
84.6103
 11
119.812
 21
84.4259
  0
LINE
  8
0
 10
119.812
 20
84.4259
 11
119.526
 21
84.2984
  0
LINE
  8
0
 10
119.526
 20
84.2984
 11
119.219
 21
84.2332
  0
LINE
  8
0
 10
119.219
 20
84.2332
 11
118.906
 21
84.2332
  0
LINE
  8
0
 10
137.956
 20
84.2332
 11
137.649
 21
84.2984
  0
LINE
  8
0
 10
137.649
 20
84.2984
 11
137.362
 21
84.4259
  0
LINE
  8
0
 10
137.362
 20
84.4259
 11
137.109
 21
84.6103
  0
LINE
  8
0
 10
137.109
 20
84.6103
 11
136.899
 21
84.8433
  0
LINE
  8
0
 10
136.899
 20
84.8433
 11
136.742
 21
85.1149
  0
LINE
  8
0
 10
136.742
 20
85.1149
 11
136.645
 21
85.4131
  0
LINE
  8
0
 10
136.645
 20
85.4131
 11
136.612
 21
85.725
  0
LINE
  8
0
 10
136.612
 20
85.725
 11
136.645
 21
86.0368
  0
LINE
  8
0
 10
136.645
 20
86.0368
 11
136.742
 21
86.3351
  0
LINE
  8
0
 10
136.742
 20
86.3351
 11
136.899
 21
86.6066
  0
LINE
  8
0
 10
136.899
 20
86.6066
 11
137.109
 21
86.8397
  0
LINE
  8
0
 10
137.109
 20
86.8397
 11
137.362
 21
87.024
  0
LINE
  8
0
 10
137.362
 20
87.024
 11
137.649
 21
87.1516
  0
LINE
  8
0
 10
137.649
 20
87.1516
 11
137.956
 21
87.2168
  0
LINE
  8
0
 10
137.956
 20
87.2168
 11
138.269
 21
87.2168
  0
LINE
  8
0
 10
138.269
 20
87.2168
 11
138.576
 21
87.1516
  0
LINE
  8
0
 10
138.576
 20
87.1516
 11
138.862
 21
87.024
  0
LINE
  8
0
 10
138.862
 20
87.024
 11
139.116
 21
86.8397
  0
LINE
  8
0
 10
139.116
 20
86.8397
 11
139.326
 21
86.6066
  0
LINE
  8
0
 10
139.326
 20
86.6066
 11
139.483
 21
86.3351
  0
LINE
  8
0
 10
139.483
 20
86.3351
 11
139.58
 21
86.0368
  0
LINE
  8
0
 10
139.58
 20
86.0368
 11
139.612
 21
85.725
  0
LINE
  8
0
 10
139.612
 20
85.725
 11
139.58
 21
85.4131
  0
LINE
  8
0
 10
139.58
 20
85.4131
 11
139.483
 21
85.1149
  0
LINE
  8
0
 10
139.483
 20
85.1149
 11
139.326
 21
84.8433
  0
LINE
  8
0
 10
139.326
 20
84.8433
 11
139.116
 21
84.6103
  0
LINE
  8
0
 10
139.116
 20
84.6103
 11
138.862
 21
84.4259
  0
LINE
  8
0
 10
138.862
 20
84.4259
 11
138.576
 21
84.2984
  0
LINE
  8
0
 10
138.576
 20
84.2984
 11
138.269
 21
84.2332
  0
LINE
  8
0
 10
138.269
 20
84.2332
 11
137.956
 21
84.2332
  0
LINE
  8
0
 10
157.006
 20
84.2332
 11
156.699
 21
84.2984
  0
LINE
  8
0
 10
156.699
 20
84.2984
 11
156.412
 21
84.4259
  0
LINE
  8
0
 10
156.412
 20
84.4259
 11
156.159
 21
84.6103
  0
LINE
  8
0
 10
156.159
 20
84.6103
 11
155.949
 21
84.8433
  0
LINE
  8
0
 10
155.949
 20
84.8433
 11
155.792
 21
85.1149
  0
LINE
  8
0
 10
155.792
 20
85.1149
 11
155.695
 21
85.4131
  0
LINE
  8
0
 10
155.695
 20
85.4131
 11
155.662
 21
85.725
  0
LINE
  8
0
 10
155.662
 20
85.725
 11
155.695
 21
86.0368
  0
LINE
  8
0
 10
155.695
 20
86.0368
 11
155.792
 21
86.3351
  0
LINE
  8
0
 10
155.792
 20
86.3351
 11
155.949
 21
86.6066
  0
LINE
  8
0
 10
155.949
 20
86.6066
 11
156.159
 21
86.8397
  0
LINE
  8
0
 10
156.159
 20
86.8397
 11
156.412
 21
87.024
  0
LINE
  8
0
 10
156.412
 20
87.024
 11
156.699
 21
87.1516
  0
LINE
  8
0
 10
156.699
 20
87.1516
 11
157.006
 21
87.2168
  0
LINE
  8
0
 10
157.006
 20
87.2168
 11
157.319
 21
87.2168
  0
LINE
  8
0
 10
157.319
 20
87.2168
 11
157.626
 21
87.1516
  0
LINE
  8
0
 10
157.626
 20
87.1516
 11
157.912
 21
87.024
  0
LINE
  8
0
 10
157.912
 20
87.024
 11
158.166
 21
86.8397
  0
LINE
  8
0
 10
158.166
 20
86.8397
 11
158.376
 21
86.6066
  0
LINE
  8
0
 10
158.376
 20
86.6066
 11
158.533
 21
86.3351
  0
LINE
  8
0
 10
158.533
 20
86.3351
 11
158.63
 21
86.0368
  0
LINE
  8
0
 10
158.63
 20
86.0368
 11
158.662
 21
85.725
  0
LINE
  8
0
 10
158.662
 20
85.725
 11
158.63
 21
85.4131
  0
LINE
  8
0
 10
158.63
 20
85.4131
 11
158.533
 21
85.1149
  0
LINE
  8
0
 10
158.533
 20
85.1149
 11
158.376
 21
84.8433
  0
LINE
  8
0
 10
158.376
 20
84.8433
 11
158.166
 21
84.6103
  0
LINE
  8
0
 10
158.166
 20
84.6103
 11
157.912
 21
84.4259
  0
LINE
  8
0
 10
157.912
 20
84.4259
 11
157.626
 21
84.2984
  0
LINE
  8
0
 10
157.626
 20
84.2984
 11
157.319
 21
84.2332
  0
LINE
  8
0
 10
157.319
 20
84.2332
 11
157.006
 21
84.2332
  0
LINE
  8
0
 10
176.056
 20
84.2332
 11
175.749
 21
84.2984
  0
LINE
  8
0
 10
175.749
 20
84.2984
 11
175.462
 21
84.4259
  0
LINE
  8
0
 10
175.462
 20
84.4259
 11
175.209
 21
84.6103
  0
LINE
  8
0
 10
175.209
 20
84.6103
 11
174.999
 21
84.8433
  0
LINE
  8
0
 10
174.999
 20
84.8433
 11
174.842
 21
85.1149
  0
LINE
  8
0
 10
174.842
 20
85.1149
 11
174.745
 21
85.4131
  0
LINE
  8
0
 10
174.745
 20
85.4131
 11
174.712
 21
85.725
  0
LINE
  8
0
 10
174.712
 20
85.725
 11
174.745
 21
86.0368
  0
LINE
  8
0
 10
174.745
 20
86.0368
 11
174.842
 21
86.3351
  0
LINE
  8
0
 10
174.842
 20
86.3351
 11
174.999
 21
86.6066
  0
LINE
  8
0
 10
174.999
 20
86.6066
 11
175.209
 21
86.8397
  0
LINE
  8
0
 10
175.209
 20
86.8397
 11
175.462
 21
87.024
  0
LINE
  8
0
 10
175.462
 20
87.024
 11
175.749
 21
87.1516
  0
LINE
  8
0
 10
175.749
 20
87.1516
 11
176.056
 21
87.2168
  0
LINE
  8
0
 10
176.056
 20
87.2168
 11
176.369
 21
87.2168
  0
LINE
  8
0
 10
176.369
 20
87.2168
 11
176.676
 21
87.1516
  0
LINE
  8
0
 10
176.676
 20
87.1516
 11
176.962
 21
87.024
  0
LINE
  8
0
 10
176.962
 20
87.024
 11
177.216
 21
86.8397
  0
LINE
  8
0
 10
177.216
 20
86.8397
 11
177.426
 21
86.6066
  0
LINE
  8
0
 10
177.426
 20
86.6066
 11
177.583
 21
86.3351
  0
LINE
  8
0
 10
177.583
 20
86.3351
 11
177.68
 21
86.0368
  0
LINE
  8
0
 10
177.68
 20
86.0368
 11
177.712
 21
85.725
  0
LINE
  8
0
 10
177.712
 20
85.725
 11
177.68
 21
85.4131
  0
LINE
  8
0
 10
177.68
 20
85.4131
 11
177.583
 21
85.1149
  0
LINE
  8
0
 10
177.583
 20
85.1149
 11
177.426
 21
84.8433
  0
LINE
  8
0
 10
177.426
 20
84.8433
 11
177.216
 21
84.6103
  0
LINE
  8
0
 10
177.216
 20
84.6103
 11
176.962
 21
84.4259
  0
LINE
  8
0
 10
176.962
 20
84.4259
 11
176.676
 21
84.2984
  0
LINE
  8
0
 10
176.676
 20
84.2984
 11
176.369
 21
84.2332
  0
LINE
  8
0
 10
176.369
 20
84.2332
 11
176.056
 21
84.2332
  0
LINE
  8
0
 10
42.7057
 20
84.2332
 11
42.3989
 21
84.2984
  0
LINE
  8
0
 10
42.3989
 20
84.2984
 11
42.1125
 21
84.4259
  0
LINE
  8
0
 10
42.1125
 20
84.4259
 11
41.8588
 21
84.6103
  0
LINE
  8
0
 10
41.8588
 20
84.6103
 11
41.6489
 21
84.8433
  0
LINE
  8
0
 10
41.6489
 20
84.8433
 11
41.4921
 21
85.1149
  0
LINE
  8
0
 10
41.4921
 20
85.1149
 11
41.3952
 21
85.4131
  0
LINE
  8
0
 10
41.3952
 20
85.4131
 11
41.3625
 21
85.725
  0
LINE
  8
0
 10
41.3625
 20
85.725
 11
41.3952
 21
86.0368
  0
LINE
  8
0
 10
41.3952
 20
86.0368
 11
41.4921
 21
86.3351
  0
LINE
  8
0
 10
41.4921
 20
86.3351
 11
41.6489
 21
86.6066
  0
LINE
  8
0
 10
41.6489
 20
86.6066
 11
41.8588
 21
86.8397
  0
LINE
  8
0
 10
41.8588
 20
86.8397
 11
42.1125
 21
87.024
  0
LINE
  8
0
 10
42.1125
 20
87.024
 11
42.3989
 21
87.1516
  0
LINE
  8
0
 10
42.3989
 20
87.1516
 11
42.7057
 21
87.2168
  0
LINE
  8
0
 10
42.7057
 20
87.2168
 11
43.0193
 21
87.2168
  0
LINE
  8
0
 10
43.0193
 20
87.2168
 11
43.326
 21
87.1516
  0
LINE
  8
0
 10
43.326
 20
87.1516
 11
43.6125
 21
87.024
  0
LINE
  8
0
 10
43.6125
 20
87.024
 11
43.8661
 21
86.8397
  0
LINE
  8
0
 10
43.8661
 20
86.8397
 11
44.076
 21
86.6066
  0
LINE
  8
0
 10
44.076
 20
86.6066
 11
44.2328
 21
86.3351
  0
LINE
  8
0
 10
44.2328
 20
86.3351
 11
44.3297
 21
86.0368
  0
LINE
  8
0
 10
44.3297
 20
86.0368
 11
44.3625
 21
85.725
  0
LINE
  8
0
 10
44.3625
 20
85.725
 11
44.3297
 21
85.4131
  0
LINE
  8
0
 10
44.3297
 20
85.4131
 11
44.2328
 21
85.1149
  0
LINE
  8
0
 10
44.2328
 20
85.1149
 11
44.076
 21
84.8433
  0
LINE
  8
0
 10
44.076
 20
84.8433
 11
43.8661
 21
84.6103
  0
LINE
  8
0
 10
43.8661
 20
84.6103
 11
43.6125
 21
84.4259
  0
LINE
  8
0
 10
43.6125
 20
84.4259
 11
43.326
 21
84.2984
  0
LINE
  8
0
 10
43.326
 20
84.2984
 11
43.0193
 21
84.2332
  0
LINE
  8
0
 10
43.0193
 20
84.2332
 11
42.7057
 21
84.2332
  0
LINE
  8
0
 10
271.306
 20
84.2332
 11
270.999
 21
84.2984
  0
LINE
  8
0
 10
270.999
 20
84.2984
 11
270.712
 21
84.4259
  0
LINE
  8
0
 10
270.712
 20
84.4259
 11
270.459
 21
84.6103
  0
LINE
  8
0
 10
270.459
 20
84.6103
 11
270.249
 21
84.8433
  0
LINE
  8
0
 10
270.249
 20
84.8433
 11
270.092
 21
85.1149
  0
LINE
  8
0
 10
270.092
 20
85.1149
 11
269.995
 21
85.4131
  0
LINE
  8
0
 10
269.995
 20
85.4131
 11
269.962
 21
85.725
  0
LINE
  8
0
 10
269.962
 20
85.725
 11
269.995
 21
86.0368
  0
LINE
  8
0
 10
269.995
 20
86.0368
 11
270.092
 21
86.3351
  0
LINE
  8
0
 10
270.092
 20
86.3351
 11
270.249
 21
86.6066
  0
LINE
  8
0
 10
270.249
 20
86.6066
 11
270.459
 21
86.8397
  0
LINE
  8
0
 10
270.459
 20
86.8397
 11
270.712
 21
87.024
  0
LINE
  8
0
 10
270.712
 20
87.024
 11
270.999
 21
87.1516
  0
LINE
  8
0
 10
270.999
 20
87.1516
 11
271.306
 21
87.2168
  0
LINE
  8
0
 10
271.306
 20
87.2168
 11
271.619
 21
87.2168
  0
LINE
  8
0
 10
271.619
 20
87.2168
 11
271.926
 21
87.1516
  0
LINE
  8
0
 10
271.926
 20
87.1516
 11
272.212
 21
87.024
  0
LINE
  8
0
 10
272.212
 20
87.024
 11
272.466
 21
86.8397
  0
LINE
  8
0
 10
272.466
 20
86.8397
 11
272.676
 21
86.6066
  0
LINE
  8
0
 10
272.676
 20
86.6066
 11
272.833
 21
86.3351
  0
LINE
  8
0
 10
272.833
 20
86.3351
 11
272.93
 21
86.0368
  0
LINE
  8
0
 10
272.93
 20
86.0368
 11
272.962
 21
85.725
  0
LINE
  8
0
 10
272.962
 20
85.725
 11
272.93
 21
85.4131
  0
LINE
  8
0
 10
272.93
 20
85.4131
 11
272.833
 21
85.1149
  0
LINE
  8
0
 10
272.833
 20
85.1149
 11
272.676
 21
84.8433
  0
LINE
  8
0
 10
272.676
 20
84.8433
 11
272.466
 21
84.6103
  0
LINE
  8
0
 10
272.466
 20
84.6103
 11
272.212
 21
84.4259
  0
LINE
  8
0
 10
272.212
 20
84.4259
 11
271.926
 21
84.2984
  0
LINE
  8
0
 10
271.926
 20
84.2984
 11
271.619
 21
84.2332
  0
LINE
  8
0
 10
271.619
 20
84.2332
 11
271.306
 21
84.2332
  0
LINE
  8
0
 10
252.256
 20
84.2332
 11
251.949
 21
84.2984
  0
LINE
  8
0
 10
251.949
 20
84.2984
 11
251.662
 21
84.4259
  0
LINE
  8
0
 10
251.662
 20
84.4259
 11
251.409
 21
84.6103
  0
LINE
  8
0
 10
251.409
 20
84.6103
 11
251.199
 21
84.8433
  0
LINE
  8
0
 10
251.199
 20
84.8433
 11
251.042
 21
85.1149
  0
LINE
  8
0
 10
251.042
 20
85.1149
 11
250.945
 21
85.4131
  0
LINE
  8
0
 10
250.945
 20
85.4131
 11
250.912
 21
85.725
  0
LINE
  8
0
 10
250.912
 20
85.725
 11
250.945
 21
86.0368
  0
LINE
  8
0
 10
250.945
 20
86.0368
 11
251.042
 21
86.3351
  0
LINE
  8
0
 10
251.042
 20
86.3351
 11
251.199
 21
86.6066
  0
LINE
  8
0
 10
251.199
 20
86.6066
 11
251.409
 21
86.8397
  0
LINE
  8
0
 10
251.409
 20
86.8397
 11
251.662
 21
87.024
  0
LINE
  8
0
 10
251.662
 20
87.024
 11
251.949
 21
87.1516
  0
LINE
  8
0
 10
251.949
 20
87.1516
 11
252.256
 21
87.2168
  0
LINE
  8
0
 10
252.256
 20
87.2168
 11
252.569
 21
87.2168
  0
LINE
  8
0
 10
252.569
 20
87.2168
 11
252.876
 21
87.1516
  0
LINE
  8
0
 10
252.876
 20
87.1516
 11
253.162
 21
87.024
  0
LINE
  8
0
 10
253.162
 20
87.024
 11
253.416
 21
86.8397
  0
LINE
  8
0
 10
253.416
 20
86.8397
 11
253.626
 21
86.6066
  0
LINE
  8
0
 10
253.626
 20
86.6066
 11
253.783
 21
86.3351
  0
LINE
  8
0
 10
253.783
 20
86.3351
 11
253.88
 21
86.0368
  0
LINE
  8
0
 10
253.88
 20
86.0368
 11
253.912
 21
85.725
  0
LINE
  8
0
 10
253.912
 20
85.725
 11
253.88
 21
85.4131
  0
LINE
  8
0
 10
253.88
 20
85.4131
 11
253.783
 21
85.1149
  0
LINE
  8
0
 10
253.783
 20
85.1149
 11
253.626
 21
84.8433
  0
LINE
  8
0
 10
253.626
 20
84.8433
 11
253.416
 21
84.6103
  0
LINE
  8
0
 10
253.416
 20
84.6103
 11
253.162
 21
84.4259
  0
LINE
  8
0
 10
253.162
 20
84.4259
 11
252.876
 21
84.2984
  0
LINE
  8
0
 10
252.876
 20
84.2984
 11
252.569
 21
84.2332
  0
LINE
  8
0
 10
252.569
 20
84.2332
 11
252.256
 21
84.2332
  0
LINE
  8
0
 10
233.206
 20
84.2332
 11
232.899
 21
84.2984
  0
LINE
  8
0
 10
232.899
 20
84.2984
 11
232.612
 21
84.4259
  0
LINE
  8
0
 10
232.612
 20
84.4259
 11
232.359
 21
84.6103
  0
LINE
  8
0
 10
232.359
 20
84.6103
 11
232.149
 21
84.8433
  0
LINE
  8
0
 10
232.149
 20
84.8433
 11
231.992
 21
85.1149
  0
LINE
  8
0
 10
231.992
 20
85.1149
 11
231.895
 21
85.4131
  0
LINE
  8
0
 10
231.895
 20
85.4131
 11
231.862
 21
85.725
  0
LINE
  8
0
 10
231.862
 20
85.725
 11
231.895
 21
86.0368
  0
LINE
  8
0
 10
231.895
 20
86.0368
 11
231.992
 21
86.3351
  0
LINE
  8
0
 10
231.992
 20
86.3351
 11
232.149
 21
86.6066
  0
LINE
  8
0
 10
232.149
 20
86.6066
 11
232.359
 21
86.8397
  0
LINE
  8
0
 10
232.359
 20
86.8397
 11
232.612
 21
87.024
  0
LINE
  8
0
 10
232.612
 20
87.024
 11
232.899
 21
87.1516
  0
LINE
  8
0
 10
232.899
 20
87.1516
 11
233.206
 21
87.2168
  0
LINE
  8
0
 10
233.206
 20
87.2168
 11
233.519
 21
87.2168
  0
LINE
  8
0
 10
233.519
 20
87.2168
 11
233.826
 21
87.1516
  0
LINE
  8
0
 10
233.826
 20
87.1516
 11
234.112
 21
87.024
  0
LINE
  8
0
 10
234.112
 20
87.024
 11
234.366
 21
86.8397
  0
LINE
  8
0
 10
234.366
 20
86.8397
 11
234.576
 21
86.6066
  0
LINE
  8
0
 10
234.576
 20
86.6066
 11
234.733
 21
86.3351
  0
LINE
  8
0
 10
234.733
 20
86.3351
 11
234.83
 21
86.0368
  0
LINE
  8
0
 10
234.83
 20
86.0368
 11
234.862
 21
85.725
  0
LINE
  8
0
 10
234.862
 20
85.725
 11
234.83
 21
85.4131
  0
LINE
  8
0
 10
234.83
 20
85.4131
 11
234.733
 21
85.1149
  0
LINE
  8
0
 10
234.733
 20
85.1149
 11
234.576
 21
84.8433
  0
LINE
  8
0
 10
234.576
 20
84.8433
 11
234.366
 21
84.6103
  0
LINE
  8
0
 10
234.366
 20
84.6103
 11
234.112
 21
84.4259
  0
LINE
  8
0
 10
234.112
 20
84.4259
 11
233.826
 21
84.2984
  0
LINE
  8
0
 10
233.826
 20
84.2984
 11
233.519
 21
84.2332
  0
LINE
  8
0
 10
233.519
 20
84.2332
 11
233.206
 21
84.2332
  0
LINE
  8
0
 10
235.887
 20
69.2
 11
235.887
 21
83.2
  0
LINE
  8
0
 10
235.887
 20
83.2
 11
249.887
 21
83.2
  0
LINE
  8
0
 10
249.887
 20
83.2
 11
249.887
 21
69.2
  0
LINE
  8
0
 10
249.887
 20
69.2
 11
235.887
 21
69.2
  0
LINE
  8
0
 10
216.837
 20
69.2
 11
216.837
 21
83.2
  0
LINE
  8
0
 10
216.837
 20
83.2
 11
230.837
 21
83.2
  0
LINE
  8
0
 10
230.837
 20
83.2
 11
230.837
 21
69.2
  0
LINE
  8
0
 10
230.837
 20
69.2
 11
216.837
 21
69.2
  0
LINE
  8
0
 10
197.787
 20
69.2
 11
197.787
 21
83.2
  0
LINE
  8
0
 10
197.787
 20
83.2
 11
211.787
 21
83.2
  0
LINE
  8
0
 10
211.787
 20
83.2
 11
211.787
 21
69.2
  0
LINE
  8
0
 10
211.787
 20
69.2
 11
197.787
 21
69.2
  0
LINE
  8
0
 10
178.737
 20
69.2
 11
178.737
 21
83.2
  0
LINE
  8
0
 10
178.737
 20
83.2
 11
192.737
 21
83.2
  0
LINE
  8
0
 10
192.737
 20
83.2
 11
192.737
 21
69.2
  0
LINE
  8
0
 10
192.737
 20
69.2
 11
178.737
 21
69.2
  0
LINE
  8
0
 10
140.637
 20
69.2
 11
140.637
 21
83.2
  0
LINE
  8
0
 10
140.637
 20
83.2
 11
154.637
 21
83.2
  0
LINE
  8
0
 10
154.637
 20
83.2
 11
154.637
 21
69.2
  0
LINE
  8
0
 10
154.637
 20
69.2
 11
140.637
 21
69.2
  0
LINE
  8
0
 10
121.587
 20
69.2
 11
121.587
 21
83.2
  0
LINE
  8
0
 10
121.587
 20
83.2
 11
135.587
 21
83.2
  0
LINE
  8
0
 10
135.587
 20
83.2
 11
135.587
 21
69.2
  0
LINE
  8
0
 10
135.587
 20
69.2
 11
121.587
 21
69.2
  0
LINE
  8
0
 10
102.537
 20
69.2
 11
102.537
 21
83.2
  0
LINE
  8
0
 10
102.537
 20
83.2
 11
116.537
 21
83.2
  0
LINE
  8
0
 10
116.537
 20
83.2
 11
116.537
 21
69.2
  0
LINE
  8
0
 10
116.537
 20
69.2
 11
102.537
 21
69.2
  0
LINE
  8
0
 10
83.4875
 20
69.2
 11
83.4875
 21
83.2
  0
LINE
  8
0
 10
83.4875
 20
83.2
 11
97.4875
 21
83.2
  0
LINE
  8
0
 10
97.4875
 20
83.2
 11
97.4875
 21
69.2
  0
LINE
  8
0
 10
97.4875
 20
69.2
 11
83.4875
 21
69.2
  0
LINE
  8
0
 10
64.4375
 20
69.2
 11
64.4375
 21
83.2
  0
LINE
  8
0
 10
64.4375
 20
83.2
 11
78.4375
 21
83.2
  0
LINE
  8
0
 10
78.4375
 20
83.2
 11
78.4375
 21
69.2
  0
LINE
  8
0
 10
78.4375
 20
69.2
 11
64.4375
 21
69.2
  0
LINE
  8
0
 10
19.1937
 20
69.2
 11
19.1937
 21
83.2
  0
LINE
  8
0
 10
19.1937
 20
83.2
 11
33.1937
 21
83.2
  0
LINE
  8
0
 10
33.1937
 20
83.2
 11
33.1937
 21
69.2
  0
LINE
  8
0
 10
33.1937
 20
69.2
 11
19.1937
 21
69.2
  0
LINE
  8
0
 10
45.3875
 20
69.2
 11
45.3875
 21
83.2
  0
LINE
  8
0
 10
45.3875
 20
83.2
 11
59.3875
 21
83.2
  0
LINE
  8
0
 10
59.3875
 20
83.2
 11
59.3875
 21
69.2
  0
LINE
  8
0
 10
59.3875
 20
69.2
 11
45.3875
 21
69.2
  0
LINE
  8
0
 10
254.937
 20
69.2
 11
254.937
 21
83.2
  0
LINE
  8
0
 10
254.937
 20
83.2
 11
268.937
 21
83.2
  0
LINE
  8
0
 10
268.937
 20
83.2
 11
268.937
 21
69.2
  0
LINE
  8
0
 10
268.937
 20
69.2
 11
254.937
 21
69.2
  0
LINE
  8
0
 10
159.687
 20
69.2
 11
159.687
 21
83.2
  0
LINE
  8
0
 10
159.687
 20
83.2
 11
173.687
 21
83.2
  0
LINE
  8
0
 10
173.687
 20
83.2
 11
173.687
 21
69.2
  0
LINE
  8
0
 10
173.687
 20
69.2
 11
159.687
 21
69.2
  0
LINE
  8
0
 10
278.75
 20
69.2
 11
278.75
 21
83.2
  0
LINE
  8
0
 10
278.75
 20
83.2
 11
292.75
 21
83.2
  0
LINE
  8
0
 10
292.75
 20
83.2
 11
292.75
 21
69.2
  0
LINE
  8
0
 10
292.75
 20
69.2
 11
278.75
 21
69.2
  0
LINE
  8
0
 10
323.693
 20
77.0894
 11
323.386
 21
77.1546
  0
LINE
  8
0
 10
323.386
 20
77.1546
 11
323.1
 21
77.2822
  0
LINE
  8
0
 10
323.1
 20
77.2822
 11
322.846
 21
77.4665
  0
LINE
  8
0
 10
322.846
 20
77.4665
 11
322.636
 21
77.6995
  0
LINE
  8
0
 10
322.636
 20
77.6995
 11
322.48
 21
77.9711
  0
LINE
  8
0
 10
322.48
 20
77.9711
 11
322.383
 21
78.2693
  0
LINE
  8
0
 10
322.383
 20
78.2693
 11
322.35
 21
78.5812
  0
LINE
  8
0
 10
322.35
 20
78.5812
 11
322.383
 21
78.8931
  0
LINE
  8
0
 10
322.383
 20
78.8931
 11
322.48
 21
79.1913
  0
LINE
  8
0
 10
322.48
 20
79.1913
 11
322.636
 21
79.4629
  0
LINE
  8
0
 10
322.636
 20
79.4629
 11
322.846
 21
79.6959
  0
LINE
  8
0
 10
322.846
 20
79.6959
 11
323.1
 21
79.8803
  0
LINE
  8
0
 10
323.1
 20
79.8803
 11
323.386
 21
80.0078
  0
LINE
  8
0
 10
323.386
 20
80.0078
 11
323.693
 21
80.073
  0
LINE
  8
0
 10
323.693
 20
80.073
 11
324.007
 21
80.073
  0
LINE
  8
0
 10
324.007
 20
80.073
 11
324.313
 21
80.0078
  0
LINE
  8
0
 10
324.313
 20
80.0078
 11
324.6
 21
79.8803
  0
LINE
  8
0
 10
324.6
 20
79.8803
 11
324.854
 21
79.6959
  0
LINE
  8
0
 10
324.854
 20
79.6959
 11
325.063
 21
79.4629
  0
LINE
  8
0
 10
325.063
 20
79.4629
 11
325.22
 21
79.1913
  0
LINE
  8
0
 10
325.22
 20
79.1913
 11
325.317
 21
78.8931
  0
LINE
  8
0
 10
325.317
 20
78.8931
 11
325.35
 21
78.5812
  0
LINE
  8
0
 10
325.35
 20
78.5812
 11
325.317
 21
78.2693
  0
LINE
  8
0
 10
325.317
 20
78.2693
 11
325.22
 21
77.9711
  0
LINE
  8
0
 10
325.22
 20
77.9711
 11
325.063
 21
77.6995
  0
LINE
  8
0
 10
325.063
 20
77.6995
 11
324.854
 21
77.4665
  0
LINE
  8
0
 10
324.854
 20
77.4665
 11
324.6
 21
77.2822
  0
LINE
  8
0
 10
324.6
 20
77.2822
 11
324.313
 21
77.1546
  0
LINE
  8
0
 10
324.313
 20
77.1546
 11
324.007
 21
77.0894
  0
LINE
  8
0
 10
324.007
 20
77.0894
 11
323.693
 21
77.0894
  0
LINE
  8
0
 10
328.756
 20
62.0562
 11
328.756
 21
76.0562
  0
LINE
  8
0
 10
328.756
 20
76.0562
 11
342.756
 21
76.0562
  0
LINE
  8
0
 10
342.756
 20
76.0562
 11
342.756
 21
62.0562
  0
LINE
  8
0
 10
342.756
 20
62.0562
 11
328.756
 21
62.0562
  0
LINE
  8
0
 10
47.4682
 20
65.1832
 11
47.1614
 21
65.2484
  0
LINE
  8
0
 10
47.1614
 20
65.2484
 11
46.875
 21
65.3759
  0
LINE
  8
0
 10
46.875
 20
65.3759
 11
46.6213
 21
65.5603
  0
LINE
  8
0
 10
46.6213
 20
65.5603
 11
46.4114
 21
65.7933
  0
LINE
  8
0
 10
46.4114
 20
65.7933
 11
46.2546
 21
66.0649
  0
LINE
  8
0
 10
46.2546
 20
66.0649
 11
46.1577
 21
66.3631
  0
LINE
  8
0
 10
46.1577
 20
66.3631
 11
46.125
 21
66.675
  0
LINE
  8
0
 10
46.125
 20
66.675
 11
46.1577
 21
66.9868
  0
LINE
  8
0
 10
46.1577
 20
66.9868
 11
46.2546
 21
67.2851
  0
LINE
  8
0
 10
46.2546
 20
67.2851
 11
46.4114
 21
67.5567
  0
LINE
  8
0
 10
46.4114
 20
67.5567
 11
46.6213
 21
67.7897
  0
LINE
  8
0
 10
46.6213
 20
67.7897
 11
46.875
 21
67.974
  0
LINE
  8
0
 10
46.875
 20
67.974
 11
47.1614
 21
68.1016
  0
LINE
  8
0
 10
47.1614
 20
68.1016
 11
47.4682
 21
68.1667
  0
LINE
  8
0
 10
47.4682
 20
68.1667
 11
47.7818
 21
68.1667
  0
LINE
  8
0
 10
47.7818
 20
68.1667
 11
48.0885
 21
68.1016
  0
LINE
  8
0
 10
48.0885
 20
68.1016
 11
48.375
 21
67.974
  0
LINE
  8
0
 10
48.375
 20
67.974
 11
48.6287
 21
67.7897
  0
LINE
  8
0
 10
48.6287
 20
67.7897
 11
48.8385
 21
67.5567
  0
LINE
  8
0
 10
48.8385
 20
67.5567
 11
48.9953
 21
67.2851
  0
LINE
  8
0
 10
48.9953
 20
67.2851
 11
49.0922
 21
66.9868
  0
LINE
  8
0
 10
49.0922
 20
66.9868
 11
49.125
 21
66.675
  0
LINE
  8
0
 10
49.125
 20
66.675
 11
49.0922
 21
66.3631
  0
LINE
  8
0
 10
49.0922
 20
66.3631
 11
48.9953
 21
66.0649
  0
LINE
  8
0
 10
48.9953
 20
66.0649
 11
48.8385
 21
65.7933
  0
LINE
  8
0
 10
48.8385
 20
65.7933
 11
48.6287
 21
65.5603
  0
LINE
  8
0
 10
48.6287
 20
65.5603
 11
48.375
 21
65.3759
  0
LINE
  8
0
 10
48.375
 20
65.3759
 11
48.0885
 21
65.2484
  0
LINE
  8
0
 10
48.0885
 20
65.2484
 11
47.7818
 21
65.1832
  0
LINE
  8
0
 10
47.7818
 20
65.1832
 11
47.4682
 21
65.1832
  0
LINE
  8
0
 10
276.068
 20
65.1832
 11
275.761
 21
65.2484
  0
LINE
  8
0
 10
275.761
 20
65.2484
 11
275.475
 21
65.3759
  0
LINE
  8
0
 10
275.475
 20
65.3759
 11
275.221
 21
65.5603
  0
LINE
  8
0
 10
275.221
 20
65.5603
 11
275.011
 21
65.7933
  0
LINE
  8
0
 10
275.011
 20
65.7933
 11
274.855
 21
66.0649
  0
LINE
  8
0
 10
274.855
 20
66.0649
 11
274.758
 21
66.3631
  0
LINE
  8
0
 10
274.758
 20
66.3631
 11
274.725
 21
66.675
  0
LINE
  8
0
 10
274.725
 20
66.675
 11
274.758
 21
66.9868
  0
LINE
  8
0
 10
274.758
 20
66.9868
 11
274.855
 21
67.2851
  0
LINE
  8
0
 10
274.855
 20
67.2851
 11
275.011
 21
67.5567
  0
LINE
  8
0
 10
275.011
 20
67.5567
 11
275.221
 21
67.7897
  0
LINE
  8
0
 10
275.221
 20
67.7897
 11
275.475
 21
67.974
  0
LINE
  8
0
 10
275.475
 20
67.974
 11
275.761
 21
68.1016
  0
LINE
  8
0
 10
275.761
 20
68.1016
 11
276.068
 21
68.1667
  0
LINE
  8
0
 10
276.068
 20
68.1667
 11
276.382
 21
68.1667
  0
LINE
  8
0
 10
276.382
 20
68.1667
 11
276.688
 21
68.1016
  0
LINE
  8
0
 10
276.688
 20
68.1016
 11
276.975
 21
67.974
  0
LINE
  8
0
 10
276.975
 20
67.974
 11
277.229
 21
67.7897
  0
LINE
  8
0
 10
277.229
 20
67.7897
 11
277.438
 21
67.5567
  0
LINE
  8
0
 10
277.438
 20
67.5567
 11
277.595
 21
67.2851
  0
LINE
  8
0
 10
277.595
 20
67.2851
 11
277.692
 21
66.9868
  0
LINE
  8
0
 10
277.692
 20
66.9868
 11
277.725
 21
66.675
  0
LINE
  8
0
 10
277.725
 20
66.675
 11
277.692
 21
66.3631
  0
LINE
  8
0
 10
277.692
 20
66.3631
 11
277.595
 21
66.0649
  0
LINE
  8
0
 10
277.595
 20
66.0649
 11
277.438
 21
65.7933
  0
LINE
  8
0
 10
277.438
 20
65.7933
 11
277.229
 21
65.5603
  0
LINE
  8
0
 10
277.229
 20
65.5603
 11
276.975
 21
65.3759
  0
LINE
  8
0
 10
276.975
 20
65.3759
 11
276.688
 21
65.2484
  0
LINE
  8
0
 10
276.688
 20
65.2484
 11
276.382
 21
65.1832
  0
LINE
  8
0
 10
276.382
 20
65.1832
 11
276.068
 21
65.1832
  0
LINE
  8
0
 10
257.018
 20
65.1832
 11
256.711
 21
65.2484
  0
LINE
  8
0
 10
256.711
 20
65.2484
 11
256.425
 21
65.3759
  0
LINE
  8
0
 10
256.425
 20
65.3759
 11
256.171
 21
65.5603
  0
LINE
  8
0
 10
256.171
 20
65.5603
 11
255.961
 21
65.7933
  0
LINE
  8
0
 10
255.961
 20
65.7933
 11
255.805
 21
66.0649
  0
LINE
  8
0
 10
255.805
 20
66.0649
 11
255.708
 21
66.3631
  0
LINE
  8
0
 10
255.708
 20
66.3631
 11
255.675
 21
66.675
  0
LINE
  8
0
 10
255.675
 20
66.675
 11
255.708
 21
66.9868
  0
LINE
  8
0
 10
255.708
 20
66.9868
 11
255.805
 21
67.2851
  0
LINE
  8
0
 10
255.805
 20
67.2851
 11
255.961
 21
67.5567
  0
LINE
  8
0
 10
255.961
 20
67.5567
 11
256.171
 21
67.7897
  0
LINE
  8
0
 10
256.171
 20
67.7897
 11
256.425
 21
67.974
  0
LINE
  8
0
 10
256.425
 20
67.974
 11
256.711
 21
68.1016
  0
LINE
  8
0
 10
256.711
 20
68.1016
 11
257.018
 21
68.1667
  0
LINE
  8
0
 10
257.018
 20
68.1667
 11
257.332
 21
68.1667
  0
LINE
  8
0
 10
257.332
 20
68.1667
 11
257.638
 21
68.1016
  0
LINE
  8
0
 10
257.638
 20
68.1016
 11
257.925
 21
67.974
  0
LINE
  8
0
 10
257.925
 20
67.974
 11
258.179
 21
67.7897
  0
LINE
  8
0
 10
258.179
 20
67.7897
 11
258.388
 21
67.5567
  0
LINE
  8
0
 10
258.388
 20
67.5567
 11
258.545
 21
67.2851
  0
LINE
  8
0
 10
258.545
 20
67.2851
 11
258.642
 21
66.9868
  0
LINE
  8
0
 10
258.642
 20
66.9868
 11
258.675
 21
66.675
  0
LINE
  8
0
 10
258.675
 20
66.675
 11
258.642
 21
66.3631
  0
LINE
  8
0
 10
258.642
 20
66.3631
 11
258.545
 21
66.0649
  0
LINE
  8
0
 10
258.545
 20
66.0649
 11
258.388
 21
65.7933
  0
LINE
  8
0
 10
258.388
 20
65.7933
 11
258.179
 21
65.5603
  0
LINE
  8
0
 10
258.179
 20
65.5603
 11
257.925
 21
65.3759
  0
LINE
  8
0
 10
257.925
 20
65.3759
 11
257.638
 21
65.2484
  0
LINE
  8
0
 10
257.638
 20
65.2484
 11
257.332
 21
65.1832
  0
LINE
  8
0
 10
257.332
 20
65.1832
 11
257.018
 21
65.1832
  0
LINE
  8
0
 10
237.968
 20
65.1832
 11
237.661
 21
65.2484
  0
LINE
  8
0
 10
237.661
 20
65.2484
 11
237.375
 21
65.3759
  0
LINE
  8
0
 10
237.375
 20
65.3759
 11
237.121
 21
65.5603
  0
LINE
  8
0
 10
237.121
 20
65.5603
 11
236.911
 21
65.7933
  0
LINE
  8
0
 10
236.911
 20
65.7933
 11
236.755
 21
66.0649
  0
LINE
  8
0
 10
236.755
 20
66.0649
 11
236.658
 21
66.3631
  0
LINE
  8
0
 10
236.658
 20
66.3631
 11
236.625
 21
66.675
  0
LINE
  8
0
 10
236.625
 20
66.675
 11
236.658
 21
66.9868
  0
LINE
  8
0
 10
236.658
 20
66.9868
 11
236.755
 21
67.2851
  0
LINE
  8
0
 10
236.755
 20
67.2851
 11
236.911
 21
67.5567
  0
LINE
  8
0
 10
236.911
 20
67.5567
 11
237.121
 21
67.7897
  0
LINE
  8
0
 10
237.121
 20
67.7897
 11
237.375
 21
67.974
  0
LINE
  8
0
 10
237.375
 20
67.974
 11
237.661
 21
68.1016
  0
LINE
  8
0
 10
237.661
 20
68.1016
 11
237.968
 21
68.1667
  0
LINE
  8
0
 10
237.968
 20
68.1667
 11
238.282
 21
68.1667
  0
LINE
  8
0
 10
238.282
 20
68.1667
 11
238.588
 21
68.1016
  0
LINE
  8
0
 10
238.588
 20
68.1016
 11
238.875
 21
67.974
  0
LINE
  8
0
 10
238.875
 20
67.974
 11
239.129
 21
67.7897
  0
LINE
  8
0
 10
239.129
 20
67.7897
 11
239.338
 21
67.5567
  0
LINE
  8
0
 10
239.338
 20
67.5567
 11
239.495
 21
67.2851
  0
LINE
  8
0
 10
239.495
 20
67.2851
 11
239.592
 21
66.9868
  0
LINE
  8
0
 10
239.592
 20
66.9868
 11
239.625
 21
66.675
  0
LINE
  8
0
 10
239.625
 20
66.675
 11
239.592
 21
66.3631
  0
LINE
  8
0
 10
239.592
 20
66.3631
 11
239.495
 21
66.0649
  0
LINE
  8
0
 10
239.495
 20
66.0649
 11
239.338
 21
65.7933
  0
LINE
  8
0
 10
239.338
 20
65.7933
 11
239.129
 21
65.5603
  0
LINE
  8
0
 10
239.129
 20
65.5603
 11
238.875
 21
65.3759
  0
LINE
  8
0
 10
238.875
 20
65.3759
 11
238.588
 21
65.2484
  0
LINE
  8
0
 10
238.588
 20
65.2484
 11
238.282
 21
65.1832
  0
LINE
  8
0
 10
238.282
 20
65.1832
 11
237.968
 21
65.1832
  0
LINE
  8
0
 10
218.918
 20
65.1832
 11
218.611
 21
65.2484
  0
LINE
  8
0
 10
218.611
 20
65.2484
 11
218.325
 21
65.3759
  0
LINE
  8
0
 10
218.325
 20
65.3759
 11
218.071
 21
65.5603
  0
LINE
  8
0
 10
218.071
 20
65.5603
 11
217.861
 21
65.7933
  0
LINE
  8
0
 10
217.861
 20
65.7933
 11
217.705
 21
66.0649
  0
LINE
  8
0
 10
217.705
 20
66.0649
 11
217.608
 21
66.3631
  0
LINE
  8
0
 10
217.608
 20
66.3631
 11
217.575
 21
66.675
  0
LINE
  8
0
 10
217.575
 20
66.675
 11
217.608
 21
66.9868
  0
LINE
  8
0
 10
217.608
 20
66.9868
 11
217.705
 21
67.2851
  0
LINE
  8
0
 10
217.705
 20
67.2851
 11
217.861
 21
67.5567
  0
LINE
  8
0
 10
217.861
 20
67.5567
 11
218.071
 21
67.7897
  0
LINE
  8
0
 10
218.071
 20
67.7897
 11
218.325
 21
67.974
  0
LINE
  8
0
 10
218.325
 20
67.974
 11
218.611
 21
68.1016
  0
LINE
  8
0
 10
218.611
 20
68.1016
 11
218.918
 21
68.1667
  0
LINE
  8
0
 10
218.918
 20
68.1667
 11
219.232
 21
68.1667
  0
LINE
  8
0
 10
219.232
 20
68.1667
 11
219.538
 21
68.1016
  0
LINE
  8
0
 10
219.538
 20
68.1016
 11
219.825
 21
67.974
  0
LINE
  8
0
 10
219.825
 20
67.974
 11
220.079
 21
67.7897
  0
LINE
  8
0
 10
220.079
 20
67.7897
 11
220.288
 21
67.5567
  0
LINE
  8
0
 10
220.288
 20
67.5567
 11
220.445
 21
67.2851
  0
LINE
  8
0
 10
220.445
 20
67.2851
 11
220.542
 21
66.9868
  0
LINE
  8
0
 10
220.542
 20
66.9868
 11
220.575
 21
66.675
  0
LINE
  8
0
 10
220.575
 20
66.675
 11
220.542
 21
66.3631
  0
LINE
  8
0
 10
220.542
 20
66.3631
 11
220.445
 21
66.0649
  0
LINE
  8
0
 10
220.445
 20
66.0649
 11
220.288
 21
65.7933
  0
LINE
  8
0
 10
220.288
 20
65.7933
 11
220.079
 21
65.5603
  0
LINE
  8
0
 10
220.079
 20
65.5603
 11
219.825
 21
65.3759
  0
LINE
  8
0
 10
219.825
 20
65.3759
 11
219.538
 21
65.2484
  0
LINE
  8
0
 10
219.538
 20
65.2484
 11
219.232
 21
65.1832
  0
LINE
  8
0
 10
219.232
 20
65.1832
 11
218.918
 21
65.1832
  0
LINE
  8
0
 10
199.868
 20
65.1832
 11
199.561
 21
65.2484
  0
LINE
  8
0
 10
199.561
 20
65.2484
 11
199.275
 21
65.3759
  0
LINE
  8
0
 10
199.275
 20
65.3759
 11
199.021
 21
65.5603
  0
LINE
  8
0
 10
199.021
 20
65.5603
 11
198.811
 21
65.7933
  0
LINE
  8
0
 10
198.811
 20
65.7933
 11
198.655
 21
66.0649
  0
LINE
  8
0
 10
198.655
 20
66.0649
 11
198.558
 21
66.3631
  0
LINE
  8
0
 10
198.558
 20
66.3631
 11
198.525
 21
66.675
  0
LINE
  8
0
 10
198.525
 20
66.675
 11
198.558
 21
66.9868
  0
LINE
  8
0
 10
198.558
 20
66.9868
 11
198.655
 21
67.2851
  0
LINE
  8
0
 10
198.655
 20
67.2851
 11
198.811
 21
67.5567
  0
LINE
  8
0
 10
198.811
 20
67.5567
 11
199.021
 21
67.7897
  0
LINE
  8
0
 10
199.021
 20
67.7897
 11
199.275
 21
67.974
  0
LINE
  8
0
 10
199.275
 20
67.974
 11
199.561
 21
68.1016
  0
LINE
  8
0
 10
199.561
 20
68.1016
 11
199.868
 21
68.1667
  0
LINE
  8
0
 10
199.868
 20
68.1667
 11
200.182
 21
68.1667
  0
LINE
  8
0
 10
200.182
 20
68.1667
 11
200.488
 21
68.1016
  0
LINE
  8
0
 10
200.488
 20
68.1016
 11
200.775
 21
67.974
  0
LINE
  8
0
 10
200.775
 20
67.974
 11
201.029
 21
67.7897
  0
LINE
  8
0
 10
201.029
 20
67.7897
 11
201.238
 21
67.5567
  0
LINE
  8
0
 10
201.238
 20
67.5567
 11
201.395
 21
67.2851
  0
LINE
  8
0
 10
201.395
 20
67.2851
 11
201.492
 21
66.9868
  0
LINE
  8
0
 10
201.492
 20
66.9868
 11
201.525
 21
66.675
  0
LINE
  8
0
 10
201.525
 20
66.675
 11
201.492
 21
66.3631
  0
LINE
  8
0
 10
201.492
 20
66.3631
 11
201.395
 21
66.0649
  0
LINE
  8
0
 10
201.395
 20
66.0649
 11
201.238
 21
65.7933
  0
LINE
  8
0
 10
201.238
 20
65.7933
 11
201.029
 21
65.5603
  0
LINE
  8
0
 10
201.029
 20
65.5603
 11
200.775
 21
65.3759
  0
LINE
  8
0
 10
200.775
 20
65.3759
 11
200.488
 21
65.2484
  0
LINE
  8
0
 10
200.488
 20
65.2484
 11
200.182
 21
65.1832
  0
LINE
  8
0
 10
200.182
 20
65.1832
 11
199.868
 21
65.1832
  0
LINE
  8
0
 10
142.718
 20
65.1832
 11
142.411
 21
65.2484
  0
LINE
  8
0
 10
142.411
 20
65.2484
 11
142.125
 21
65.3759
  0
LINE
  8
0
 10
142.125
 20
65.3759
 11
141.871
 21
65.5603
  0
LINE
  8
0
 10
141.871
 20
65.5603
 11
141.661
 21
65.7933
  0
LINE
  8
0
 10
141.661
 20
65.7933
 11
141.505
 21
66.0649
  0
LINE
  8
0
 10
141.505
 20
66.0649
 11
141.408
 21
66.3631
  0
LINE
  8
0
 10
141.408
 20
66.3631
 11
141.375
 21
66.675
  0
LINE
  8
0
 10
141.375
 20
66.675
 11
141.408
 21
66.9868
  0
LINE
  8
0
 10
141.408
 20
66.9868
 11
141.505
 21
67.2851
  0
LINE
  8
0
 10
141.505
 20
67.2851
 11
141.661
 21
67.5567
  0
LINE
  8
0
 10
141.661
 20
67.5567
 11
141.871
 21
67.7897
  0
LINE
  8
0
 10
141.871
 20
67.7897
 11
142.125
 21
67.974
  0
LINE
  8
0
 10
142.125
 20
67.974
 11
142.411
 21
68.1016
  0
LINE
  8
0
 10
142.411
 20
68.1016
 11
142.718
 21
68.1667
  0
LINE
  8
0
 10
142.718
 20
68.1667
 11
143.032
 21
68.1667
  0
LINE
  8
0
 10
143.032
 20
68.1667
 11
143.338
 21
68.1016
  0
LINE
  8
0
 10
143.338
 20
68.1016
 11
143.625
 21
67.974
  0
LINE
  8
0
 10
143.625
 20
67.974
 11
143.879
 21
67.7897
  0
LINE
  8
0
 10
143.879
 20
67.7897
 11
144.088
 21
67.5567
  0
LINE
  8
0
 10
144.088
 20
67.5567
 11
144.245
 21
67.2851
  0
LINE
  8
0
 10
144.245
 20
67.2851
 11
144.342
 21
66.9868
  0
LINE
  8
0
 10
144.342
 20
66.9868
 11
144.375
 21
66.675
  0
LINE
  8
0
 10
144.375
 20
66.675
 11
144.342
 21
66.3631
  0
LINE
  8
0
 10
144.342
 20
66.3631
 11
144.245
 21
66.0649
  0
LINE
  8
0
 10
144.245
 20
66.0649
 11
144.088
 21
65.7933
  0
LINE
  8
0
 10
144.088
 20
65.7933
 11
143.879
 21
65.5603
  0
LINE
  8
0
 10
143.879
 20
65.5603
 11
143.625
 21
65.3759
  0
LINE
  8
0
 10
143.625
 20
65.3759
 11
143.338
 21
65.2484
  0
LINE
  8
0
 10
143.338
 20
65.2484
 11
143.032
 21
65.1832
  0
LINE
  8
0
 10
143.032
 20
65.1832
 11
142.718
 21
65.1832
  0
LINE
  8
0
 10
123.668
 20
65.1832
 11
123.361
 21
65.2484
  0
LINE
  8
0
 10
123.361
 20
65.2484
 11
123.075
 21
65.3759
  0
LINE
  8
0
 10
123.075
 20
65.3759
 11
122.821
 21
65.5603
  0
LINE
  8
0
 10
122.821
 20
65.5603
 11
122.611
 21
65.7933
  0
LINE
  8
0
 10
122.611
 20
65.7933
 11
122.455
 21
66.0649
  0
LINE
  8
0
 10
122.455
 20
66.0649
 11
122.358
 21
66.3631
  0
LINE
  8
0
 10
122.358
 20
66.3631
 11
122.325
 21
66.675
  0
LINE
  8
0
 10
122.325
 20
66.675
 11
122.358
 21
66.9868
  0
LINE
  8
0
 10
122.358
 20
66.9868
 11
122.455
 21
67.2851
  0
LINE
  8
0
 10
122.455
 20
67.2851
 11
122.611
 21
67.5567
  0
LINE
  8
0
 10
122.611
 20
67.5567
 11
122.821
 21
67.7897
  0
LINE
  8
0
 10
122.821
 20
67.7897
 11
123.075
 21
67.974
  0
LINE
  8
0
 10
123.075
 20
67.974
 11
123.361
 21
68.1016
  0
LINE
  8
0
 10
123.361
 20
68.1016
 11
123.668
 21
68.1667
  0
LINE
  8
0
 10
123.668
 20
68.1667
 11
123.982
 21
68.1667
  0
LINE
  8
0
 10
123.982
 20
68.1667
 11
124.288
 21
68.1016
  0
LINE
  8
0
 10
124.288
 20
68.1016
 11
124.575
 21
67.974
  0
LINE
  8
0
 10
124.575
 20
67.974
 11
124.829
 21
67.7897
  0
LINE
  8
0
 10
124.829
 20
67.7897
 11
125.038
 21
67.5567
  0
LINE
  8
0
 10
125.038
 20
67.5567
 11
125.195
 21
67.2851
  0
LINE
  8
0
 10
125.195
 20
67.2851
 11
125.292
 21
66.9868
  0
LINE
  8
0
 10
125.292
 20
66.9868
 11
125.325
 21
66.675
  0
LINE
  8
0
 10
125.325
 20
66.675
 11
125.292
 21
66.3631
  0
LINE
  8
0
 10
125.292
 20
66.3631
 11
125.195
 21
66.0649
  0
LINE
  8
0
 10
125.195
 20
66.0649
 11
125.038
 21
65.7933
  0
LINE
  8
0
 10
125.038
 20
65.7933
 11
124.829
 21
65.5603
  0
LINE
  8
0
 10
124.829
 20
65.5603
 11
124.575
 21
65.3759
  0
LINE
  8
0
 10
124.575
 20
65.3759
 11
124.288
 21
65.2484
  0
LINE
  8
0
 10
124.288
 20
65.2484
 11
123.982
 21
65.1832
  0
LINE
  8
0
 10
123.982
 20
65.1832
 11
123.668
 21
65.1832
  0
LINE
  8
0
 10
104.618
 20
65.1832
 11
104.311
 21
65.2484
  0
LINE
  8
0
 10
104.311
 20
65.2484
 11
104.025
 21
65.3759
  0
LINE
  8
0
 10
104.025
 20
65.3759
 11
103.771
 21
65.5603
  0
LINE
  8
0
 10
103.771
 20
65.5603
 11
103.561
 21
65.7933
  0
LINE
  8
0
 10
103.561
 20
65.7933
 11
103.405
 21
66.0649
  0
LINE
  8
0
 10
103.405
 20
66.0649
 11
103.308
 21
66.3631
  0
LINE
  8
0
 10
103.308
 20
66.3631
 11
103.275
 21
66.675
  0
LINE
  8
0
 10
103.275
 20
66.675
 11
103.308
 21
66.9868
  0
LINE
  8
0
 10
103.308
 20
66.9868
 11
103.405
 21
67.2851
  0
LINE
  8
0
 10
103.405
 20
67.2851
 11
103.561
 21
67.5567
  0
LINE
  8
0
 10
103.561
 20
67.5567
 11
103.771
 21
67.7897
  0
LINE
  8
0
 10
103.771
 20
67.7897
 11
104.025
 21
67.974
  0
LINE
  8
0
 10
104.025
 20
67.974
 11
104.311
 21
68.1016
  0
LINE
  8
0
 10
104.311
 20
68.1016
 11
104.618
 21
68.1667
  0
LINE
  8
0
 10
104.618
 20
68.1667
 11
104.932
 21
68.1667
  0
LINE
  8
0
 10
104.932
 20
68.1667
 11
105.238
 21
68.1016
  0
LINE
  8
0
 10
105.238
 20
68.1016
 11
105.525
 21
67.974
  0
LINE
  8
0
 10
105.525
 20
67.974
 11
105.779
 21
67.7897
  0
LINE
  8
0
 10
105.779
 20
67.7897
 11
105.988
 21
67.5567
  0
LINE
  8
0
 10
105.988
 20
67.5567
 11
106.145
 21
67.2851
  0
LINE
  8
0
 10
106.145
 20
67.2851
 11
106.242
 21
66.9868
  0
LINE
  8
0
 10
106.242
 20
66.9868
 11
106.275
 21
66.675
  0
LINE
  8
0
 10
106.275
 20
66.675
 11
106.242
 21
66.3631
  0
LINE
  8
0
 10
106.242
 20
66.3631
 11
106.145
 21
66.0649
  0
LINE
  8
0
 10
106.145
 20
66.0649
 11
105.988
 21
65.7933
  0
LINE
  8
0
 10
105.988
 20
65.7933
 11
105.779
 21
65.5603
  0
LINE
  8
0
 10
105.779
 20
65.5603
 11
105.525
 21
65.3759
  0
LINE
  8
0
 10
105.525
 20
65.3759
 11
105.238
 21
65.2484
  0
LINE
  8
0
 10
105.238
 20
65.2484
 11
104.932
 21
65.1832
  0
LINE
  8
0
 10
104.932
 20
65.1832
 11
104.618
 21
65.1832
  0
LINE
  8
0
 10
85.5682
 20
65.1832
 11
85.2614
 21
65.2484
  0
LINE
  8
0
 10
85.2614
 20
65.2484
 11
84.975
 21
65.3759
  0
LINE
  8
0
 10
84.975
 20
65.3759
 11
84.7213
 21
65.5603
  0
LINE
  8
0
 10
84.7213
 20
65.5603
 11
84.5114
 21
65.7933
  0
LINE
  8
0
 10
84.5114
 20
65.7933
 11
84.3546
 21
66.0649
  0
LINE
  8
0
 10
84.3546
 20
66.0649
 11
84.2577
 21
66.3631
  0
LINE
  8
0
 10
84.2577
 20
66.3631
 11
84.225
 21
66.675
  0
LINE
  8
0
 10
84.225
 20
66.675
 11
84.2577
 21
66.9868
  0
LINE
  8
0
 10
84.2577
 20
66.9868
 11
84.3546
 21
67.2851
  0
LINE
  8
0
 10
84.3546
 20
67.2851
 11
84.5114
 21
67.5567
  0
LINE
  8
0
 10
84.5114
 20
67.5567
 11
84.7213
 21
67.7897
  0
LINE
  8
0
 10
84.7213
 20
67.7897
 11
84.975
 21
67.974
  0
LINE
  8
0
 10
84.975
 20
67.974
 11
85.2614
 21
68.1016
  0
LINE
  8
0
 10
85.2614
 20
68.1016
 11
85.5682
 21
68.1667
  0
LINE
  8
0
 10
85.5682
 20
68.1667
 11
85.8817
 21
68.1667
  0
LINE
  8
0
 10
85.8817
 20
68.1667
 11
86.1885
 21
68.1016
  0
LINE
  8
0
 10
86.1885
 20
68.1016
 11
86.475
 21
67.974
  0
LINE
  8
0
 10
86.475
 20
67.974
 11
86.7287
 21
67.7897
  0
LINE
  8
0
 10
86.7287
 20
67.7897
 11
86.9385
 21
67.5567
  0
LINE
  8
0
 10
86.9385
 20
67.5567
 11
87.0953
 21
67.2851
  0
LINE
  8
0
 10
87.0953
 20
67.2851
 11
87.1922
 21
66.9868
  0
LINE
  8
0
 10
87.1922
 20
66.9868
 11
87.225
 21
66.675
  0
LINE
  8
0
 10
87.225
 20
66.675
 11
87.1922
 21
66.3631
  0
LINE
  8
0
 10
87.1922
 20
66.3631
 11
87.0953
 21
66.0649
  0
LINE
  8
0
 10
87.0953
 20
66.0649
 11
86.9385
 21
65.7933
  0
LINE
  8
0
 10
86.9385
 20
65.7933
 11
86.7287
 21
65.5603
  0
LINE
  8
0
 10
86.7287
 20
65.5603
 11
86.475
 21
65.3759
  0
LINE
  8
0
 10
86.475
 20
65.3759
 11
86.1885
 21
65.2484
  0
LINE
  8
0
 10
86.1885
 20
65.2484
 11
85.8817
 21
65.1832
  0
LINE
  8
0
 10
85.8817
 20
65.1832
 11
85.5682
 21
65.1832
  0
LINE
  8
0
 10
9.36816
 20
65.1832
 11
9.06143
 21
65.2484
  0
LINE
  8
0
 10
9.06143
 20
65.2484
 11
8.77496
 21
65.3759
  0
LINE
  8
0
 10
8.77496
 20
65.3759
 11
8.52126
 21
65.5603
  0
LINE
  8
0
 10
8.52126
 20
65.5603
 11
8.31143
 21
65.7933
  0
LINE
  8
0
 10
8.31143
 20
65.7933
 11
8.15465
 21
66.0649
  0
LINE
  8
0
 10
8.15465
 20
66.0649
 11
8.05774
 21
66.3631
  0
LINE
  8
0
 10
8.05774
 20
66.3631
 11
8.02496
 21
66.675
  0
LINE
  8
0
 10
8.02496
 20
66.675
 11
8.05774
 21
66.9868
  0
LINE
  8
0
 10
8.05774
 20
66.9868
 11
8.15465
 21
67.2851
  0
LINE
  8
0
 10
8.15465
 20
67.2851
 11
8.31143
 21
67.5567
  0
LINE
  8
0
 10
8.31143
 20
67.5567
 11
8.52126
 21
67.7897
  0
LINE
  8
0
 10
8.52126
 20
67.7897
 11
8.77496
 21
67.974
  0
LINE
  8
0
 10
8.77496
 20
67.974
 11
9.06143
 21
68.1016
  0
LINE
  8
0
 10
9.06143
 20
68.1016
 11
9.36816
 21
68.1667
  0
LINE
  8
0
 10
9.36816
 20
68.1667
 11
9.68175
 21
68.1667
  0
LINE
  8
0
 10
9.68175
 20
68.1667
 11
9.98848
 21
68.1016
  0
LINE
  8
0
 10
9.98848
 20
68.1016
 11
10.275
 21
67.974
  0
LINE
  8
0
 10
10.275
 20
67.974
 11
10.5287
 21
67.7897
  0
LINE
  8
0
 10
10.5287
 20
67.7897
 11
10.7385
 21
67.5567
  0
LINE
  8
0
 10
10.7385
 20
67.5567
 11
10.8953
 21
67.2851
  0
LINE
  8
0
 10
10.8953
 20
67.2851
 11
10.9922
 21
66.9868
  0
LINE
  8
0
 10
10.9922
 20
66.9868
 11
11.025
 21
66.675
  0
LINE
  8
0
 10
11.025
 20
66.675
 11
10.9922
 21
66.3631
  0
LINE
  8
0
 10
10.9922
 20
66.3631
 11
10.8953
 21
66.0649
  0
LINE
  8
0
 10
10.8953
 20
66.0649
 11
10.7385
 21
65.7933
  0
LINE
  8
0
 10
10.7385
 20
65.7933
 11
10.5287
 21
65.5603
  0
LINE
  8
0
 10
10.5287
 20
65.5603
 11
10.275
 21
65.3759
  0
LINE
  8
0
 10
10.275
 20
65.3759
 11
9.98848
 21
65.2484
  0
LINE
  8
0
 10
9.98848
 20
65.2484
 11
9.68175
 21
65.1832
  0
LINE
  8
0
 10
9.68175
 20
65.1832
 11
9.36816
 21
65.1832
  0
LINE
  8
0
 10
161.768
 20
65.1832
 11
161.461
 21
65.2484
  0
LINE
  8
0
 10
161.461
 20
65.2484
 11
161.175
 21
65.3759
  0
LINE
  8
0
 10
161.175
 20
65.3759
 11
160.921
 21
65.5603
  0
LINE
  8
0
 10
160.921
 20
65.5603
 11
160.711
 21
65.7933
  0
LINE
  8
0
 10
160.711
 20
65.7933
 11
160.555
 21
66.0649
  0
LINE
  8
0
 10
160.555
 20
66.0649
 11
160.458
 21
66.3631
  0
LINE
  8
0
 10
160.458
 20
66.3631
 11
160.425
 21
66.675
  0
LINE
  8
0
 10
160.425
 20
66.675
 11
160.458
 21
66.9868
  0
LINE
  8
0
 10
160.458
 20
66.9868
 11
160.555
 21
67.2851
  0
LINE
  8
0
 10
160.555
 20
67.2851
 11
160.711
 21
67.5567
  0
LINE
  8
0
 10
160.711
 20
67.5567
 11
160.921
 21
67.7897
  0
LINE
  8
0
 10
160.921
 20
67.7897
 11
161.175
 21
67.974
  0
LINE
  8
0
 10
161.175
 20
67.974
 11
161.461
 21
68.1016
  0
LINE
  8
0
 10
161.461
 20
68.1016
 11
161.768
 21
68.1667
  0
LINE
  8
0
 10
161.768
 20
68.1667
 11
162.082
 21
68.1667
  0
LINE
  8
0
 10
162.082
 20
68.1667
 11
162.388
 21
68.1016
  0
LINE
  8
0
 10
162.388
 20
68.1016
 11
162.675
 21
67.974
  0
LINE
  8
0
 10
162.675
 20
67.974
 11
162.929
 21
67.7897
  0
LINE
  8
0
 10
162.929
 20
67.7897
 11
163.138
 21
67.5567
  0
LINE
  8
0
 10
163.138
 20
67.5567
 11
163.295
 21
67.2851
  0
LINE
  8
0
 10
163.295
 20
67.2851
 11
163.392
 21
66.9868
  0
LINE
  8
0
 10
163.392
 20
66.9868
 11
163.425
 21
66.675
  0
LINE
  8
0
 10
163.425
 20
66.675
 11
163.392
 21
66.3631
  0
LINE
  8
0
 10
163.392
 20
66.3631
 11
163.295
 21
66.0649
  0
LINE
  8
0
 10
163.295
 20
66.0649
 11
163.138
 21
65.7933
  0
LINE
  8
0
 10
163.138
 20
65.7933
 11
162.929
 21
65.5603
  0
LINE
  8
0
 10
162.929
 20
65.5603
 11
162.675
 21
65.3759
  0
LINE
  8
0
 10
162.675
 20
65.3759
 11
162.388
 21
65.2484
  0
LINE
  8
0
 10
162.388
 20
65.2484
 11
162.082
 21
65.1832
  0
LINE
  8
0
 10
162.082
 20
65.1832
 11
161.768
 21
65.1832
  0
LINE
  8
0
 10
66.5182
 20
65.1832
 11
66.2114
 21
65.2484
  0
LINE
  8
0
 10
66.2114
 20
65.2484
 11
65.925
 21
65.3759
  0
LINE
  8
0
 10
65.925
 20
65.3759
 11
65.6713
 21
65.5603
  0
LINE
  8
0
 10
65.6713
 20
65.5603
 11
65.4614
 21
65.7933
  0
LINE
  8
0
 10
65.4614
 20
65.7933
 11
65.3046
 21
66.0649
  0
LINE
  8
0
 10
65.3046
 20
66.0649
 11
65.2077
 21
66.3631
  0
LINE
  8
0
 10
65.2077
 20
66.3631
 11
65.175
 21
66.675
  0
LINE
  8
0
 10
65.175
 20
66.675
 11
65.2077
 21
66.9868
  0
LINE
  8
0
 10
65.2077
 20
66.9868
 11
65.3046
 21
67.2851
  0
LINE
  8
0
 10
65.3046
 20
67.2851
 11
65.4614
 21
67.5567
  0
LINE
  8
0
 10
65.4614
 20
67.5567
 11
65.6713
 21
67.7897
  0
LINE
  8
0
 10
65.6713
 20
67.7897
 11
65.925
 21
67.974
  0
LINE
  8
0
 10
65.925
 20
67.974
 11
66.2114
 21
68.1016
  0
LINE
  8
0
 10
66.2114
 20
68.1016
 11
66.5182
 21
68.1667
  0
LINE
  8
0
 10
66.5182
 20
68.1667
 11
66.8318
 21
68.1667
  0
LINE
  8
0
 10
66.8318
 20
68.1667
 11
67.1385
 21
68.1016
  0
LINE
  8
0
 10
67.1385
 20
68.1016
 11
67.425
 21
67.974
  0
LINE
  8
0
 10
67.425
 20
67.974
 11
67.6786
 21
67.7897
  0
LINE
  8
0
 10
67.6786
 20
67.7897
 11
67.8885
 21
67.5567
  0
LINE
  8
0
 10
67.8885
 20
67.5567
 11
68.0453
 21
67.2851
  0
LINE
  8
0
 10
68.0453
 20
67.2851
 11
68.1422
 21
66.9868
  0
LINE
  8
0
 10
68.1422
 20
66.9868
 11
68.175
 21
66.675
  0
LINE
  8
0
 10
68.175
 20
66.675
 11
68.1422
 21
66.3631
  0
LINE
  8
0
 10
68.1422
 20
66.3631
 11
68.0453
 21
66.0649
  0
LINE
  8
0
 10
68.0453
 20
66.0649
 11
67.8885
 21
65.7933
  0
LINE
  8
0
 10
67.8885
 20
65.7933
 11
67.6786
 21
65.5603
  0
LINE
  8
0
 10
67.6786
 20
65.5603
 11
67.425
 21
65.3759
  0
LINE
  8
0
 10
67.425
 20
65.3759
 11
67.1385
 21
65.2484
  0
LINE
  8
0
 10
67.1385
 20
65.2484
 11
66.8318
 21
65.1832
  0
LINE
  8
0
 10
66.8318
 20
65.1832
 11
66.5182
 21
65.1832
  0
LINE
  8
0
 10
180.818
 20
65.1832
 11
180.511
 21
65.2484
  0
LINE
  8
0
 10
180.511
 20
65.2484
 11
180.225
 21
65.3759
  0
LINE
  8
0
 10
180.225
 20
65.3759
 11
179.971
 21
65.5603
  0
LINE
  8
0
 10
179.971
 20
65.5603
 11
179.761
 21
65.7933
  0
LINE
  8
0
 10
179.761
 20
65.7933
 11
179.605
 21
66.0649
  0
LINE
  8
0
 10
179.605
 20
66.0649
 11
179.508
 21
66.3631
  0
LINE
  8
0
 10
179.508
 20
66.3631
 11
179.475
 21
66.675
  0
LINE
  8
0
 10
179.475
 20
66.675
 11
179.508
 21
66.9868
  0
LINE
  8
0
 10
179.508
 20
66.9868
 11
179.605
 21
67.2851
  0
LINE
  8
0
 10
179.605
 20
67.2851
 11
179.761
 21
67.5567
  0
LINE
  8
0
 10
179.761
 20
67.5567
 11
179.971
 21
67.7897
  0
LINE
  8
0
 10
179.971
 20
67.7897
 11
180.225
 21
67.974
  0
LINE
  8
0
 10
180.225
 20
67.974
 11
180.511
 21
68.1016
  0
LINE
  8
0
 10
180.511
 20
68.1016
 11
180.818
 21
68.1667
  0
LINE
  8
0
 10
180.818
 20
68.1667
 11
181.132
 21
68.1667
  0
LINE
  8
0
 10
181.132
 20
68.1667
 11
181.438
 21
68.1016
  0
LINE
  8
0
 10
181.438
 20
68.1016
 11
181.725
 21
67.974
  0
LINE
  8
0
 10
181.725
 20
67.974
 11
181.979
 21
67.7897
  0
LINE
  8
0
 10
181.979
 20
67.7897
 11
182.188
 21
67.5567
  0
LINE
  8
0
 10
182.188
 20
67.5567
 11
182.345
 21
67.2851
  0
LINE
  8
0
 10
182.345
 20
67.2851
 11
182.442
 21
66.9868
  0
LINE
  8
0
 10
182.442
 20
66.9868
 11
182.475
 21
66.675
  0
LINE
  8
0
 10
182.475
 20
66.675
 11
182.442
 21
66.3631
  0
LINE
  8
0
 10
182.442
 20
66.3631
 11
182.345
 21
66.0649
  0
LINE
  8
0
 10
182.345
 20
66.0649
 11
182.188
 21
65.7933
  0
LINE
  8
0
 10
182.188
 20
65.7933
 11
181.979
 21
65.5603
  0
LINE
  8
0
 10
181.979
 20
65.5603
 11
181.725
 21
65.3759
  0
LINE
  8
0
 10
181.725
 20
65.3759
 11
181.438
 21
65.2484
  0
LINE
  8
0
 10
181.438
 20
65.2484
 11
181.132
 21
65.1832
  0
LINE
  8
0
 10
181.132
 20
65.1832
 11
180.818
 21
65.1832
  0
LINE
  8
0
 10
107.3
 20
50.15
 11
107.3
 21
64.15
  0
LINE
  8
0
 10
107.3
 20
64.15
 11
121.3
 21
64.15
  0
LINE
  8
0
 10
121.3
 20
64.15
 11
121.3
 21
50.15
  0
LINE
  8
0
 10
121.3
 20
50.15
 11
107.3
 21
50.15
  0
LINE
  8
0
 10
126.35
 20
50.15
 11
126.35
 21
64.15
  0
LINE
  8
0
 10
126.35
 20
64.15
 11
140.35
 21
64.15
  0
LINE
  8
0
 10
140.35
 20
64.15
 11
140.35
 21
50.15
  0
LINE
  8
0
 10
140.35
 20
50.15
 11
126.35
 21
50.15
  0
LINE
  8
0
 10
145.4
 20
50.15
 11
145.4
 21
64.15
  0
LINE
  8
0
 10
145.4
 20
64.15
 11
159.4
 21
64.15
  0
LINE
  8
0
 10
159.4
 20
64.15
 11
159.4
 21
50.15
  0
LINE
  8
0
 10
159.4
 20
50.15
 11
145.4
 21
50.15
  0
LINE
  8
0
 10
164.45
 20
50.15
 11
164.45
 21
64.15
  0
LINE
  8
0
 10
164.45
 20
64.15
 11
178.45
 21
64.15
  0
LINE
  8
0
 10
178.45
 20
64.15
 11
178.45
 21
50.15
  0
LINE
  8
0
 10
178.45
 20
50.15
 11
164.45
 21
50.15
  0
LINE
  8
0
 10
183.5
 20
50.15
 11
183.5
 21
64.15
  0
LINE
  8
0
 10
183.5
 20
64.15
 11
197.5
 21
64.15
  0
LINE
  8
0
 10
197.5
 20
64.15
 11
197.5
 21
50.15
  0
LINE
  8
0
 10
197.5
 20
50.15
 11
183.5
 21
50.15
  0
LINE
  8
0
 10
202.55
 20
50.15
 11
202.55
 21
64.15
  0
LINE
  8
0
 10
202.55
 20
64.15
 11
216.55
 21
64.15
  0
LINE
  8
0
 10
216.55
 20
64.15
 11
216.55
 21
50.15
  0
LINE
  8
0
 10
216.55
 20
50.15
 11
202.55
 21
50.15
  0
LINE
  8
0
 10
221.6
 20
50.15
 11
221.6
 21
64.15
  0
LINE
  8
0
 10
221.6
 20
64.15
 11
235.6
 21
64.15
  0
LINE
  8
0
 10
235.6
 20
64.15
 11
235.6
 21
50.15
  0
LINE
  8
0
 10
235.6
 20
50.15
 11
221.6
 21
50.15
  0
LINE
  8
0
 10
259.7
 20
50.15
 11
259.7
 21
64.15
  0
LINE
  8
0
 10
259.7
 20
64.15
 11
273.7
 21
64.15
  0
LINE
  8
0
 10
273.7
 20
64.15
 11
273.7
 21
50.15
  0
LINE
  8
0
 10
273.7
 20
50.15
 11
259.7
 21
50.15
  0
LINE
  8
0
 10
69.2
 20
50.15
 11
69.2
 21
64.15
  0
LINE
  8
0
 10
69.2
 20
64.15
 11
83.2
 21
64.15
  0
LINE
  8
0
 10
83.2
 20
64.15
 11
83.2
 21
50.15
  0
LINE
  8
0
 10
83.2
 20
50.15
 11
69.2
 21
50.15
  0
LINE
  8
0
 10
88.25
 20
50.15
 11
88.25
 21
64.15
  0
LINE
  8
0
 10
88.25
 20
64.15
 11
102.25
 21
64.15
  0
LINE
  8
0
 10
102.25
 20
64.15
 11
102.25
 21
50.15
  0
LINE
  8
0
 10
102.25
 20
50.15
 11
88.25
 21
50.15
  0
LINE
  8
0
 10
50.15
 20
50.15
 11
50.15
 21
64.15
  0
LINE
  8
0
 10
50.15
 20
64.15
 11
64.15
 21
64.15
  0
LINE
  8
0
 10
64.15
 20
64.15
 11
64.15
 21
50.15
  0
LINE
  8
0
 10
64.15
 20
50.15
 11
50.15
 21
50.15
  0
LINE
  8
0
 10
240.65
 20
50.15
 11
240.65
 21
64.15
  0
LINE
  8
0
 10
240.65
 20
64.15
 11
254.65
 21
64.15
  0
LINE
  8
0
 10
254.65
 20
64.15
 11
254.65
 21
50.15
  0
LINE
  8
0
 10
254.65
 20
50.15
 11
240.65
 21
50.15
  0
LINE
  8
0
 10
281.131
 20
50.15
 11
281.131
 21
64.15
  0
LINE
  8
0
 10
281.131
 20
64.15
 11
295.131
 21
64.15
  0
LINE
  8
0
 10
295.131
 20
64.15
 11
295.131
 21
50.15
  0
LINE
  8
0
 10
295.131
 20
50.15
 11
281.131
 21
50.15
  0
LINE
  8
0
 10
15.135
 20
49.28
 11
15.135
 21
50.48
  0
LINE
  8
0
 10
15.135
 20
50.48
 11
13.31
 21
50.48
  0
LINE
  8
0
 10
13.31
 20
50.48
 11
13.31
 21
56.75
  0
LINE
  8
0
 10
13.31
 20
56.75
 11
12.435
 21
56.75
  0
LINE
  8
0
 10
12.435
 20
56.75
 11
12.435
 21
59.55
  0
LINE
  8
0
 10
12.435
 20
59.55
 11
13.31
 21
59.55
  0
LINE
  8
0
 10
13.31
 20
59.55
 11
13.31
 21
62.78
  0
LINE
  8
0
 10
13.31
 20
62.78
 11
19.96
 21
62.78
  0
LINE
  8
0
 10
19.96
 20
62.78
 11
19.96
 21
61.88
  0
LINE
  8
0
 10
19.96
 20
61.88
 11
21.575
 21
61.88
  0
LINE
  8
0
 10
21.575
 20
61.88
 11
21.575
 21
64.15
  0
LINE
  8
0
 10
21.575
 20
64.15
 11
35.575
 21
64.15
  0
LINE
  8
0
 10
35.575
 20
64.15
 11
35.575
 21
61.88
  0
LINE
  8
0
 10
35.575
 20
61.88
 11
37.19
 21
61.88
  0
LINE
  8
0
 10
37.19
 20
61.88
 11
37.19
 21
62.78
  0
LINE
  8
0
 10
37.19
 20
62.78
 11
43.84
 21
62.78
  0
LINE
  8
0
 10
43.84
 20
62.78
 11
43.84
 21
59.55
  0
LINE
  8
0
 10
43.84
 20
59.55
 11
44.715
 21
59.55
  0
LINE
  8
0
 10
44.715
 20
59.55
 11
44.715
 21
56.75
  0
LINE
  8
0
 10
44.715
 20
56.75
 11
43.84
 21
56.75
  0
LINE
  8
0
 10
43.84
 20
56.75
 11
43.84
 21
50.48
  0
LINE
  8
0
 10
43.84
 20
50.48
 11
42.015
 21
50.48
  0
LINE
  8
0
 10
42.015
 20
50.48
 11
42.015
 21
49.28
  0
LINE
  8
0
 10
42.015
 20
49.28
 11
39.015
 21
49.28
  0
LINE
  8
0
 10
39.015
 20
49.28
 11
39.015
 21
50.48
  0
LINE
  8
0
 10
39.015
 20
50.48
 11
37.19
 21
50.48
  0
LINE
  8
0
 10
37.19
 20
50.48
 11
37.19
 21
51.18
  0
LINE
  8
0
 10
37.19
 20
51.18
 11
35.575
 21
51.18
  0
LINE
  8
0
 10
35.575
 20
51.18
 11
35.575
 21
50.15
  0
LINE
  8
0
 10
35.575
 20
50.15
 11
21.575
 21
50.15
  0
LINE
  8
0
 10
21.575
 20
50.15
 11
21.575
 21
51.18
  0
LINE
  8
0
 10
21.575
 20
51.18
 11
19.96
 21
51.18
  0
LINE
  8
0
 10
19.96
 20
51.18
 11
19.96
 21
50.48
  0
LINE
  8
0
 10
19.96
 20
50.48
 11
18.135
 21
50.48
  0
LINE
  8
0
 10
18.135
 20
50.48
 11
18.135
 21
49.28
  0
LINE
  8
0
 10
18.135
 20
49.28
 11
15.135
 21
49.28
  0
LINE
  8
0
 10
323.693
 20
53.2769
 11
323.386
 21
53.3421
  0
LINE
  8
0
 10
323.386
 20
53.3421
 11
323.1
 21
53.4697
  0
LINE
  8
0
 10
323.1
 20
53.4697
 11
322.846
 21
53.654
  0
LINE
  8
0
 10
322.846
 20
53.654
 11
322.636
 21
53.887
  0
LINE
  8
0
 10
322.636
 20
53.887
 11
322.48
 21
54.1586
  0
LINE
  8
0
 10
322.48
 20
54.1586
 11
322.383
 21
54.4568
  0
LINE
  8
0
 10
322.383
 20
54.4568
 11
322.35
 21
54.7687
  0
LINE
  8
0
 10
322.35
 20
54.7687
 11
322.383
 21
55.0806
  0
LINE
  8
0
 10
322.383
 20
55.0806
 11
322.48
 21
55.3788
  0
LINE
  8
0
 10
322.48
 20
55.3788
 11
322.636
 21
55.6504
  0
LINE
  8
0
 10
322.636
 20
55.6504
 11
322.846
 21
55.8834
  0
LINE
  8
0
 10
322.846
 20
55.8834
 11
323.1
 21
56.0678
  0
LINE
  8
0
 10
323.1
 20
56.0678
 11
323.386
 21
56.1953
  0
LINE
  8
0
 10
323.386
 20
56.1953
 11
323.693
 21
56.2605
  0
LINE
  8
0
 10
323.693
 20
56.2605
 11
324.007
 21
56.2605
  0
LINE
  8
0
 10
324.007
 20
56.2605
 11
324.313
 21
56.1953
  0
LINE
  8
0
 10
324.313
 20
56.1953
 11
324.6
 21
56.0678
  0
LINE
  8
0
 10
324.6
 20
56.0678
 11
324.854
 21
55.8834
  0
LINE
  8
0
 10
324.854
 20
55.8834
 11
325.063
 21
55.6504
  0
LINE
  8
0
 10
325.063
 20
55.6504
 11
325.22
 21
55.3788
  0
LINE
  8
0
 10
325.22
 20
55.3788
 11
325.317
 21
55.0806
  0
LINE
  8
0
 10
325.317
 20
55.0806
 11
325.35
 21
54.7687
  0
LINE
  8
0
 10
325.35
 20
54.7687
 11
325.317
 21
54.4568
  0
LINE
  8
0
 10
325.317
 20
54.4568
 11
325.22
 21
54.1586
  0
LINE
  8
0
 10
325.22
 20
54.1586
 11
325.063
 21
53.887
  0
LINE
  8
0
 10
325.063
 20
53.887
 11
324.854
 21
53.654
  0
LINE
  8
0
 10
324.854
 20
53.654
 11
324.6
 21
53.4697
  0
LINE
  8
0
 10
324.6
 20
53.4697
 11
324.313
 21
53.3421
  0
LINE
  8
0
 10
324.313
 20
53.3421
 11
324.007
 21
53.2769
  0
LINE
  8
0
 10
324.007
 20
53.2769
 11
323.693
 21
53.2769
  0
LINE
  8
0
 10
328.756
 20
38.2437
 11
328.756
 21
52.2437
  0
LINE
  8
0
 10
328.756
 20
52.2437
 11
342.756
 21
52.2437
  0
LINE
  8
0
 10
342.756
 20
52.2437
 11
342.756
 21
38.2437
  0
LINE
  8
0
 10
342.756
 20
38.2437
 11
328.756
 21
38.2437
  0
LINE
  8
0
 10
133.193
 20
46.1332
 11
132.886
 21
46.1984
  0
LINE
  8
0
 10
132.886
 20
46.1984
 11
132.6
 21
46.3259
  0
LINE
  8
0
 10
132.6
 20
46.3259
 11
132.346
 21
46.5103
  0
LINE
  8
0
 10
132.346
 20
46.5103
 11
132.136
 21
46.7433
  0
LINE
  8
0
 10
132.136
 20
46.7433
 11
131.98
 21
47.0149
  0
LINE
  8
0
 10
131.98
 20
47.0149
 11
131.883
 21
47.3131
  0
LINE
  8
0
 10
131.883
 20
47.3131
 11
131.85
 21
47.625
  0
LINE
  8
0
 10
131.85
 20
47.625
 11
131.883
 21
47.9368
  0
LINE
  8
0
 10
131.883
 20
47.9368
 11
131.98
 21
48.2351
  0
LINE
  8
0
 10
131.98
 20
48.2351
 11
132.136
 21
48.5067
  0
LINE
  8
0
 10
132.136
 20
48.5067
 11
132.346
 21
48.7397
  0
LINE
  8
0
 10
132.346
 20
48.7397
 11
132.6
 21
48.924
  0
LINE
  8
0
 10
132.6
 20
48.924
 11
132.886
 21
49.0516
  0
LINE
  8
0
 10
132.886
 20
49.0516
 11
133.193
 21
49.1168
  0
LINE
  8
0
 10
133.193
 20
49.1168
 11
133.507
 21
49.1168
  0
LINE
  8
0
 10
133.507
 20
49.1168
 11
133.813
 21
49.0516
  0
LINE
  8
0
 10
133.813
 20
49.0516
 11
134.1
 21
48.924
  0
LINE
  8
0
 10
134.1
 20
48.924
 11
134.354
 21
48.7397
  0
LINE
  8
0
 10
134.354
 20
48.7397
 11
134.563
 21
48.5067
  0
LINE
  8
0
 10
134.563
 20
48.5067
 11
134.72
 21
48.2351
  0
LINE
  8
0
 10
134.72
 20
48.2351
 11
134.817
 21
47.9368
  0
LINE
  8
0
 10
134.817
 20
47.9368
 11
134.85
 21
47.625
  0
LINE
  8
0
 10
134.85
 20
47.625
 11
134.817
 21
47.3131
  0
LINE
  8
0
 10
134.817
 20
47.3131
 11
134.72
 21
47.0149
  0
LINE
  8
0
 10
134.72
 20
47.0149
 11
134.563
 21
46.7433
  0
LINE
  8
0
 10
134.563
 20
46.7433
 11
134.354
 21
46.5103
  0
LINE
  8
0
 10
134.354
 20
46.5103
 11
134.1
 21
46.3259
  0
LINE
  8
0
 10
134.1
 20
46.3259
 11
133.813
 21
46.1984
  0
LINE
  8
0
 10
133.813
 20
46.1984
 11
133.507
 21
46.1332
  0
LINE
  8
0
 10
133.507
 20
46.1332
 11
133.193
 21
46.1332
  0
LINE
  8
0
 10
190.343
 20
46.1332
 11
190.036
 21
46.1984
  0
LINE
  8
0
 10
190.036
 20
46.1984
 11
189.75
 21
46.3259
  0
LINE
  8
0
 10
189.75
 20
46.3259
 11
189.496
 21
46.5103
  0
LINE
  8
0
 10
189.496
 20
46.5103
 11
189.286
 21
46.7433
  0
LINE
  8
0
 10
189.286
 20
46.7433
 11
189.13
 21
47.0149
  0
LINE
  8
0
 10
189.13
 20
47.0149
 11
189.033
 21
47.3131
  0
LINE
  8
0
 10
189.033
 20
47.3131
 11
189
 21
47.625
  0
LINE
  8
0
 10
189
 20
47.625
 11
189.033
 21
47.9368
  0
LINE
  8
0
 10
189.033
 20
47.9368
 11
189.13
 21
48.2351
  0
LINE
  8
0
 10
189.13
 20
48.2351
 11
189.286
 21
48.5067
  0
LINE
  8
0
 10
189.286
 20
48.5067
 11
189.496
 21
48.7397
  0
LINE
  8
0
 10
189.496
 20
48.7397
 11
189.75
 21
48.924
  0
LINE
  8
0
 10
189.75
 20
48.924
 11
190.036
 21
49.0516
  0
LINE
  8
0
 10
190.036
 20
49.0516
 11
190.343
 21
49.1168
  0
LINE
  8
0
 10
190.343
 20
49.1168
 11
190.657
 21
49.1168
  0
LINE
  8
0
 10
190.657
 20
49.1168
 11
190.963
 21
49.0516
  0
LINE
  8
0
 10
190.963
 20
49.0516
 11
191.25
 21
48.924
  0
LINE
  8
0
 10
191.25
 20
48.924
 11
191.504
 21
48.7397
  0
LINE
  8
0
 10
191.504
 20
48.7397
 11
191.713
 21
48.5067
  0
LINE
  8
0
 10
191.713
 20
48.5067
 11
191.87
 21
48.2351
  0
LINE
  8
0
 10
191.87
 20
48.2351
 11
191.967
 21
47.9368
  0
LINE
  8
0
 10
191.967
 20
47.9368
 11
192
 21
47.625
  0
LINE
  8
0
 10
192
 20
47.625
 11
191.967
 21
47.3131
  0
LINE
  8
0
 10
191.967
 20
47.3131
 11
191.87
 21
47.0149
  0
LINE
  8
0
 10
191.87
 20
47.0149
 11
191.713
 21
46.7433
  0
LINE
  8
0
 10
191.713
 20
46.7433
 11
191.504
 21
46.5103
  0
LINE
  8
0
 10
191.504
 20
46.5103
 11
191.25
 21
46.3259
  0
LINE
  8
0
 10
191.25
 20
46.3259
 11
190.963
 21
46.1984
  0
LINE
  8
0
 10
190.963
 20
46.1984
 11
190.657
 21
46.1332
  0
LINE
  8
0
 10
190.657
 20
46.1332
 11
190.343
 21
46.1332
  0
LINE
  8
0
 10
299.881
 20
46.1332
 11
299.574
 21
46.1984
  0
LINE
  8
0
 10
299.574
 20
46.1984
 11
299.287
 21
46.3259
  0
LINE
  8
0
 10
299.287
 20
46.3259
 11
299.034
 21
46.5103
  0
LINE
  8
0
 10
299.034
 20
46.5103
 11
298.824
 21
46.7433
  0
LINE
  8
0
 10
298.824
 20
46.7433
 11
298.667
 21
47.0149
  0
LINE
  8
0
 10
298.667
 20
47.0149
 11
298.57
 21
47.3131
  0
LINE
  8
0
 10
298.57
 20
47.3131
 11
298.537
 21
47.625
  0
LINE
  8
0
 10
298.537
 20
47.625
 11
298.57
 21
47.9368
  0
LINE
  8
0
 10
298.57
 20
47.9368
 11
298.667
 21
48.2351
  0
LINE
  8
0
 10
298.667
 20
48.2351
 11
298.824
 21
48.5067
  0
LINE
  8
0
 10
298.824
 20
48.5067
 11
299.034
 21
48.7397
  0
LINE
  8
0
 10
299.034
 20
48.7397
 11
299.287
 21
48.924
  0
LINE
  8
0
 10
299.287
 20
48.924
 11
299.574
 21
49.0516
  0
LINE
  8
0
 10
299.574
 20
49.0516
 11
299.881
 21
49.1168
  0
LINE
  8
0
 10
299.881
 20
49.1168
 11
300.194
 21
49.1168
  0
LINE
  8
0
 10
300.194
 20
49.1168
 11
300.501
 21
49.0516
  0
LINE
  8
0
 10
300.501
 20
49.0516
 11
300.787
 21
48.924
  0
LINE
  8
0
 10
300.787
 20
48.924
 11
301.041
 21
48.7397
  0
LINE
  8
0
 10
301.041
 20
48.7397
 11
301.251
 21
48.5067
  0
LINE
  8
0
 10
301.251
 20
48.5067
 11
301.408
 21
48.2351
  0
LINE
  8
0
 10
301.408
 20
48.2351
 11
301.505
 21
47.9368
  0
LINE
  8
0
 10
301.505
 20
47.9368
 11
301.537
 21
47.625
  0
LINE
  8
0
 10
301.537
 20
47.625
 11
301.505
 21
47.3131
  0
LINE
  8
0
 10
301.505
 20
47.3131
 11
301.408
 21
47.0149
  0
LINE
  8
0
 10
301.408
 20
47.0149
 11
301.251
 21
46.7433
  0
LINE
  8
0
 10
301.251
 20
46.7433
 11
301.041
 21
46.5103
  0
LINE
  8
0
 10
301.041
 20
46.5103
 11
300.787
 21
46.3259
  0
LINE
  8
0
 10
300.787
 20
46.3259
 11
300.501
 21
46.1984
  0
LINE
  8
0
 10
300.501
 20
46.1984
 11
300.194
 21
46.1332
  0
LINE
  8
0
 10
300.194
 20
46.1332
 11
299.881
 21
46.1332
  0
LINE
  8
0
 10
280.831
 20
46.1332
 11
280.524
 21
46.1984
  0
LINE
  8
0
 10
280.524
 20
46.1984
 11
280.237
 21
46.3259
  0
LINE
  8
0
 10
280.237
 20
46.3259
 11
279.984
 21
46.5103
  0
LINE
  8
0
 10
279.984
 20
46.5103
 11
279.774
 21
46.7433
  0
LINE
  8
0
 10
279.774
 20
46.7433
 11
279.617
 21
47.0149
  0
LINE
  8
0
 10
279.617
 20
47.0149
 11
279.52
 21
47.3131
  0
LINE
  8
0
 10
279.52
 20
47.3131
 11
279.487
 21
47.625
  0
LINE
  8
0
 10
279.487
 20
47.625
 11
279.52
 21
47.9368
  0
LINE
  8
0
 10
279.52
 20
47.9368
 11
279.617
 21
48.2351
  0
LINE
  8
0
 10
279.617
 20
48.2351
 11
279.774
 21
48.5067
  0
LINE
  8
0
 10
279.774
 20
48.5067
 11
279.984
 21
48.7397
  0
LINE
  8
0
 10
279.984
 20
48.7397
 11
280.237
 21
48.924
  0
LINE
  8
0
 10
280.237
 20
48.924
 11
280.524
 21
49.0516
  0
LINE
  8
0
 10
280.524
 20
49.0516
 11
280.831
 21
49.1168
  0
LINE
  8
0
 10
280.831
 20
49.1168
 11
281.144
 21
49.1168
  0
LINE
  8
0
 10
281.144
 20
49.1168
 11
281.451
 21
49.0516
  0
LINE
  8
0
 10
281.451
 20
49.0516
 11
281.737
 21
48.924
  0
LINE
  8
0
 10
281.737
 20
48.924
 11
281.991
 21
48.7397
  0
LINE
  8
0
 10
281.991
 20
48.7397
 11
282.201
 21
48.5067
  0
LINE
  8
0
 10
282.201
 20
48.5067
 11
282.358
 21
48.2351
  0
LINE
  8
0
 10
282.358
 20
48.2351
 11
282.455
 21
47.9368
  0
LINE
  8
0
 10
282.455
 20
47.9368
 11
282.487
 21
47.625
  0
LINE
  8
0
 10
282.487
 20
47.625
 11
282.455
 21
47.3131
  0
LINE
  8
0
 10
282.455
 20
47.3131
 11
282.358
 21
47.0149
  0
LINE
  8
0
 10
282.358
 20
47.0149
 11
282.201
 21
46.7433
  0
LINE
  8
0
 10
282.201
 20
46.7433
 11
281.991
 21
46.5103
  0
LINE
  8
0
 10
281.991
 20
46.5103
 11
281.737
 21
46.3259
  0
LINE
  8
0
 10
281.737
 20
46.3259
 11
281.451
 21
46.1984
  0
LINE
  8
0
 10
281.451
 20
46.1984
 11
281.144
 21
46.1332
  0
LINE
  8
0
 10
281.144
 20
46.1332
 11
280.831
 21
46.1332
  0
LINE
  8
0
 10
247.493
 20
46.1332
 11
247.186
 21
46.1984
  0
LINE
  8
0
 10
247.186
 20
46.1984
 11
246.9
 21
46.3259
  0
LINE
  8
0
 10
246.9
 20
46.3259
 11
246.646
 21
46.5103
  0
LINE
  8
0
 10
246.646
 20
46.5103
 11
246.436
 21
46.7433
  0
LINE
  8
0
 10
246.436
 20
46.7433
 11
246.28
 21
47.0149
  0
LINE
  8
0
 10
246.28
 20
47.0149
 11
246.183
 21
47.3131
  0
LINE
  8
0
 10
246.183
 20
47.3131
 11
246.15
 21
47.625
  0
LINE
  8
0
 10
246.15
 20
47.625
 11
246.183
 21
47.9368
  0
LINE
  8
0
 10
246.183
 20
47.9368
 11
246.28
 21
48.2351
  0
LINE
  8
0
 10
246.28
 20
48.2351
 11
246.436
 21
48.5067
  0
LINE
  8
0
 10
246.436
 20
48.5067
 11
246.646
 21
48.7397
  0
LINE
  8
0
 10
246.646
 20
48.7397
 11
246.9
 21
48.924
  0
LINE
  8
0
 10
246.9
 20
48.924
 11
247.186
 21
49.0516
  0
LINE
  8
0
 10
247.186
 20
49.0516
 11
247.493
 21
49.1168
  0
LINE
  8
0
 10
247.493
 20
49.1168
 11
247.807
 21
49.1168
  0
LINE
  8
0
 10
247.807
 20
49.1168
 11
248.113
 21
49.0516
  0
LINE
  8
0
 10
248.113
 20
49.0516
 11
248.4
 21
48.924
  0
LINE
  8
0
 10
248.4
 20
48.924
 11
248.654
 21
48.7397
  0
LINE
  8
0
 10
248.654
 20
48.7397
 11
248.863
 21
48.5067
  0
LINE
  8
0
 10
248.863
 20
48.5067
 11
249.02
 21
48.2351
  0
LINE
  8
0
 10
249.02
 20
48.2351
 11
249.117
 21
47.9368
  0
LINE
  8
0
 10
249.117
 20
47.9368
 11
249.15
 21
47.625
  0
LINE
  8
0
 10
249.15
 20
47.625
 11
249.117
 21
47.3131
  0
LINE
  8
0
 10
249.117
 20
47.3131
 11
249.02
 21
47.0149
  0
LINE
  8
0
 10
249.02
 20
47.0149
 11
248.863
 21
46.7433
  0
LINE
  8
0
 10
248.863
 20
46.7433
 11
248.654
 21
46.5103
  0
LINE
  8
0
 10
248.654
 20
46.5103
 11
248.4
 21
46.3259
  0
LINE
  8
0
 10
248.4
 20
46.3259
 11
248.113
 21
46.1984
  0
LINE
  8
0
 10
248.113
 20
46.1984
 11
247.807
 21
46.1332
  0
LINE
  8
0
 10
247.807
 20
46.1332
 11
247.493
 21
46.1332
  0
LINE
  8
0
 10
228.443
 20
46.1332
 11
228.136
 21
46.1984
  0
LINE
  8
0
 10
228.136
 20
46.1984
 11
227.85
 21
46.3259
  0
LINE
  8
0
 10
227.85
 20
46.3259
 11
227.596
 21
46.5103
  0
LINE
  8
0
 10
227.596
 20
46.5103
 11
227.386
 21
46.7433
  0
LINE
  8
0
 10
227.386
 20
46.7433
 11
227.23
 21
47.0149
  0
LINE
  8
0
 10
227.23
 20
47.0149
 11
227.133
 21
47.3131
  0
LINE
  8
0
 10
227.133
 20
47.3131
 11
227.1
 21
47.625
  0
LINE
  8
0
 10
227.1
 20
47.625
 11
227.133
 21
47.9368
  0
LINE
  8
0
 10
227.133
 20
47.9368
 11
227.23
 21
48.2351
  0
LINE
  8
0
 10
227.23
 20
48.2351
 11
227.386
 21
48.5067
  0
LINE
  8
0
 10
227.386
 20
48.5067
 11
227.596
 21
48.7397
  0
LINE
  8
0
 10
227.596
 20
48.7397
 11
227.85
 21
48.924
  0
LINE
  8
0
 10
227.85
 20
48.924
 11
228.136
 21
49.0516
  0
LINE
  8
0
 10
228.136
 20
49.0516
 11
228.443
 21
49.1168
  0
LINE
  8
0
 10
228.443
 20
49.1168
 11
228.757
 21
49.1168
  0
LINE
  8
0
 10
228.757
 20
49.1168
 11
229.063
 21
49.0516
  0
LINE
  8
0
 10
229.063
 20
49.0516
 11
229.35
 21
48.924
  0
LINE
  8
0
 10
229.35
 20
48.924
 11
229.604
 21
48.7397
  0
LINE
  8
0
 10
229.604
 20
48.7397
 11
229.813
 21
48.5067
  0
LINE
  8
0
 10
229.813
 20
48.5067
 11
229.97
 21
48.2351
  0
LINE
  8
0
 10
229.97
 20
48.2351
 11
230.067
 21
47.9368
  0
LINE
  8
0
 10
230.067
 20
47.9368
 11
230.1
 21
47.625
  0
LINE
  8
0
 10
230.1
 20
47.625
 11
230.067
 21
47.3131
  0
LINE
  8
0
 10
230.067
 20
47.3131
 11
229.97
 21
47.0149
  0
LINE
  8
0
 10
229.97
 20
47.0149
 11
229.813
 21
46.7433
  0
LINE
  8
0
 10
229.813
 20
46.7433
 11
229.604
 21
46.5103
  0
LINE
  8
0
 10
229.604
 20
46.5103
 11
229.35
 21
46.3259
  0
LINE
  8
0
 10
229.35
 20
46.3259
 11
229.063
 21
46.1984
  0
LINE
  8
0
 10
229.063
 20
46.1984
 11
228.757
 21
46.1332
  0
LINE
  8
0
 10
228.757
 20
46.1332
 11
228.443
 21
46.1332
  0
LINE
  8
0
 10
209.393
 20
46.1332
 11
209.086
 21
46.1984
  0
LINE
  8
0
 10
209.086
 20
46.1984
 11
208.8
 21
46.3259
  0
LINE
  8
0
 10
208.8
 20
46.3259
 11
208.546
 21
46.5103
  0
LINE
  8
0
 10
208.546
 20
46.5103
 11
208.336
 21
46.7433
  0
LINE
  8
0
 10
208.336
 20
46.7433
 11
208.18
 21
47.0149
  0
LINE
  8
0
 10
208.18
 20
47.0149
 11
208.083
 21
47.3131
  0
LINE
  8
0
 10
208.083
 20
47.3131
 11
208.05
 21
47.625
  0
LINE
  8
0
 10
208.05
 20
47.625
 11
208.083
 21
47.9368
  0
LINE
  8
0
 10
208.083
 20
47.9368
 11
208.18
 21
48.2351
  0
LINE
  8
0
 10
208.18
 20
48.2351
 11
208.336
 21
48.5067
  0
LINE
  8
0
 10
208.336
 20
48.5067
 11
208.546
 21
48.7397
  0
LINE
  8
0
 10
208.546
 20
48.7397
 11
208.8
 21
48.924
  0
LINE
  8
0
 10
208.8
 20
48.924
 11
209.086
 21
49.0516
  0
LINE
  8
0
 10
209.086
 20
49.0516
 11
209.393
 21
49.1168
  0
LINE
  8
0
 10
209.393
 20
49.1168
 11
209.707
 21
49.1168
  0
LINE
  8
0
 10
209.707
 20
49.1168
 11
210.013
 21
49.0516
  0
LINE
  8
0
 10
210.013
 20
49.0516
 11
210.3
 21
48.924
  0
LINE
  8
0
 10
210.3
 20
48.924
 11
210.554
 21
48.7397
  0
LINE
  8
0
 10
210.554
 20
48.7397
 11
210.763
 21
48.5067
  0
LINE
  8
0
 10
210.763
 20
48.5067
 11
210.92
 21
48.2351
  0
LINE
  8
0
 10
210.92
 20
48.2351
 11
211.017
 21
47.9368
  0
LINE
  8
0
 10
211.017
 20
47.9368
 11
211.05
 21
47.625
  0
LINE
  8
0
 10
211.05
 20
47.625
 11
211.017
 21
47.3131
  0
LINE
  8
0
 10
211.017
 20
47.3131
 11
210.92
 21
47.0149
  0
LINE
  8
0
 10
210.92
 20
47.0149
 11
210.763
 21
46.7433
  0
LINE
  8
0
 10
210.763
 20
46.7433
 11
210.554
 21
46.5103
  0
LINE
  8
0
 10
210.554
 20
46.5103
 11
210.3
 21
46.3259
  0
LINE
  8
0
 10
210.3
 20
46.3259
 11
210.013
 21
46.1984
  0
LINE
  8
0
 10
210.013
 20
46.1984
 11
209.707
 21
46.1332
  0
LINE
  8
0
 10
209.707
 20
46.1332
 11
209.393
 21
46.1332
  0
LINE
  8
0
 10
171.293
 20
46.1332
 11
170.986
 21
46.1984
  0
LINE
  8
0
 10
170.986
 20
46.1984
 11
170.7
 21
46.3259
  0
LINE
  8
0
 10
170.7
 20
46.3259
 11
170.446
 21
46.5103
  0
LINE
  8
0
 10
170.446
 20
46.5103
 11
170.236
 21
46.7433
  0
LINE
  8
0
 10
170.236
 20
46.7433
 11
170.08
 21
47.0149
  0
LINE
  8
0
 10
170.08
 20
47.0149
 11
169.983
 21
47.3131
  0
LINE
  8
0
 10
169.983
 20
47.3131
 11
169.95
 21
47.625
  0
LINE
  8
0
 10
169.95
 20
47.625
 11
169.983
 21
47.9368
  0
LINE
  8
0
 10
169.983
 20
47.9368
 11
170.08
 21
48.2351
  0
LINE
  8
0
 10
170.08
 20
48.2351
 11
170.236
 21
48.5067
  0
LINE
  8
0
 10
170.236
 20
48.5067
 11
170.446
 21
48.7397
  0
LINE
  8
0
 10
170.446
 20
48.7397
 11
170.7
 21
48.924
  0
LINE
  8
0
 10
170.7
 20
48.924
 11
170.986
 21
49.0516
  0
LINE
  8
0
 10
170.986
 20
49.0516
 11
171.293
 21
49.1168
  0
LINE
  8
0
 10
171.293
 20
49.1168
 11
171.607
 21
49.1168
  0
LINE
  8
0
 10
171.607
 20
49.1168
 11
171.913
 21
49.0516
  0
LINE
  8
0
 10
171.913
 20
49.0516
 11
172.2
 21
48.924
  0
LINE
  8
0
 10
172.2
 20
48.924
 11
172.454
 21
48.7397
  0
LINE
  8
0
 10
172.454
 20
48.7397
 11
172.663
 21
48.5067
  0
LINE
  8
0
 10
172.663
 20
48.5067
 11
172.82
 21
48.2351
  0
LINE
  8
0
 10
172.82
 20
48.2351
 11
172.917
 21
47.9368
  0
LINE
  8
0
 10
172.917
 20
47.9368
 11
172.95
 21
47.625
  0
LINE
  8
0
 10
172.95
 20
47.625
 11
172.917
 21
47.3131
  0
LINE
  8
0
 10
172.917
 20
47.3131
 11
172.82
 21
47.0149
  0
LINE
  8
0
 10
172.82
 20
47.0149
 11
172.663
 21
46.7433
  0
LINE
  8
0
 10
172.663
 20
46.7433
 11
172.454
 21
46.5103
  0
LINE
  8
0
 10
172.454
 20
46.5103
 11
172.2
 21
46.3259
  0
LINE
  8
0
 10
172.2
 20
46.3259
 11
171.913
 21
46.1984
  0
LINE
  8
0
 10
171.913
 20
46.1984
 11
171.607
 21
46.1332
  0
LINE
  8
0
 10
171.607
 20
46.1332
 11
171.293
 21
46.1332
  0
LINE
  8
0
 10
152.243
 20
46.1332
 11
151.936
 21
46.1984
  0
LINE
  8
0
 10
151.936
 20
46.1984
 11
151.65
 21
46.3259
  0
LINE
  8
0
 10
151.65
 20
46.3259
 11
151.396
 21
46.5103
  0
LINE
  8
0
 10
151.396
 20
46.5103
 11
151.186
 21
46.7433
  0
LINE
  8
0
 10
151.186
 20
46.7433
 11
151.03
 21
47.0149
  0
LINE
  8
0
 10
151.03
 20
47.0149
 11
150.933
 21
47.3131
  0
LINE
  8
0
 10
150.933
 20
47.3131
 11
150.9
 21
47.625
  0
LINE
  8
0
 10
150.9
 20
47.625
 11
150.933
 21
47.9368
  0
LINE
  8
0
 10
150.933
 20
47.9368
 11
151.03
 21
48.2351
  0
LINE
  8
0
 10
151.03
 20
48.2351
 11
151.186
 21
48.5067
  0
LINE
  8
0
 10
151.186
 20
48.5067
 11
151.396
 21
48.7397
  0
LINE
  8
0
 10
151.396
 20
48.7397
 11
151.65
 21
48.924
  0
LINE
  8
0
 10
151.65
 20
48.924
 11
151.936
 21
49.0516
  0
LINE
  8
0
 10
151.936
 20
49.0516
 11
152.243
 21
49.1168
  0
LINE
  8
0
 10
152.243
 20
49.1168
 11
152.557
 21
49.1168
  0
LINE
  8
0
 10
152.557
 20
49.1168
 11
152.863
 21
49.0516
  0
LINE
  8
0
 10
152.863
 20
49.0516
 11
153.15
 21
48.924
  0
LINE
  8
0
 10
153.15
 20
48.924
 11
153.404
 21
48.7397
  0
LINE
  8
0
 10
153.404
 20
48.7397
 11
153.613
 21
48.5067
  0
LINE
  8
0
 10
153.613
 20
48.5067
 11
153.77
 21
48.2351
  0
LINE
  8
0
 10
153.77
 20
48.2351
 11
153.867
 21
47.9368
  0
LINE
  8
0
 10
153.867
 20
47.9368
 11
153.9
 21
47.625
  0
LINE
  8
0
 10
153.9
 20
47.625
 11
153.867
 21
47.3131
  0
LINE
  8
0
 10
153.867
 20
47.3131
 11
153.77
 21
47.0149
  0
LINE
  8
0
 10
153.77
 20
47.0149
 11
153.613
 21
46.7433
  0
LINE
  8
0
 10
153.613
 20
46.7433
 11
153.404
 21
46.5103
  0
LINE
  8
0
 10
153.404
 20
46.5103
 11
153.15
 21
46.3259
  0
LINE
  8
0
 10
153.15
 20
46.3259
 11
152.863
 21
46.1984
  0
LINE
  8
0
 10
152.863
 20
46.1984
 11
152.557
 21
46.1332
  0
LINE
  8
0
 10
152.557
 20
46.1332
 11
152.243
 21
46.1332
  0
LINE
  8
0
 10
114.143
 20
46.1332
 11
113.836
 21
46.1984
  0
LINE
  8
0
 10
113.836
 20
46.1984
 11
113.55
 21
46.3259
  0
LINE
  8
0
 10
113.55
 20
46.3259
 11
113.296
 21
46.5103
  0
LINE
  8
0
 10
113.296
 20
46.5103
 11
113.086
 21
46.7433
  0
LINE
  8
0
 10
113.086
 20
46.7433
 11
112.93
 21
47.0149
  0
LINE
  8
0
 10
112.93
 20
47.0149
 11
112.833
 21
47.3131
  0
LINE
  8
0
 10
112.833
 20
47.3131
 11
112.8
 21
47.625
  0
LINE
  8
0
 10
112.8
 20
47.625
 11
112.833
 21
47.9368
  0
LINE
  8
0
 10
112.833
 20
47.9368
 11
112.93
 21
48.2351
  0
LINE
  8
0
 10
112.93
 20
48.2351
 11
113.086
 21
48.5067
  0
LINE
  8
0
 10
113.086
 20
48.5067
 11
113.296
 21
48.7397
  0
LINE
  8
0
 10
113.296
 20
48.7397
 11
113.55
 21
48.924
  0
LINE
  8
0
 10
113.55
 20
48.924
 11
113.836
 21
49.0516
  0
LINE
  8
0
 10
113.836
 20
49.0516
 11
114.143
 21
49.1168
  0
LINE
  8
0
 10
114.143
 20
49.1168
 11
114.457
 21
49.1168
  0
LINE
  8
0
 10
114.457
 20
49.1168
 11
114.763
 21
49.0516
  0
LINE
  8
0
 10
114.763
 20
49.0516
 11
115.05
 21
48.924
  0
LINE
  8
0
 10
115.05
 20
48.924
 11
115.304
 21
48.7397
  0
LINE
  8
0
 10
115.304
 20
48.7397
 11
115.513
 21
48.5067
  0
LINE
  8
0
 10
115.513
 20
48.5067
 11
115.67
 21
48.2351
  0
LINE
  8
0
 10
115.67
 20
48.2351
 11
115.767
 21
47.9368
  0
LINE
  8
0
 10
115.767
 20
47.9368
 11
115.8
 21
47.625
  0
LINE
  8
0
 10
115.8
 20
47.625
 11
115.767
 21
47.3131
  0
LINE
  8
0
 10
115.767
 20
47.3131
 11
115.67
 21
47.0149
  0
LINE
  8
0
 10
115.67
 20
47.0149
 11
115.513
 21
46.7433
  0
LINE
  8
0
 10
115.513
 20
46.7433
 11
115.304
 21
46.5103
  0
LINE
  8
0
 10
115.304
 20
46.5103
 11
115.05
 21
46.3259
  0
LINE
  8
0
 10
115.05
 20
46.3259
 11
114.763
 21
46.1984
  0
LINE
  8
0
 10
114.763
 20
46.1984
 11
114.457
 21
46.1332
  0
LINE
  8
0
 10
114.457
 20
46.1332
 11
114.143
 21
46.1332
  0
LINE
  8
0
 10
95.0932
 20
46.1332
 11
94.7864
 21
46.1984
  0
LINE
  8
0
 10
94.7864
 20
46.1984
 11
94.5
 21
46.3259
  0
LINE
  8
0
 10
94.5
 20
46.3259
 11
94.2463
 21
46.5103
  0
LINE
  8
0
 10
94.2463
 20
46.5103
 11
94.0364
 21
46.7433
  0
LINE
  8
0
 10
94.0364
 20
46.7433
 11
93.8796
 21
47.0149
  0
LINE
  8
0
 10
93.8796
 20
47.0149
 11
93.7827
 21
47.3131
  0
LINE
  8
0
 10
93.7827
 20
47.3131
 11
93.75
 21
47.625
  0
LINE
  8
0
 10
93.75
 20
47.625
 11
93.7827
 21
47.9368
  0
LINE
  8
0
 10
93.7827
 20
47.9368
 11
93.8796
 21
48.2351
  0
LINE
  8
0
 10
93.8796
 20
48.2351
 11
94.0364
 21
48.5067
  0
LINE
  8
0
 10
94.0364
 20
48.5067
 11
94.2463
 21
48.7397
  0
LINE
  8
0
 10
94.2463
 20
48.7397
 11
94.5
 21
48.924
  0
LINE
  8
0
 10
94.5
 20
48.924
 11
94.7864
 21
49.0516
  0
LINE
  8
0
 10
94.7864
 20
49.0516
 11
95.0932
 21
49.1168
  0
LINE
  8
0
 10
95.0932
 20
49.1168
 11
95.4068
 21
49.1168
  0
LINE
  8
0
 10
95.4068
 20
49.1168
 11
95.7135
 21
49.0516
  0
LINE
  8
0
 10
95.7135
 20
49.0516
 11
96
 21
48.924
  0
LINE
  8
0
 10
96
 20
48.924
 11
96.2537
 21
48.7397
  0
LINE
  8
0
 10
96.2537
 20
48.7397
 11
96.4635
 21
48.5067
  0
LINE
  8
0
 10
96.4635
 20
48.5067
 11
96.6203
 21
48.2351
  0
LINE
  8
0
 10
96.6203
 20
48.2351
 11
96.7172
 21
47.9368
  0
LINE
  8
0
 10
96.7172
 20
47.9368
 11
96.75
 21
47.625
  0
LINE
  8
0
 10
96.75
 20
47.625
 11
96.7172
 21
47.3131
  0
LINE
  8
0
 10
96.7172
 20
47.3131
 11
96.6203
 21
47.0149
  0
LINE
  8
0
 10
96.6203
 20
47.0149
 11
96.4635
 21
46.7433
  0
LINE
  8
0
 10
96.4635
 20
46.7433
 11
96.2537
 21
46.5103
  0
LINE
  8
0
 10
96.2537
 20
46.5103
 11
96
 21
46.3259
  0
LINE
  8
0
 10
96
 20
46.3259
 11
95.7135
 21
46.1984
  0
LINE
  8
0
 10
95.7135
 20
46.1984
 11
95.4068
 21
46.1332
  0
LINE
  8
0
 10
95.4068
 20
46.1332
 11
95.0932
 21
46.1332
  0
LINE
  8
0
 10
76.0432
 20
46.1332
 11
75.7364
 21
46.1984
  0
LINE
  8
0
 10
75.7364
 20
46.1984
 11
75.45
 21
46.3259
  0
LINE
  8
0
 10
75.45
 20
46.3259
 11
75.1963
 21
46.5103
  0
LINE
  8
0
 10
75.1963
 20
46.5103
 11
74.9864
 21
46.7433
  0
LINE
  8
0
 10
74.9864
 20
46.7433
 11
74.8296
 21
47.0149
  0
LINE
  8
0
 10
74.8296
 20
47.0149
 11
74.7327
 21
47.3131
  0
LINE
  8
0
 10
74.7327
 20
47.3131
 11
74.7
 21
47.625
  0
LINE
  8
0
 10
74.7
 20
47.625
 11
74.7327
 21
47.9368
  0
LINE
  8
0
 10
74.7327
 20
47.9368
 11
74.8296
 21
48.2351
  0
LINE
  8
0
 10
74.8296
 20
48.2351
 11
74.9864
 21
48.5067
  0
LINE
  8
0
 10
74.9864
 20
48.5067
 11
75.1963
 21
48.7397
  0
LINE
  8
0
 10
75.1963
 20
48.7397
 11
75.45
 21
48.924
  0
LINE
  8
0
 10
75.45
 20
48.924
 11
75.7364
 21
49.0516
  0
LINE
  8
0
 10
75.7364
 20
49.0516
 11
76.0432
 21
49.1168
  0
LINE
  8
0
 10
76.0432
 20
49.1168
 11
76.3568
 21
49.1168
  0
LINE
  8
0
 10
76.3568
 20
49.1168
 11
76.6635
 21
49.0516
  0
LINE
  8
0
 10
76.6635
 20
49.0516
 11
76.95
 21
48.924
  0
LINE
  8
0
 10
76.95
 20
48.924
 11
77.2037
 21
48.7397
  0
LINE
  8
0
 10
77.2037
 20
48.7397
 11
77.4135
 21
48.5067
  0
LINE
  8
0
 10
77.4135
 20
48.5067
 11
77.5703
 21
48.2351
  0
LINE
  8
0
 10
77.5703
 20
48.2351
 11
77.6672
 21
47.9368
  0
LINE
  8
0
 10
77.6672
 20
47.9368
 11
77.7
 21
47.625
  0
LINE
  8
0
 10
77.7
 20
47.625
 11
77.6672
 21
47.3131
  0
LINE
  8
0
 10
77.6672
 20
47.3131
 11
77.5703
 21
47.0149
  0
LINE
  8
0
 10
77.5703
 20
47.0149
 11
77.4135
 21
46.7433
  0
LINE
  8
0
 10
77.4135
 20
46.7433
 11
77.2037
 21
46.5103
  0
LINE
  8
0
 10
77.2037
 20
46.5103
 11
76.95
 21
46.3259
  0
LINE
  8
0
 10
76.95
 20
46.3259
 11
76.6635
 21
46.1984
  0
LINE
  8
0
 10
76.6635
 20
46.1984
 11
76.3568
 21
46.1332
  0
LINE
  8
0
 10
76.3568
 20
46.1332
 11
76.0432
 21
46.1332
  0
LINE
  8
0
 10
56.9932
 20
46.1332
 11
56.6864
 21
46.1984
  0
LINE
  8
0
 10
56.6864
 20
46.1984
 11
56.4
 21
46.3259
  0
LINE
  8
0
 10
56.4
 20
46.3259
 11
56.1463
 21
46.5103
  0
LINE
  8
0
 10
56.1463
 20
46.5103
 11
55.9364
 21
46.7433
  0
LINE
  8
0
 10
55.9364
 20
46.7433
 11
55.7796
 21
47.0149
  0
LINE
  8
0
 10
55.7796
 20
47.0149
 11
55.6827
 21
47.3131
  0
LINE
  8
0
 10
55.6827
 20
47.3131
 11
55.65
 21
47.625
  0
LINE
  8
0
 10
55.65
 20
47.625
 11
55.6827
 21
47.9368
  0
LINE
  8
0
 10
55.6827
 20
47.9368
 11
55.7796
 21
48.2351
  0
LINE
  8
0
 10
55.7796
 20
48.2351
 11
55.9364
 21
48.5067
  0
LINE
  8
0
 10
55.9364
 20
48.5067
 11
56.1463
 21
48.7397
  0
LINE
  8
0
 10
56.1463
 20
48.7397
 11
56.4
 21
48.924
  0
LINE
  8
0
 10
56.4
 20
48.924
 11
56.6864
 21
49.0516
  0
LINE
  8
0
 10
56.6864
 20
49.0516
 11
56.9932
 21
49.1168
  0
LINE
  8
0
 10
56.9932
 20
49.1168
 11
57.3067
 21
49.1168
  0
LINE
  8
0
 10
57.3067
 20
49.1168
 11
57.6135
 21
49.0516
  0
LINE
  8
0
 10
57.6135
 20
49.0516
 11
57.9
 21
48.924
  0
LINE
  8
0
 10
57.9
 20
48.924
 11
58.1537
 21
48.7397
  0
LINE
  8
0
 10
58.1537
 20
48.7397
 11
58.3635
 21
48.5067
  0
LINE
  8
0
 10
58.3635
 20
48.5067
 11
58.5203
 21
48.2351
  0
LINE
  8
0
 10
58.5203
 20
48.2351
 11
58.6172
 21
47.9368
  0
LINE
  8
0
 10
58.6172
 20
47.9368
 11
58.65
 21
47.625
  0
LINE
  8
0
 10
58.65
 20
47.625
 11
58.6172
 21
47.3131
  0
LINE
  8
0
 10
58.6172
 20
47.3131
 11
58.5203
 21
47.0149
  0
LINE
  8
0
 10
58.5203
 20
47.0149
 11
58.3635
 21
46.7433
  0
LINE
  8
0
 10
58.3635
 20
46.7433
 11
58.1537
 21
46.5103
  0
LINE
  8
0
 10
58.1537
 20
46.5103
 11
57.9
 21
46.3259
  0
LINE
  8
0
 10
57.9
 20
46.3259
 11
57.6135
 21
46.1984
  0
LINE
  8
0
 10
57.6135
 20
46.1984
 11
57.3067
 21
46.1332
  0
LINE
  8
0
 10
57.3067
 20
46.1332
 11
56.9932
 21
46.1332
  0
LINE
  8
0
 10
193.025
 20
31.1
 11
193.025
 21
45.1
  0
LINE
  8
0
 10
193.025
 20
45.1
 11
207.025
 21
45.1
  0
LINE
  8
0
 10
207.025
 20
45.1
 11
207.025
 21
31.1
  0
LINE
  8
0
 10
207.025
 20
31.1
 11
193.025
 21
31.1
  0
LINE
  8
0
 10
212.075
 20
31.1
 11
212.075
 21
45.1
  0
LINE
  8
0
 10
212.075
 20
45.1
 11
226.075
 21
45.1
  0
LINE
  8
0
 10
226.075
 20
45.1
 11
226.075
 21
31.1
  0
LINE
  8
0
 10
226.075
 20
31.1
 11
212.075
 21
31.1
  0
LINE
  8
0
 10
78.725
 20
31.1
 11
78.725
 21
45.1
  0
LINE
  8
0
 10
78.725
 20
45.1
 11
92.725
 21
45.1
  0
LINE
  8
0
 10
92.725
 20
45.1
 11
92.725
 21
31.1
  0
LINE
  8
0
 10
92.725
 20
31.1
 11
78.725
 21
31.1
  0
LINE
  8
0
 10
302.562
 20
31.1
 11
302.562
 21
45.1
  0
LINE
  8
0
 10
302.562
 20
45.1
 11
316.562
 21
45.1
  0
LINE
  8
0
 10
316.562
 20
45.1
 11
316.562
 21
31.1
  0
LINE
  8
0
 10
316.562
 20
31.1
 11
302.562
 21
31.1
  0
LINE
  8
0
 10
24.66
 20
30.23
 11
24.66
 21
31.43
  0
LINE
  8
0
 10
24.66
 20
31.43
 11
22.835
 21
31.43
  0
LINE
  8
0
 10
22.835
 20
31.43
 11
22.835
 21
37.7
  0
LINE
  8
0
 10
22.835
 20
37.7
 11
21.96
 21
37.7
  0
LINE
  8
0
 10
21.96
 20
37.7
 11
21.96
 21
40.5
  0
LINE
  8
0
 10
21.96
 20
40.5
 11
22.835
 21
40.5
  0
LINE
  8
0
 10
22.835
 20
40.5
 11
22.835
 21
43.73
  0
LINE
  8
0
 10
22.835
 20
43.73
 11
29.485
 21
43.73
  0
LINE
  8
0
 10
29.485
 20
43.73
 11
29.485
 21
42.83
  0
LINE
  8
0
 10
29.485
 20
42.83
 11
31.1
 21
42.83
  0
LINE
  8
0
 10
31.1
 20
42.83
 11
31.1
 21
45.1
  0
LINE
  8
0
 10
31.1
 20
45.1
 11
45.1
 21
45.1
  0
LINE
  8
0
 10
45.1
 20
45.1
 11
45.1
 21
42.83
  0
LINE
  8
0
 10
45.1
 20
42.83
 11
46.715
 21
42.83
  0
LINE
  8
0
 10
46.715
 20
42.83
 11
46.715
 21
43.73
  0
LINE
  8
0
 10
46.715
 20
43.73
 11
53.365
 21
43.73
  0
LINE
  8
0
 10
53.365
 20
43.73
 11
53.365
 21
40.5
  0
LINE
  8
0
 10
53.365
 20
40.5
 11
54.24
 21
40.5
  0
LINE
  8
0
 10
54.24
 20
40.5
 11
54.24
 21
37.7
  0
LINE
  8
0
 10
54.24
 20
37.7
 11
53.365
 21
37.7
  0
LINE
  8
0
 10
53.365
 20
37.7
 11
53.365
 21
31.43
  0
LINE
  8
0
 10
53.365
 20
31.43
 11
51.54
 21
31.43
  0
LINE
  8
0
 10
51.54
 20
31.43
 11
51.54
 21
30.23
  0
LINE
  8
0
 10
51.54
 20
30.23
 11
48.54
 21
30.23
  0
LINE
  8
0
 10
48.54
 20
30.23
 11
48.54
 21
31.43
  0
LINE
  8
0
 10
48.54
 20
31.43
 11
46.715
 21
31.43
  0
LINE
  8
0
 10
46.715
 20
31.43
 11
46.715
 21
32.13
  0
LINE
  8
0
 10
46.715
 20
32.13
 11
45.1
 21
32.13
  0
LINE
  8
0
 10
45.1
 20
32.13
 11
45.1
 21
31.1
  0
LINE
  8
0
 10
45.1
 20
31.1
 11
31.1
 21
31.1
  0
LINE
  8
0
 10
31.1
 20
31.1
 11
31.1
 21
32.13
  0
LINE
  8
0
 10
31.1
 20
32.13
 11
29.485
 21
32.13
  0
LINE
  8
0
 10
29.485
 20
32.13
 11
29.485
 21
31.43
  0
LINE
  8
0
 10
29.485
 20
31.43
 11
27.66
 21
31.43
  0
LINE
  8
0
 10
27.66
 20
31.43
 11
27.66
 21
30.23
  0
LINE
  8
0
 10
27.66
 20
30.23
 11
24.66
 21
30.23
  0
LINE
  8
0
 10
154.925
 20
31.1
 11
154.925
 21
45.1
  0
LINE
  8
0
 10
154.925
 20
45.1
 11
168.925
 21
45.1
  0
LINE
  8
0
 10
168.925
 20
45.1
 11
168.925
 21
31.1
  0
LINE
  8
0
 10
168.925
 20
31.1
 11
154.925
 21
31.1
  0
LINE
  8
0
 10
97.775
 20
31.1
 11
97.775
 21
45.1
  0
LINE
  8
0
 10
97.775
 20
45.1
 11
111.775
 21
45.1
  0
LINE
  8
0
 10
111.775
 20
45.1
 11
111.775
 21
31.1
  0
LINE
  8
0
 10
111.775
 20
31.1
 11
97.775
 21
31.1
  0
LINE
  8
0
 10
59.675
 20
31.1
 11
59.675
 21
45.1
  0
LINE
  8
0
 10
59.675
 20
45.1
 11
73.675
 21
45.1
  0
LINE
  8
0
 10
73.675
 20
45.1
 11
73.675
 21
31.1
  0
LINE
  8
0
 10
73.675
 20
31.1
 11
59.675
 21
31.1
  0
LINE
  8
0
 10
231.125
 20
31.1
 11
231.125
 21
45.1
  0
LINE
  8
0
 10
231.125
 20
45.1
 11
245.125
 21
45.1
  0
LINE
  8
0
 10
245.125
 20
45.1
 11
245.125
 21
31.1
  0
LINE
  8
0
 10
245.125
 20
31.1
 11
231.125
 21
31.1
  0
LINE
  8
0
 10
116.825
 20
31.1
 11
116.825
 21
45.1
  0
LINE
  8
0
 10
116.825
 20
45.1
 11
130.825
 21
45.1
  0
LINE
  8
0
 10
130.825
 20
45.1
 11
130.825
 21
31.1
  0
LINE
  8
0
 10
130.825
 20
31.1
 11
116.825
 21
31.1
  0
LINE
  8
0
 10
135.875
 20
31.1
 11
135.875
 21
45.1
  0
LINE
  8
0
 10
135.875
 20
45.1
 11
149.875
 21
45.1
  0
LINE
  8
0
 10
149.875
 20
45.1
 11
149.875
 21
31.1
  0
LINE
  8
0
 10
149.875
 20
31.1
 11
135.875
 21
31.1
  0
LINE
  8
0
 10
173.975
 20
31.1
 11
173.975
 21
45.1
  0
LINE
  8
0
 10
173.975
 20
45.1
 11
187.975
 21
45.1
  0
LINE
  8
0
 10
187.975
 20
45.1
 11
187.975
 21
31.1
  0
LINE
  8
0
 10
187.975
 20
31.1
 11
173.975
 21
31.1
  0
LINE
  8
0
 10
283.512
 20
31.1
 11
283.512
 21
45.1
  0
LINE
  8
0
 10
283.512
 20
45.1
 11
297.512
 21
45.1
  0
LINE
  8
0
 10
297.512
 20
45.1
 11
297.512
 21
31.1
  0
LINE
  8
0
 10
297.512
 20
31.1
 11
283.512
 21
31.1
  0
LINE
  8
0
 10
257.319
 20
31.1
 11
257.319
 21
45.1
  0
LINE
  8
0
 10
257.319
 20
45.1
 11
271.319
 21
45.1
  0
LINE
  8
0
 10
271.319
 20
45.1
 11
271.319
 21
31.1
  0
LINE
  8
0
 10
271.319
 20
31.1
 11
257.319
 21
31.1
  0
LINE
  8
0
 10
323.693
 20
29.4644
 11
323.386
 21
29.5296
  0
LINE
  8
0
 10
323.386
 20
29.5296
 11
323.1
 21
29.6572
  0
LINE
  8
0
 10
323.1
 20
29.6572
 11
322.846
 21
29.8415
  0
LINE
  8
0
 10
322.846
 20
29.8415
 11
322.636
 21
30.0745
  0
LINE
  8
0
 10
322.636
 20
30.0745
 11
322.48
 21
30.3461
  0
LINE
  8
0
 10
322.48
 20
30.3461
 11
322.383
 21
30.6443
  0
LINE
  8
0
 10
322.383
 20
30.6443
 11
322.35
 21
30.9562
  0
LINE
  8
0
 10
322.35
 20
30.9562
 11
322.383
 21
31.2681
  0
LINE
  8
0
 10
322.383
 20
31.2681
 11
322.48
 21
31.5663
  0
LINE
  8
0
 10
322.48
 20
31.5663
 11
322.636
 21
31.8379
  0
LINE
  8
0
 10
322.636
 20
31.8379
 11
322.846
 21
32.0709
  0
LINE
  8
0
 10
322.846
 20
32.0709
 11
323.1
 21
32.2553
  0
LINE
  8
0
 10
323.1
 20
32.2553
 11
323.386
 21
32.3828
  0
LINE
  8
0
 10
323.386
 20
32.3828
 11
323.693
 21
32.448
  0
LINE
  8
0
 10
323.693
 20
32.448
 11
324.007
 21
32.448
  0
LINE
  8
0
 10
324.007
 20
32.448
 11
324.313
 21
32.3828
  0
LINE
  8
0
 10
324.313
 20
32.3828
 11
324.6
 21
32.2553
  0
LINE
  8
0
 10
324.6
 20
32.2553
 11
324.854
 21
32.0709
  0
LINE
  8
0
 10
324.854
 20
32.0709
 11
325.063
 21
31.8379
  0
LINE
  8
0
 10
325.063
 20
31.8379
 11
325.22
 21
31.5663
  0
LINE
  8
0
 10
325.22
 20
31.5663
 11
325.317
 21
31.2681
  0
LINE
  8
0
 10
325.317
 20
31.2681
 11
325.35
 21
30.9562
  0
LINE
  8
0
 10
325.35
 20
30.9562
 11
325.317
 21
30.6443
  0
LINE
  8
0
 10
325.317
 20
30.6443
 11
325.22
 21
30.3461
  0
LINE
  8
0
 10
325.22
 20
30.3461
 11
325.063
 21
30.0745
  0
LINE
  8
0
 10
325.063
 20
30.0745
 11
324.854
 21
29.8415
  0
LINE
  8
0
 10
324.854
 20
29.8415
 11
324.6
 21
29.6572
  0
LINE
  8
0
 10
324.6
 20
29.6572
 11
324.313
 21
29.5296
  0
LINE
  8
0
 10
324.313
 20
29.5296
 11
324.007
 21
29.4644
  0
LINE
  8
0
 10
324.007
 20
29.4644
 11
323.693
 21
29.4644
  0
LINE
  8
0
 10
299.881
 20
27.0832
 11
299.574
 21
27.1484
  0
LINE
  8
0
 10
299.574
 20
27.1484
 11
299.287
 21
27.2759
  0
LINE
  8
0
 10
299.287
 20
27.2759
 11
299.034
 21
27.4603
  0
LINE
  8
0
 10
299.034
 20
27.4603
 11
298.824
 21
27.6933
  0
LINE
  8
0
 10
298.824
 20
27.6933
 11
298.667
 21
27.9649
  0
LINE
  8
0
 10
298.667
 20
27.9649
 11
298.57
 21
28.2631
  0
LINE
  8
0
 10
298.57
 20
28.2631
 11
298.537
 21
28.575
  0
LINE
  8
0
 10
298.537
 20
28.575
 11
298.57
 21
28.8868
  0
LINE
  8
0
 10
298.57
 20
28.8868
 11
298.667
 21
29.1851
  0
LINE
  8
0
 10
298.667
 20
29.1851
 11
298.824
 21
29.4566
  0
LINE
  8
0
 10
298.824
 20
29.4566
 11
299.034
 21
29.6897
  0
LINE
  8
0
 10
299.034
 20
29.6897
 11
299.287
 21
29.874
  0
LINE
  8
0
 10
299.287
 20
29.874
 11
299.574
 21
30.0016
  0
LINE
  8
0
 10
299.574
 20
30.0016
 11
299.881
 21
30.0668
  0
LINE
  8
0
 10
299.881
 20
30.0668
 11
300.194
 21
30.0668
  0
LINE
  8
0
 10
300.194
 20
30.0668
 11
300.501
 21
30.0016
  0
LINE
  8
0
 10
300.501
 20
30.0016
 11
300.787
 21
29.874
  0
LINE
  8
0
 10
300.787
 20
29.874
 11
301.041
 21
29.6897
  0
LINE
  8
0
 10
301.041
 20
29.6897
 11
301.251
 21
29.4566
  0
LINE
  8
0
 10
301.251
 20
29.4566
 11
301.408
 21
29.1851
  0
LINE
  8
0
 10
301.408
 20
29.1851
 11
301.505
 21
28.8868
  0
LINE
  8
0
 10
301.505
 20
28.8868
 11
301.537
 21
28.575
  0
LINE
  8
0
 10
301.537
 20
28.575
 11
301.505
 21
28.2631
  0
LINE
  8
0
 10
301.505
 20
28.2631
 11
301.408
 21
27.9649
  0
LINE
  8
0
 10
301.408
 20
27.9649
 11
301.251
 21
27.6933
  0
LINE
  8
0
 10
301.251
 20
27.6933
 11
301.041
 21
27.4603
  0
LINE
  8
0
 10
301.041
 20
27.4603
 11
300.787
 21
27.2759
  0
LINE
  8
0
 10
300.787
 20
27.2759
 11
300.501
 21
27.1484
  0
LINE
  8
0
 10
300.501
 20
27.1484
 11
300.194
 21
27.0832
  0
LINE
  8
0
 10
300.194
 20
27.0832
 11
299.881
 21
27.0832
  0
LINE
  8
0
 10
280.831
 20
27.0832
 11
280.524
 21
27.1484
  0
LINE
  8
0
 10
280.524
 20
27.1484
 11
280.237
 21
27.2759
  0
LINE
  8
0
 10
280.237
 20
27.2759
 11
279.984
 21
27.4603
  0
LINE
  8
0
 10
279.984
 20
27.4603
 11
279.774
 21
27.6933
  0
LINE
  8
0
 10
279.774
 20
27.6933
 11
279.617
 21
27.9649
  0
LINE
  8
0
 10
279.617
 20
27.9649
 11
279.52
 21
28.2631
  0
LINE
  8
0
 10
279.52
 20
28.2631
 11
279.487
 21
28.575
  0
LINE
  8
0
 10
279.487
 20
28.575
 11
279.52
 21
28.8868
  0
LINE
  8
0
 10
279.52
 20
28.8868
 11
279.617
 21
29.1851
  0
LINE
  8
0
 10
279.617
 20
29.1851
 11
279.774
 21
29.4566
  0
LINE
  8
0
 10
279.774
 20
29.4566
 11
279.984
 21
29.6897
  0
LINE
  8
0
 10
279.984
 20
29.6897
 11
280.237
 21
29.874
  0
LINE
  8
0
 10
280.237
 20
29.874
 11
280.524
 21
30.0016
  0
LINE
  8
0
 10
280.524
 20
30.0016
 11
280.831
 21
30.0668
  0
LINE
  8
0
 10
280.831
 20
30.0668
 11
281.144
 21
30.0668
  0
LINE
  8
0
 10
281.144
 20
30.0668
 11
281.451
 21
30.0016
  0
LINE
  8
0
 10
281.451
 20
30.0016
 11
281.737
 21
29.874
  0
LINE
  8
0
 10
281.737
 20
29.874
 11
281.991
 21
29.6897
  0
LINE
  8
0
 10
281.991
 20
29.6897
 11
282.201
 21
29.4566
  0
LINE
  8
0
 10
282.201
 20
29.4566
 11
282.358
 21
29.1851
  0
LINE
  8
0
 10
282.358
 20
29.1851
 11
282.455
 21
28.8868
  0
LINE
  8
0
 10
282.455
 20
28.8868
 11
282.487
 21
28.575
  0
LINE
  8
0
 10
282.487
 20
28.575
 11
282.455
 21
28.2631
  0
LINE
  8
0
 10
282.455
 20
28.2631
 11
282.358
 21
27.9649
  0
LINE
  8
0
 10
282.358
 20
27.9649
 11
282.201
 21
27.6933
  0
LINE
  8
0
 10
282.201
 20
27.6933
 11
281.991
 21
27.4603
  0
LINE
  8
0
 10
281.991
 20
27.4603
 11
281.737
 21
27.2759
  0
LINE
  8
0
 10
281.737
 20
27.2759
 11
281.451
 21
27.1484
  0
LINE
  8
0
 10
281.451
 20
27.1484
 11
281.144
 21
27.0832
  0
LINE
  8
0
 10
281.144
 20
27.0832
 11
280.831
 21
27.0832
  0
LINE
  8
0
 10
261.781
 20
27.0832
 11
261.474
 21
27.1484
  0
LINE
  8
0
 10
261.474
 20
27.1484
 11
261.187
 21
27.2759
  0
LINE
  8
0
 10
261.187
 20
27.2759
 11
260.934
 21
27.4603
  0
LINE
  8
0
 10
260.934
 20
27.4603
 11
260.724
 21
27.6933
  0
LINE
  8
0
 10
260.724
 20
27.6933
 11
260.567
 21
27.9649
  0
LINE
  8
0
 10
260.567
 20
27.9649
 11
260.47
 21
28.2631
  0
LINE
  8
0
 10
260.47
 20
28.2631
 11
260.437
 21
28.575
  0
LINE
  8
0
 10
260.437
 20
28.575
 11
260.47
 21
28.8868
  0
LINE
  8
0
 10
260.47
 20
28.8868
 11
260.567
 21
29.1851
  0
LINE
  8
0
 10
260.567
 20
29.1851
 11
260.724
 21
29.4566
  0
LINE
  8
0
 10
260.724
 20
29.4566
 11
260.934
 21
29.6897
  0
LINE
  8
0
 10
260.934
 20
29.6897
 11
261.187
 21
29.874
  0
LINE
  8
0
 10
261.187
 20
29.874
 11
261.474
 21
30.0016
  0
LINE
  8
0
 10
261.474
 20
30.0016
 11
261.781
 21
30.0668
  0
LINE
  8
0
 10
261.781
 20
30.0668
 11
262.094
 21
30.0668
  0
LINE
  8
0
 10
262.094
 20
30.0668
 11
262.401
 21
30.0016
  0
LINE
  8
0
 10
262.401
 20
30.0016
 11
262.687
 21
29.874
  0
LINE
  8
0
 10
262.687
 20
29.874
 11
262.941
 21
29.6897
  0
LINE
  8
0
 10
262.941
 20
29.6897
 11
263.151
 21
29.4566
  0
LINE
  8
0
 10
263.151
 20
29.4566
 11
263.308
 21
29.1851
  0
LINE
  8
0
 10
263.308
 20
29.1851
 11
263.405
 21
28.8868
  0
LINE
  8
0
 10
263.405
 20
28.8868
 11
263.437
 21
28.575
  0
LINE
  8
0
 10
263.437
 20
28.575
 11
263.405
 21
28.2631
  0
LINE
  8
0
 10
263.405
 20
28.2631
 11
263.308
 21
27.9649
  0
LINE
  8
0
 10
263.308
 20
27.9649
 11
263.151
 21
27.6933
  0
LINE
  8
0
 10
263.151
 20
27.6933
 11
262.941
 21
27.4603
  0
LINE
  8
0
 10
262.941
 20
27.4603
 11
262.687
 21
27.2759
  0
LINE
  8
0
 10
262.687
 20
27.2759
 11
262.401
 21
27.1484
  0
LINE
  8
0
 10
262.401
 20
27.1484
 11
262.094
 21
27.0832
  0
LINE
  8
0
 10
262.094
 20
27.0832
 11
261.781
 21
27.0832
  0
LINE
  8
0
 10
99.8557
 20
27.0832
 11
99.5489
 21
27.1484
  0
LINE
  8
0
 10
99.5489
 20
27.1484
 11
99.2625
 21
27.2759
  0
LINE
  8
0
 10
99.2625
 20
27.2759
 11
99.0088
 21
27.4603
  0
LINE
  8
0
 10
99.0088
 20
27.4603
 11
98.7989
 21
27.6933
  0
LINE
  8
0
 10
98.7989
 20
27.6933
 11
98.6421
 21
27.9649
  0
LINE
  8
0
 10
98.6421
 20
27.9649
 11
98.5452
 21
28.2631
  0
LINE
  8
0
 10
98.5452
 20
28.2631
 11
98.5125
 21
28.575
  0
LINE
  8
0
 10
98.5125
 20
28.575
 11
98.5452
 21
28.8868
  0
LINE
  8
0
 10
98.5452
 20
28.8868
 11
98.6421
 21
29.1851
  0
LINE
  8
0
 10
98.6421
 20
29.1851
 11
98.7989
 21
29.4566
  0
LINE
  8
0
 10
98.7989
 20
29.4566
 11
99.0088
 21
29.6897
  0
LINE
  8
0
 10
99.0088
 20
29.6897
 11
99.2625
 21
29.874
  0
LINE
  8
0
 10
99.2625
 20
29.874
 11
99.5489
 21
30.0016
  0
LINE
  8
0
 10
99.5489
 20
30.0016
 11
99.8557
 21
30.0668
  0
LINE
  8
0
 10
99.8557
 20
30.0668
 11
100.169
 21
30.0668
  0
LINE
  8
0
 10
100.169
 20
30.0668
 11
100.476
 21
30.0016
  0
LINE
  8
0
 10
100.476
 20
30.0016
 11
100.762
 21
29.874
  0
LINE
  8
0
 10
100.762
 20
29.874
 11
101.016
 21
29.6897
  0
LINE
  8
0
 10
101.016
 20
29.6897
 11
101.226
 21
29.4566
  0
LINE
  8
0
 10
101.226
 20
29.4566
 11
101.383
 21
29.1851
  0
LINE
  8
0
 10
101.383
 20
29.1851
 11
101.48
 21
28.8868
  0
LINE
  8
0
 10
101.48
 20
28.8868
 11
101.512
 21
28.575
  0
LINE
  8
0
 10
101.512
 20
28.575
 11
101.48
 21
28.2631
  0
LINE
  8
0
 10
101.48
 20
28.2631
 11
101.383
 21
27.9649
  0
LINE
  8
0
 10
101.383
 20
27.9649
 11
101.226
 21
27.6933
  0
LINE
  8
0
 10
101.226
 20
27.6933
 11
101.016
 21
27.4603
  0
LINE
  8
0
 10
101.016
 20
27.4603
 11
100.762
 21
27.2759
  0
LINE
  8
0
 10
100.762
 20
27.2759
 11
100.476
 21
27.1484
  0
LINE
  8
0
 10
100.476
 20
27.1484
 11
100.169
 21
27.0832
  0
LINE
  8
0
 10
100.169
 20
27.0832
 11
99.8557
 21
27.0832
  0
LINE
  8
0
 10
328.756
 20
14.4312
 11
328.756
 21
28.4312
  0
LINE
  8
0
 10
328.756
 20
28.4312
 11
342.756
 21
28.4312
  0
LINE
  8
0
 10
342.756
 20
28.4312
 11
342.756
 21
14.4312
  0
LINE
  8
0
 10
342.756
 20
14.4312
 11
328.756
 21
14.4312
  0
LINE
  8
0
 10
108.044
 20
11.18
 11
108.044
 21
12.38
  0
LINE
  8
0
 10
108.044
 20
12.38
 11
106.219
 21
12.38
  0
LINE
  8
0
 10
106.219
 20
12.38
 11
106.219
 21
18.65
  0
LINE
  8
0
 10
106.219
 20
18.65
 11
105.344
 21
18.65
  0
LINE
  8
0
 10
105.344
 20
18.65
 11
105.344
 21
21.45
  0
LINE
  8
0
 10
105.344
 20
21.45
 11
106.219
 21
21.45
  0
LINE
  8
0
 10
106.219
 20
21.45
 11
106.219
 21
24.68
  0
LINE
  8
0
 10
106.219
 20
24.68
 11
112.869
 21
24.68
  0
LINE
  8
0
 10
112.869
 20
24.68
 11
112.869
 21
21.35
  0
LINE
  8
0
 10
112.869
 20
21.35
 11
152.544
 21
21.35
  0
LINE
  8
0
 10
152.544
 20
21.35
 11
152.544
 21
26.05
  0
LINE
  8
0
 10
152.544
 20
26.05
 11
166.544
 21
26.05
  0
LINE
  8
0
 10
166.544
 20
26.05
 11
166.544
 21
21.35
  0
LINE
  8
0
 10
166.544
 20
21.35
 11
206.219
 21
21.35
  0
LINE
  8
0
 10
206.219
 20
21.35
 11
206.219
 21
24.68
  0
LINE
  8
0
 10
206.219
 20
24.68
 11
212.869
 21
24.68
  0
LINE
  8
0
 10
212.869
 20
24.68
 11
212.869
 21
21.45
  0
LINE
  8
0
 10
212.869
 20
21.45
 11
213.744
 21
21.45
  0
LINE
  8
0
 10
213.744
 20
21.45
 11
213.744
 21
18.65
  0
LINE
  8
0
 10
213.744
 20
18.65
 11
212.869
 21
18.65
  0
LINE
  8
0
 10
212.869
 20
18.65
 11
212.869
 21
12.38
  0
LINE
  8
0
 10
212.869
 20
12.38
 11
211.044
 21
12.38
  0
LINE
  8
0
 10
211.044
 20
12.38
 11
211.044
 21
11.18
  0
LINE
  8
0
 10
211.044
 20
11.18
 11
208.044
 21
11.18
  0
LINE
  8
0
 10
208.044
 20
11.18
 11
208.044
 21
12.38
  0
LINE
  8
0
 10
208.044
 20
12.38
 11
206.219
 21
12.38
  0
LINE
  8
0
 10
206.219
 20
12.38
 11
206.219
 21
16.75
  0
LINE
  8
0
 10
206.219
 20
16.75
 11
166.544
 21
16.75
  0
LINE
  8
0
 10
166.544
 20
16.75
 11
166.544
 21
12.05
  0
LINE
  8
0
 10
166.544
 20
12.05
 11
152.544
 21
12.05
  0
LINE
  8
0
 10
152.544
 20
12.05
 11
152.544
 21
16.75
  0
LINE
  8
0
 10
152.544
 20
16.75
 11
112.869
 21
16.75
  0
LINE
  8
0
 10
112.869
 20
16.75
 11
112.869
 21
12.38
  0
LINE
  8
0
 10
112.869
 20
12.38
 11
111.044
 21
12.38
  0
LINE
  8
0
 10
111.044
 20
12.38
 11
111.044
 21
11.18
  0
LINE
  8
0
 10
111.044
 20
11.18
 11
108.044
 21
11.18
  0
LINE
  8
0
 10
302.562
 20
12.05
 11
302.562
 21
26.05
  0
LINE
  8
0
 10
302.562
 20
26.05
 11
316.562
 21
26.05
  0
LINE
  8
0
 10
316.562
 20
26.05
 11
316.562
 21
12.05
  0
LINE
  8
0
 10
316.562
 20
12.05
 11
302.562
 21
12.05
  0
LINE
  8
0
 10
50.15
 20
12.05
 11
50.15
 21
26.05
  0
LINE
  8
0
 10
50.15
 20
26.05
 11
64.15
 21
26.05
  0
LINE
  8
0
 10
64.15
 20
26.05
 11
64.15
 21
12.05
  0
LINE
  8
0
 10
64.15
 20
12.05
 11
50.15
 21
12.05
  0
LINE
  8
0
 10
264.462
 20
12.05
 11
264.462
 21
26.05
  0
LINE
  8
0
 10
264.462
 20
26.05
 11
278.462
 21
26.05
  0
LINE
  8
0
 10
278.462
 20
26.05
 11
278.462
 21
12.05
  0
LINE
  8
0
 10
278.462
 20
12.05
 11
264.462
 21
12.05
  0
LINE
  8
0
 10
283.512
 20
12.05
 11
283.512
 21
26.05
  0
LINE
  8
0
 10
283.512
 20
26.05
 11
297.512
 21
26.05
  0
LINE
  8
0
 10
297.512
 20
26.05
 11
297.512
 21
12.05
  0
LINE
  8
0
 10
297.512
 20
12.05
 11
283.512
 21
12.05
  0
LINE
  8
0
 10
4.73863
 20
2.51367
 11
4.22742
 21
2.62233
  0
LINE
  8
0
 10
4.22742
 20
2.62233
 11
3.74995
 21
2.8349
  0
LINE
  8
0
 10
3.74995
 20
2.8349
 11
3.32713
 21
3.14211
  0
LINE
  8
0
 10
3.32713
 20
3.14211
 11
2.97742
 21
3.5305
  0
LINE
  8
0
 10
2.97742
 20
3.5305
 11
2.71609
 21
3.98312
  0
LINE
  8
0
 10
2.71609
 20
3.98312
 11
2.5546
 21
4.48019
  0
LINE
  8
0
 10
2.5546
 20
4.48019
 11
2.49995
 21
4.99997
  0
LINE
  8
0
 10
2.49995
 20
4.99997
 11
2.5546
 21
5.51974
  0
LINE
  8
0
 10
2.5546
 20
5.51974
 11
2.71609
 21
6.01682
  0
LINE
  8
0
 10
2.71609
 20
6.01682
 11
2.97742
 21
6.46944
  0
LINE
  8
0
 10
2.97742
 20
6.46944
 11
3.32713
 21
6.85783
  0
LINE
  8
0
 10
3.32713
 20
6.85783
 11
3.74995
 21
7.16504
  0
LINE
  8
0
 10
3.74995
 20
7.16504
 11
4.22742
 21
7.37761
  0
LINE
  8
0
 10
4.22742
 20
7.37761
 11
4.73863
 21
7.48628
  0
LINE
  8
0
 10
4.73863
 20
7.48628
 11
5.26128
 21
7.48628
  0
LINE
  8
0
 10
5.26128
 20
7.48628
 11
5.77251
 21
7.37761
  0
LINE
  8
0
 10
5.77251
 20
7.37761
 11
6.24995
 21
7.16504
  0
LINE
  8
0
 10
6.24995
 20
7.16504
 11
6.67279
 21
6.85783
  0
LINE
  8
0
 10
6.67279
 20
6.85783
 11
7.02251
 21
6.46944
  0
LINE
  8
0
 10
7.02251
 20
6.46944
 11
7.28383
 21
6.01682
  0
LINE
  8
0
 10
7.28383
 20
6.01682
 11
7.44533
 21
5.51974
  0
LINE
  8
0
 10
7.44533
 20
5.51974
 11
7.49995
 21
4.99997
  0
LINE
  8
0
 10
7.49995
 20
4.99997
 11
7.44533
 21
4.48019
  0
LINE
  8
0
 10
7.44533
 20
4.48019
 11
7.28383
 21
3.98312
  0
LINE
  8
0
 10
7.28383
 20
3.98312
 11
7.02251
 21
3.5305
  0
LINE
  8
0
 10
7.02251
 20
3.5305
 11
6.67279
 21
3.14211
  0
LINE
  8
0
 10
6.67279
 20
3.14211
 11
6.24995
 21
2.8349
  0
LINE
  8
0
 10
6.24995
 20
2.8349
 11
5.77251
 21
2.62233
  0
LINE
  8
0
 10
5.77251
 20
2.62233
 11
5.26128
 21
2.51367
  0
LINE
  8
0
 10
5.26128
 20
2.51367
 11
4.73863
 21
2.51367
  0
LINE
  8
0
 10
351.926
 20
2.51367
 11
351.415
 21
2.62233
  0
LINE
  8
0
 10
351.415
 20
2.62233
 11
350.937
 21
2.8349
  0
LINE
  8
0
 10
350.937
 20
2.8349
 11
350.515
 21
3.14211
  0
LINE
  8
0
 10
350.515
 20
3.14211
 11
350.165
 21
3.5305
  0
LINE
  8
0
 10
350.165
 20
3.5305
 11
349.904
 21
3.98312
  0
LINE
  8
0
 10
349.904
 20
3.98312
 11
349.742
 21
4.48019
  0
LINE
  8
0
 10
349.742
 20
4.48019
 11
349.687
 21
4.99997
  0
LINE
  8
0
 10
349.687
 20
4.99997
 11
349.742
 21
5.51974
  0
LINE
  8
0
 10
349.742
 20
5.51974
 11
349.904
 21
6.01682
  0
LINE
  8
0
 10
349.904
 20
6.01682
 11
350.165
 21
6.46944
  0
LINE
  8
0
 10
350.165
 20
6.46944
 11
350.515
 21
6.85783
  0
LINE
  8
0
 10
350.515
 20
6.85783
 11
350.937
 21
7.16504
  0
LINE
  8
0
 10
350.937
 20
7.16504
 11
351.415
 21
7.37761
  0
LINE
  8
0
 10
351.415
 20
7.37761
 11
351.926
 21
7.48628
  0
LINE
  8
0
 10
351.926
 20
7.48628
 11
352.449
 21
7.48628
  0
LINE
  8
0
 10
352.449
 20
7.48628
 11
352.96
 21
7.37761
  0
LINE
  8
0
 10
352.96
 20
7.37761
 11
353.437
 21
7.16504
  0
LINE
  8
0
 10
353.437
 20
7.16504
 11
353.86
 21
6.85783
  0
LINE
  8
0
 10
353.86
 20
6.85783
 11
354.21
 21
6.46944
  0
LINE
  8
0
 10
354.21
 20
6.46944
 11
354.471
 21
6.01682
  0
LINE
  8
0
 10
354.471
 20
6.01682
 11
354.633
 21
5.51974
  0
LINE
  8
0
 10
354.633
 20
5.51974
 11
354.687
 21
4.99997
  0
LINE
  8
0
 10
354.687
 20
4.99997
 11
354.633
 21
4.48019
  0
LINE
  8
0
 10
354.633
 20
4.48019
 11
354.471
 21
3.98312
  0
LINE
  8
0
 10
354.471
 20
3.98312
 11
354.21
 21
3.5305
  0
LINE
  8
0
 10
354.21
 20
3.5305
 11
353.86
 21
3.14211
  0
LINE
  8
0
 10
353.86
 20
3.14211
 11
353.437
 21
2.8349
  0
LINE
  8
0
 10
353.437
 20
2.8349
 11
352.96
 21
2.62233
  0
LINE
  8
0
 10
352.96
 20
2.62233
 11
352.449
 21
2.51367
  0
LINE
  8
0
 10
352.449
 20
2.51367
 11
351.926
 21
2.51367
  0
ENDSEC
  0
SECTION
  2
OBJECTS
  0
DICTIONARY
  0
ENDSEC
  0
EOF
