%TF.GenerationSoftware,KiCad,Pcbnew,7.0.10*%
%TF.CreationDate,2024-01-05T01:58:32-05:00*%
%TF.ProjectId,plate,706c6174-652e-46b6-9963-61645f706362,rev?*%
%TF.SameCoordinates,Original*%
%TF.FileFunction,Profile,NP*%
%FSLAX46Y46*%
G04 Gerber Fmt 4.6, Leading zero omitted, Abs format (unit mm)*
G04 Created by KiCad (PCBNEW 7.0.10) date 2024-01-05 01:58:32*
%MOMM*%
%LPD*%
G01*
G04 APERTURE LIST*
%TA.AperFunction,Profile*%
%ADD10C,0.200000*%
%TD*%
G04 APERTURE END LIST*
D10*
X-30480000Y-104994000D02*
X326708000Y-104994000D01*
X197020000Y35500000D02*
X197020000Y0D01*
X-2820000Y-73564000D02*
X-2820000Y-74764000D01*
X162257000Y-35794000D02*
X148257000Y-35794000D01*
X-7645000Y-64494000D02*
X-7645000Y-61264000D01*
X48245000Y-59894000D02*
X62245000Y-59894000D01*
X-11286300Y-21794000D02*
X2713700Y-21794000D01*
X24432500Y-2744000D02*
X38432500Y-2744000D01*
X175739000Y-83644000D02*
X175739000Y-80314000D01*
X298276000Y-42937800D02*
X298276000Y-28937800D01*
X182389000Y-86344000D02*
X182389000Y-92614000D01*
X272082000Y-73894000D02*
X272082000Y-59894000D01*
X247982000Y-16744000D02*
X233982000Y-16744000D01*
X272082000Y-59894000D02*
X286082000Y-59894000D01*
X129207000Y-21794000D02*
X143207000Y-21794000D01*
X19670000Y-78944000D02*
X33670000Y-78944000D01*
X-2048800Y-2744000D02*
X-2048800Y-16744000D01*
X-7645000Y-67294000D02*
X-8520000Y-67294000D01*
X181307000Y-21794000D02*
X181307000Y-35794000D01*
X124157000Y-21794000D02*
X124157000Y-35794000D01*
X16235000Y-62164000D02*
X16235000Y-61264000D01*
X247982000Y-2744000D02*
X247982000Y-16744000D01*
X247982000Y-92944000D02*
X233982000Y-92944000D01*
X19670000Y-40844000D02*
X33670000Y-40844000D01*
X172070000Y-54844000D02*
X172070000Y-40844000D01*
X23760000Y-64494000D02*
X23760000Y-67294000D01*
X-15345000Y-55714000D02*
X-15345000Y-54514000D01*
X298276000Y-90562800D02*
X298276000Y-76562800D01*
X28907500Y-35794000D02*
X14907500Y-35794000D01*
X298276000Y-52750300D02*
X312276000Y-52750300D01*
X-16048800Y-16744000D02*
X-16048800Y-2744000D01*
X312276000Y-42937800D02*
X298276000Y-42937800D01*
X57770000Y-54844000D02*
X57770000Y-40844000D01*
X286082000Y-73894000D02*
X272082000Y-73894000D01*
X91107000Y-35794000D02*
X91107000Y-21794000D01*
X13360000Y-48244000D02*
X13360000Y-54514000D01*
X8535000Y-54514000D02*
X6710000Y-54514000D01*
X74864000Y-86344000D02*
X74864000Y-83544000D01*
X298276000Y-76562800D02*
X312276000Y-76562800D01*
X29195000Y-59894000D02*
X43195000Y-59894000D01*
X312276000Y23450000D02*
X312276000Y9450000D01*
X-30480000Y0D02*
X-30480000Y-104994000D01*
X53007500Y-21794000D02*
X67007500Y-21794000D01*
X200645000Y-73894000D02*
X200645000Y-59894000D01*
X52720000Y-40844000D02*
X52720000Y-54844000D01*
X77564000Y-93814000D02*
X77564000Y-92614000D01*
X203026000Y9450000D02*
X203026000Y23450000D01*
X72057000Y-21794000D02*
X86057000Y-21794000D01*
X-8905000Y-54844000D02*
X-8905000Y-53814000D01*
X229220000Y-40844000D02*
X243220000Y-40844000D01*
X76820000Y-54844000D02*
X76820000Y-40844000D01*
X86345000Y-73894000D02*
X86345000Y-59894000D01*
X148257000Y-21794000D02*
X162257000Y-21794000D01*
X181595000Y-73894000D02*
X181595000Y-59894000D01*
X74864000Y-83544000D02*
X75739000Y-83544000D01*
X38432500Y-16744000D02*
X24432500Y-16744000D01*
X262270000Y-35794000D02*
X248270000Y-35794000D01*
X14620000Y-62164000D02*
X16235000Y-62164000D01*
X195882000Y-16744000D02*
X195882000Y-2744000D01*
X19670000Y-92944000D02*
X19670000Y-78944000D01*
X80564000Y-92614000D02*
X80564000Y-93814000D01*
X177564000Y-93814000D02*
X177564000Y-92614000D01*
X210170000Y-54844000D02*
X210170000Y-40844000D01*
X167307000Y-21794000D02*
X181307000Y-21794000D01*
X138445000Y-59894000D02*
X138445000Y-73894000D01*
X57770000Y-40844000D02*
X71770000Y-40844000D01*
X129207000Y-35794000D02*
X129207000Y-21794000D01*
X81295000Y-59894000D02*
X81295000Y-73894000D01*
X-7645000Y-61264000D02*
X-995000Y-61264000D01*
X5095000Y-53814000D02*
X5095000Y-54844000D01*
X-12345000Y-54514000D02*
X-12345000Y-55714000D01*
X114920000Y-40844000D02*
X128920000Y-40844000D01*
X22885000Y-61264000D02*
X22885000Y-64494000D01*
X122064000Y-83644000D02*
X122064000Y-78944000D01*
X298276000Y-66750300D02*
X298276000Y-52750300D01*
X14620000Y-59894000D02*
X14620000Y-62164000D01*
X162545000Y-59894000D02*
X176545000Y-59894000D01*
X620000Y-59894000D02*
X14620000Y-59894000D01*
X219407000Y-21794000D02*
X219407000Y-35794000D01*
X-8905000Y-43114000D02*
X-8905000Y-40844000D01*
X620000Y-72864000D02*
X-995000Y-72864000D01*
X217026000Y23450000D02*
X217026000Y9450000D01*
X191120000Y-40844000D02*
X205120000Y-40844000D01*
X298276000Y-5125300D02*
X312276000Y-5125300D01*
X312276000Y-76562800D02*
X312276000Y-90562800D01*
X-10520000Y-42214000D02*
X-10520000Y-43114000D01*
X326708000Y-104994000D02*
X326708000Y35500000D01*
X175739000Y-80314000D02*
X182389000Y-80314000D01*
X243220000Y-54844000D02*
X229220000Y-54844000D01*
X183264000Y-83544000D02*
X183264000Y-86344000D01*
X109870000Y-54844000D02*
X95870000Y-54844000D01*
X-995000Y-61264000D02*
X-995000Y-62164000D01*
X153020000Y-40844000D02*
X167020000Y-40844000D01*
X136064000Y-88244000D02*
X136064000Y-92944000D01*
X62245000Y-59894000D02*
X62245000Y-73894000D01*
X21060000Y-74764000D02*
X18060000Y-74764000D01*
X124445000Y-73894000D02*
X124445000Y-59894000D01*
X264651000Y9450000D02*
X250651000Y9450000D01*
X86345000Y-59894000D02*
X100345000Y-59894000D01*
X110157000Y-35794000D02*
X110157000Y-21794000D01*
X43482500Y-16744000D02*
X43482500Y-2744000D01*
X-17170000Y-45444000D02*
X-17170000Y-42214000D01*
X122064000Y-88244000D02*
X82389000Y-88244000D01*
X253032000Y-78944000D02*
X267032000Y-78944000D01*
X2713700Y-35794000D02*
X-11286300Y-35794000D01*
X11535000Y-55714000D02*
X8535000Y-55714000D01*
X5095000Y-40844000D02*
X5095000Y-43114000D01*
X33670000Y-54844000D02*
X19670000Y-54844000D01*
X19382500Y-2744000D02*
X19382500Y-16744000D01*
X226839000Y-73894000D02*
X226839000Y-59894000D01*
X224170000Y-54844000D02*
X210170000Y-54844000D01*
X38432500Y-2744000D02*
X38432500Y-16744000D01*
X200357000Y-21794000D02*
X200357000Y-35794000D01*
X181307000Y-35794000D02*
X167307000Y-35794000D01*
X-17170000Y-54514000D02*
X-17170000Y-48244000D01*
X-5820000Y-73564000D02*
X-7645000Y-73564000D01*
X147970000Y-54844000D02*
X133970000Y-54844000D01*
X214932000Y-16744000D02*
X214932000Y-2744000D01*
X105107000Y-21794000D02*
X105107000Y-35794000D01*
X43482500Y-2744000D02*
X57482500Y-2744000D01*
X312276000Y-66750300D02*
X298276000Y-66750300D01*
X67295000Y-59894000D02*
X81295000Y-59894000D01*
X33670000Y-78944000D02*
X33670000Y-92944000D01*
X143495000Y-59894000D02*
X157495000Y-59894000D01*
X133682000Y-16744000D02*
X119682000Y-16744000D01*
X233982000Y-78944000D02*
X247982000Y-78944000D01*
X67007500Y-21794000D02*
X67007500Y-35794000D01*
X136064000Y-78944000D02*
X136064000Y-83644000D01*
X620000Y-62164000D02*
X620000Y-59894000D01*
X182389000Y-80314000D02*
X182389000Y-83544000D01*
X14620000Y-73894000D02*
X620000Y-73894000D01*
X76532000Y-2744000D02*
X76532000Y-16744000D01*
X6710000Y-53814000D02*
X5095000Y-53814000D01*
X43195000Y-59894000D02*
X43195000Y-73894000D01*
X229220000Y-54844000D02*
X229220000Y-40844000D01*
X82389000Y-92614000D02*
X80564000Y-92614000D01*
X186357000Y-35794000D02*
X186357000Y-21794000D01*
X186357000Y-21794000D02*
X200357000Y-21794000D01*
X24432500Y-16744000D02*
X24432500Y-2744000D01*
X180564000Y-92614000D02*
X180564000Y-93814000D01*
X77564000Y-92614000D02*
X75739000Y-92614000D01*
X233982000Y-92944000D02*
X233982000Y-78944000D01*
X200645000Y-59894000D02*
X214645000Y-59894000D01*
X247982000Y-78944000D02*
X247982000Y-92944000D01*
X138732000Y-2744000D02*
X152732000Y-2744000D01*
X33670000Y-92944000D02*
X19670000Y-92944000D01*
X86057000Y-35794000D02*
X72057000Y-35794000D01*
X95582000Y-16744000D02*
X81582000Y-16744000D01*
X13360000Y-42214000D02*
X13360000Y-45444000D01*
X240839000Y9450000D02*
X226839000Y9450000D01*
X-10520000Y-53814000D02*
X-10520000Y-54514000D01*
X62532500Y-2744000D02*
X76532000Y-2744000D01*
X109870000Y-40844000D02*
X109870000Y-54844000D01*
X138445000Y-73894000D02*
X124445000Y-73894000D01*
X-7645000Y-73564000D02*
X-7645000Y-67294000D01*
X162545000Y-73894000D02*
X162545000Y-59894000D01*
X14620000Y-72864000D02*
X14620000Y-73894000D01*
X298276000Y23450000D02*
X312276000Y23450000D01*
X190832000Y-2744000D02*
X190832000Y-16744000D01*
X182389000Y-92614000D02*
X180564000Y-92614000D01*
X224457000Y-35794000D02*
X224457000Y-21794000D01*
X8535000Y-55714000D02*
X8535000Y-54514000D01*
X33957500Y-35794000D02*
X33957500Y-21794000D01*
X143207000Y-21794000D02*
X143207000Y-35794000D01*
X136064000Y-83644000D02*
X175739000Y-83644000D01*
X38720000Y-54844000D02*
X38720000Y-40844000D01*
X18060000Y-74764000D02*
X18060000Y-73564000D01*
X-2820000Y-74764000D02*
X-5820000Y-74764000D01*
X312276000Y-19125300D02*
X298276000Y-19125300D01*
X6710000Y-42214000D02*
X13360000Y-42214000D01*
X226839000Y23450000D02*
X240839000Y23450000D01*
X175739000Y-88244000D02*
X136064000Y-88244000D01*
X114632000Y-2744000D02*
X114632000Y-16744000D01*
X326708000Y35500000D02*
X197020000Y35500000D01*
X13360000Y-54514000D02*
X11535000Y-54514000D01*
X267032000Y-78944000D02*
X267032000Y-92944000D01*
X209882000Y-2744000D02*
X209882000Y-16744000D01*
X298276000Y9450000D02*
X298276000Y23450000D01*
X148257000Y-35794000D02*
X148257000Y-21794000D01*
X152732000Y-16744000D02*
X138732000Y-16744000D01*
X138732000Y-16744000D02*
X138732000Y-2744000D01*
X75739000Y-80314000D02*
X82389000Y-80314000D01*
X22885000Y-73564000D02*
X21060000Y-73564000D01*
X312276000Y-28937800D02*
X312276000Y-42937800D01*
X5382500Y-16744000D02*
X5382500Y-2744000D01*
X217026000Y9450000D02*
X203026000Y9450000D01*
X82389000Y-83644000D02*
X122064000Y-83644000D01*
X19670000Y-54844000D02*
X19670000Y-40844000D01*
X91107000Y-21794000D02*
X105107000Y-21794000D01*
X14235000Y-48244000D02*
X13360000Y-48244000D01*
X171782000Y-16744000D02*
X157782000Y-16744000D01*
X48245000Y-73894000D02*
X48245000Y-59894000D01*
X312276000Y-5125300D02*
X312276000Y-19125300D01*
X157495000Y-59894000D02*
X157495000Y-73894000D01*
X-15345000Y-54514000D02*
X-17170000Y-54514000D01*
X253032000Y-2744000D02*
X267032000Y-2744000D01*
X6710000Y-43114000D02*
X6710000Y-42214000D01*
X-17170000Y-48244000D02*
X-18045000Y-48244000D01*
X253032000Y-59894000D02*
X267032000Y-59894000D01*
X18060000Y-73564000D02*
X16235000Y-73564000D01*
X205120000Y-54844000D02*
X191120000Y-54844000D01*
X240839000Y23450000D02*
X240839000Y9450000D01*
X19382500Y-16744000D02*
X5382500Y-16744000D01*
X298276000Y-19125300D02*
X298276000Y-5125300D01*
X312276000Y-52750300D02*
X312276000Y-66750300D01*
X176832000Y-2744000D02*
X190832000Y-2744000D01*
X71770000Y-54844000D02*
X57770000Y-54844000D01*
X203026000Y23450000D02*
X217026000Y23450000D01*
X33957500Y-21794000D02*
X47957500Y-21794000D01*
X147970000Y-40844000D02*
X147970000Y-54844000D01*
X100632000Y-2744000D02*
X114632000Y-2744000D01*
X186070000Y-40844000D02*
X186070000Y-54844000D01*
X22885000Y-64494000D02*
X23760000Y-64494000D01*
X264651000Y-54844000D02*
X250651000Y-54844000D01*
X133970000Y-54844000D02*
X133970000Y-40844000D01*
X240839000Y-59894000D02*
X240839000Y-73894000D01*
X250651000Y-40844000D02*
X264651000Y-40844000D01*
X124445000Y-59894000D02*
X138445000Y-59894000D01*
X28907500Y-21794000D02*
X28907500Y-35794000D01*
X-12345000Y-55714000D02*
X-15345000Y-55714000D01*
X124157000Y-35794000D02*
X110157000Y-35794000D01*
X233982000Y-16744000D02*
X233982000Y-2744000D01*
X122064000Y-78944000D02*
X136064000Y-78944000D01*
X238457000Y-35794000D02*
X224457000Y-35794000D01*
X228932000Y-2744000D02*
X228932000Y-16744000D01*
X62532500Y-16744000D02*
X62532500Y-2744000D01*
X76532000Y-16744000D02*
X62532500Y-16744000D01*
X286082000Y-59894000D02*
X286082000Y-73894000D01*
X100345000Y-73894000D02*
X86345000Y-73894000D01*
X176545000Y-59894000D02*
X176545000Y-73894000D01*
X2713700Y-21794000D02*
X2713700Y-35794000D01*
X214645000Y-59894000D02*
X214645000Y-73894000D01*
X21060000Y-73564000D02*
X21060000Y-74764000D01*
X119682000Y-16744000D02*
X119682000Y-2744000D01*
X226839000Y-59894000D02*
X240839000Y-59894000D01*
X200357000Y-35794000D02*
X186357000Y-35794000D01*
X312276000Y9450000D02*
X298276000Y9450000D01*
X248270000Y-21794000D02*
X262270000Y-21794000D01*
X13360000Y-45444000D02*
X14235000Y-45444000D01*
X175739000Y-92614000D02*
X175739000Y-88244000D01*
X262270000Y-21794000D02*
X262270000Y-35794000D01*
X81582000Y-2744000D02*
X95582000Y-2744000D01*
X157782000Y-16744000D02*
X157782000Y-2744000D01*
X47957500Y-21794000D02*
X47957500Y-35794000D01*
X57482500Y-16744000D02*
X43482500Y-16744000D01*
X210170000Y-40844000D02*
X224170000Y-40844000D01*
X167020000Y-54844000D02*
X153020000Y-54844000D01*
X75739000Y-83544000D02*
X75739000Y-80314000D01*
X181595000Y-59894000D02*
X195595000Y-59894000D01*
X-18045000Y-48244000D02*
X-18045000Y-45444000D01*
X119395000Y-73894000D02*
X105395000Y-73894000D01*
X62245000Y-73894000D02*
X48245000Y-73894000D01*
X81582000Y-16744000D02*
X81582000Y-2744000D01*
X110157000Y-21794000D02*
X124157000Y-21794000D01*
X136064000Y-92944000D02*
X122064000Y-92944000D01*
X-8520000Y-64494000D02*
X-7645000Y-64494000D01*
X57482500Y-2744000D02*
X57482500Y-16744000D01*
X267032000Y-73894000D02*
X253032000Y-73894000D01*
X105107000Y-35794000D02*
X91107000Y-35794000D01*
X620000Y-73894000D02*
X620000Y-72864000D01*
X-5820000Y-74764000D02*
X-5820000Y-73564000D01*
X182389000Y-83544000D02*
X183264000Y-83544000D01*
X240839000Y-73894000D02*
X226839000Y-73894000D01*
X167020000Y-40844000D02*
X167020000Y-54844000D01*
X-2048800Y-16744000D02*
X-16048800Y-16744000D01*
X224457000Y-21794000D02*
X238457000Y-21794000D01*
X75739000Y-92614000D02*
X75739000Y-86344000D01*
X177564000Y-92614000D02*
X175739000Y-92614000D01*
X114920000Y-54844000D02*
X114920000Y-40844000D01*
X90820000Y-40844000D02*
X90820000Y-54844000D01*
X228932000Y-16744000D02*
X214932000Y-16744000D01*
X-11286300Y-35794000D02*
X-11286300Y-21794000D01*
X197020000Y0D02*
X-30480000Y0D01*
X143207000Y-35794000D02*
X129207000Y-35794000D01*
X82389000Y-88244000D02*
X82389000Y-92614000D01*
X253032000Y-92944000D02*
X253032000Y-78944000D01*
X14235000Y-45444000D02*
X14235000Y-48244000D01*
X153020000Y-54844000D02*
X153020000Y-40844000D01*
X5382500Y-2744000D02*
X19382500Y-2744000D01*
X272082000Y-78944000D02*
X286082000Y-78944000D01*
X180564000Y-93814000D02*
X177564000Y-93814000D01*
X253032000Y-16744000D02*
X253032000Y-2744000D01*
X250651000Y-54844000D02*
X250651000Y-40844000D01*
X38720000Y-40844000D02*
X52720000Y-40844000D01*
X133970000Y-40844000D02*
X147970000Y-40844000D01*
X119682000Y-2744000D02*
X133682000Y-2744000D01*
X264651000Y23450000D02*
X264651000Y9450000D01*
X176545000Y-73894000D02*
X162545000Y-73894000D01*
X86057000Y-21794000D02*
X86057000Y-35794000D01*
X172070000Y-40844000D02*
X186070000Y-40844000D01*
X75739000Y-86344000D02*
X74864000Y-86344000D01*
X105395000Y-73894000D02*
X105395000Y-59894000D01*
X52720000Y-54844000D02*
X38720000Y-54844000D01*
X205120000Y-40844000D02*
X205120000Y-54844000D01*
X267032000Y-16744000D02*
X253032000Y-16744000D01*
X190832000Y-16744000D02*
X176832000Y-16744000D01*
X-995000Y-73564000D02*
X-2820000Y-73564000D01*
X81295000Y-73894000D02*
X67295000Y-73894000D01*
X5095000Y-43114000D02*
X6710000Y-43114000D01*
X195595000Y-59894000D02*
X195595000Y-73894000D01*
X143495000Y-73894000D02*
X143495000Y-59894000D01*
X29195000Y-73894000D02*
X29195000Y-59894000D01*
X67007500Y-35794000D02*
X53007500Y-35794000D01*
X272082000Y-92944000D02*
X272082000Y-78944000D01*
X16235000Y-61264000D02*
X22885000Y-61264000D01*
X176832000Y-16744000D02*
X176832000Y-2744000D01*
X-8905000Y-53814000D02*
X-10520000Y-53814000D01*
X47957500Y-35794000D02*
X33957500Y-35794000D01*
X171782000Y-2744000D02*
X171782000Y-16744000D01*
X100345000Y-59894000D02*
X100345000Y-73894000D01*
X226839000Y9450000D02*
X226839000Y23450000D01*
X205407000Y-35794000D02*
X205407000Y-21794000D01*
X250651000Y23450000D02*
X264651000Y23450000D01*
X95582000Y-2744000D02*
X95582000Y-16744000D01*
X214645000Y-73894000D02*
X200645000Y-73894000D01*
X128920000Y-40844000D02*
X128920000Y-54844000D01*
X162257000Y-21794000D02*
X162257000Y-35794000D01*
X157782000Y-2744000D02*
X171782000Y-2744000D01*
X152732000Y-2744000D02*
X152732000Y-16744000D01*
X233982000Y-2744000D02*
X247982000Y-2744000D01*
X-17170000Y-42214000D02*
X-10520000Y-42214000D01*
X209882000Y-16744000D02*
X195882000Y-16744000D01*
X157495000Y-73894000D02*
X143495000Y-73894000D01*
X43195000Y-73894000D02*
X29195000Y-73894000D01*
X72057000Y-35794000D02*
X72057000Y-21794000D01*
X90820000Y-54844000D02*
X76820000Y-54844000D01*
X238457000Y-21794000D02*
X238457000Y-35794000D01*
X195595000Y-73894000D02*
X181595000Y-73894000D01*
X167307000Y-35794000D02*
X167307000Y-21794000D01*
X250651000Y9450000D02*
X250651000Y23450000D01*
X219407000Y-35794000D02*
X205407000Y-35794000D01*
X53007500Y-35794000D02*
X53007500Y-21794000D01*
X-10520000Y-43114000D02*
X-8905000Y-43114000D01*
X23760000Y-67294000D02*
X22885000Y-67294000D01*
X119395000Y-59894000D02*
X119395000Y-73894000D01*
X243220000Y-40844000D02*
X243220000Y-54844000D01*
X224170000Y-40844000D02*
X224170000Y-54844000D01*
X128920000Y-54844000D02*
X114920000Y-54844000D01*
X312276000Y-90562800D02*
X298276000Y-90562800D01*
X105395000Y-59894000D02*
X119395000Y-59894000D01*
X-8905000Y-40844000D02*
X5095000Y-40844000D01*
X195882000Y-2744000D02*
X209882000Y-2744000D01*
X122064000Y-92944000D02*
X122064000Y-88244000D01*
X267032000Y-2744000D02*
X267032000Y-16744000D01*
X14907500Y-21794000D02*
X28907500Y-21794000D01*
X298276000Y-28937800D02*
X312276000Y-28937800D01*
X-8520000Y-67294000D02*
X-8520000Y-64494000D01*
X71770000Y-40844000D02*
X71770000Y-54844000D01*
X191120000Y-54844000D02*
X191120000Y-40844000D01*
X-10520000Y-54514000D02*
X-12345000Y-54514000D01*
X14907500Y-35794000D02*
X14907500Y-21794000D01*
X82389000Y-80314000D02*
X82389000Y-83644000D01*
X-16048800Y-2744000D02*
X-2048800Y-2744000D01*
X16235000Y-73564000D02*
X16235000Y-72864000D01*
X267032000Y-59894000D02*
X267032000Y-73894000D01*
X253032000Y-73894000D02*
X253032000Y-59894000D01*
X80564000Y-93814000D02*
X77564000Y-93814000D01*
X-995000Y-62164000D02*
X620000Y-62164000D01*
X267032000Y-92944000D02*
X253032000Y-92944000D01*
X100632000Y-16744000D02*
X100632000Y-2744000D01*
X183264000Y-86344000D02*
X182389000Y-86344000D01*
X95870000Y-40844000D02*
X109870000Y-40844000D01*
X214932000Y-2744000D02*
X228932000Y-2744000D01*
X286082000Y-78944000D02*
X286082000Y-92944000D01*
X6710000Y-54514000D02*
X6710000Y-53814000D01*
X76820000Y-40844000D02*
X90820000Y-40844000D01*
X5095000Y-54844000D02*
X-8905000Y-54844000D01*
X16235000Y-72864000D02*
X14620000Y-72864000D01*
X248270000Y-35794000D02*
X248270000Y-21794000D01*
X114632000Y-16744000D02*
X100632000Y-16744000D01*
X205407000Y-21794000D02*
X219407000Y-21794000D01*
X133682000Y-2744000D02*
X133682000Y-16744000D01*
X264651000Y-40844000D02*
X264651000Y-54844000D01*
X33670000Y-40844000D02*
X33670000Y-54844000D01*
X22885000Y-67294000D02*
X22885000Y-73564000D01*
X286082000Y-92944000D02*
X272082000Y-92944000D01*
X11535000Y-54514000D02*
X11535000Y-55714000D01*
X186070000Y-54844000D02*
X172070000Y-54844000D01*
X-995000Y-72864000D02*
X-995000Y-73564000D01*
X67295000Y-73894000D02*
X67295000Y-59894000D01*
X-18045000Y-45444000D02*
X-17170000Y-45444000D01*
X95870000Y-54844000D02*
X95870000Y-40844000D01*
M02*
