  0
SECTION
  2
BLOCKS
  0
ENDSEC
  0
SECTION
  2
ENTITIES
  0
LINE
  8
0
 10
357.188
 20
140.494
 11
227.5
 21
140.494
  0
LINE
  8
0
 10
227.5
 20
140.494
 11
227.5
 21
104.994
  0
LINE
  8
0
 10
227.5
 20
104.994
 11
0
 21
104.994
  0
LINE
  8
0
 10
0
 20
104.994
 11
0
 21
0
  0
LINE
  8
0
 10
0
 20
0
 11
357.188
 21
0
  0
LINE
  8
0
 10
357.188
 20
0
 11
357.188
 21
140.494
  0
LINE
  8
0
 10
233.506
 20
114.444
 11
233.506
 21
128.444
  0
LINE
  8
0
 10
233.506
 20
128.444
 11
247.506
 21
128.444
  0
LINE
  8
0
 10
247.506
 20
128.444
 11
247.506
 21
114.444
  0
LINE
  8
0
 10
247.506
 20
114.444
 11
233.506
 21
114.444
  0
LINE
  8
0
 10
257.319
 20
114.444
 11
257.319
 21
128.444
  0
LINE
  8
0
 10
257.319
 20
128.444
 11
271.319
 21
128.444
  0
LINE
  8
0
 10
271.319
 20
128.444
 11
271.319
 21
114.444
  0
LINE
  8
0
 10
271.319
 20
114.444
 11
257.319
 21
114.444
  0
LINE
  8
0
 10
281.131
 20
114.444
 11
281.131
 21
128.444
  0
LINE
  8
0
 10
281.131
 20
128.444
 11
295.131
 21
128.444
  0
LINE
  8
0
 10
295.131
 20
128.444
 11
295.131
 21
114.444
  0
LINE
  8
0
 10
295.131
 20
114.444
 11
281.131
 21
114.444
  0
LINE
  8
0
 10
328.756
 20
114.444
 11
328.756
 21
128.444
  0
LINE
  8
0
 10
328.756
 20
128.444
 11
342.756
 21
128.444
  0
LINE
  8
0
 10
342.756
 20
128.444
 11
342.756
 21
114.444
  0
LINE
  8
0
 10
342.756
 20
114.444
 11
328.756
 21
114.444
  0
LINE
  8
0
 10
226.362
 20
88.25
 11
226.362
 21
102.25
  0
LINE
  8
0
 10
226.362
 20
102.25
 11
240.362
 21
102.25
  0
LINE
  8
0
 10
240.362
 20
102.25
 11
240.362
 21
88.25
  0
LINE
  8
0
 10
240.362
 20
88.25
 11
226.362
 21
88.25
  0
LINE
  8
0
 10
283.512
 20
88.25
 11
283.512
 21
102.25
  0
LINE
  8
0
 10
283.512
 20
102.25
 11
297.512
 21
102.25
  0
LINE
  8
0
 10
297.512
 20
102.25
 11
297.512
 21
88.25
  0
LINE
  8
0
 10
297.512
 20
88.25
 11
283.512
 21
88.25
  0
LINE
  8
0
 10
264.462
 20
88.25
 11
264.462
 21
102.25
  0
LINE
  8
0
 10
264.462
 20
102.25
 11
278.462
 21
102.25
  0
LINE
  8
0
 10
278.462
 20
102.25
 11
278.462
 21
88.25
  0
LINE
  8
0
 10
278.462
 20
88.25
 11
264.462
 21
88.25
  0
LINE
  8
0
 10
245.412
 20
88.25
 11
245.412
 21
102.25
  0
LINE
  8
0
 10
245.412
 20
102.25
 11
259.412
 21
102.25
  0
LINE
  8
0
 10
259.412
 20
102.25
 11
259.412
 21
88.25
  0
LINE
  8
0
 10
259.412
 20
88.25
 11
245.412
 21
88.25
  0
LINE
  8
0
 10
207.312
 20
88.25
 11
207.312
 21
102.25
  0
LINE
  8
0
 10
207.312
 20
102.25
 11
221.312
 21
102.25
  0
LINE
  8
0
 10
221.312
 20
102.25
 11
221.312
 21
88.25
  0
LINE
  8
0
 10
221.312
 20
88.25
 11
207.312
 21
88.25
  0
LINE
  8
0
 10
188.262
 20
88.25
 11
188.262
 21
102.25
  0
LINE
  8
0
 10
188.262
 20
102.25
 11
202.262
 21
102.25
  0
LINE
  8
0
 10
202.262
 20
102.25
 11
202.262
 21
88.25
  0
LINE
  8
0
 10
202.262
 20
88.25
 11
188.262
 21
88.25
  0
LINE
  8
0
 10
169.212
 20
88.25
 11
169.212
 21
102.25
  0
LINE
  8
0
 10
169.212
 20
102.25
 11
183.212
 21
102.25
  0
LINE
  8
0
 10
183.212
 20
102.25
 11
183.212
 21
88.25
  0
LINE
  8
0
 10
183.212
 20
88.25
 11
169.212
 21
88.25
  0
LINE
  8
0
 10
131.112
 20
88.25
 11
131.112
 21
102.25
  0
LINE
  8
0
 10
131.112
 20
102.25
 11
145.112
 21
102.25
  0
LINE
  8
0
 10
145.112
 20
102.25
 11
145.112
 21
88.25
  0
LINE
  8
0
 10
145.112
 20
88.25
 11
131.112
 21
88.25
  0
LINE
  8
0
 10
14.4312
 20
88.25
 11
14.4312
 21
102.25
  0
LINE
  8
0
 10
14.4312
 20
102.25
 11
28.4312
 21
102.25
  0
LINE
  8
0
 10
28.4312
 20
102.25
 11
28.4312
 21
88.25
  0
LINE
  8
0
 10
28.4312
 20
88.25
 11
14.4312
 21
88.25
  0
LINE
  8
0
 10
35.8625
 20
88.25
 11
35.8625
 21
102.25
  0
LINE
  8
0
 10
35.8625
 20
102.25
 11
49.8625
 21
102.25
  0
LINE
  8
0
 10
49.8625
 20
102.25
 11
49.8625
 21
88.25
  0
LINE
  8
0
 10
49.8625
 20
88.25
 11
35.8625
 21
88.25
  0
LINE
  8
0
 10
54.9125
 20
88.25
 11
54.9125
 21
102.25
  0
LINE
  8
0
 10
54.9125
 20
102.25
 11
68.9125
 21
102.25
  0
LINE
  8
0
 10
68.9125
 20
102.25
 11
68.9125
 21
88.25
  0
LINE
  8
0
 10
68.9125
 20
88.25
 11
54.9125
 21
88.25
  0
LINE
  8
0
 10
93.0125
 20
88.25
 11
93.0125
 21
102.25
  0
LINE
  8
0
 10
93.0125
 20
102.25
 11
107.012
 21
102.25
  0
LINE
  8
0
 10
107.012
 20
102.25
 11
107.012
 21
88.25
  0
LINE
  8
0
 10
107.012
 20
88.25
 11
93.0125
 21
88.25
  0
LINE
  8
0
 10
150.162
 20
88.25
 11
150.162
 21
102.25
  0
LINE
  8
0
 10
150.162
 20
102.25
 11
164.162
 21
102.25
  0
LINE
  8
0
 10
164.162
 20
102.25
 11
164.162
 21
88.25
  0
LINE
  8
0
 10
164.162
 20
88.25
 11
150.162
 21
88.25
  0
LINE
  8
0
 10
112.062
 20
88.25
 11
112.062
 21
102.25
  0
LINE
  8
0
 10
112.062
 20
102.25
 11
126.062
 21
102.25
  0
LINE
  8
0
 10
126.062
 20
102.25
 11
126.062
 21
88.25
  0
LINE
  8
0
 10
126.062
 20
88.25
 11
112.062
 21
88.25
  0
LINE
  8
0
 10
73.9625
 20
88.25
 11
73.9625
 21
102.25
  0
LINE
  8
0
 10
73.9625
 20
102.25
 11
87.9625
 21
102.25
  0
LINE
  8
0
 10
87.9625
 20
102.25
 11
87.9625
 21
88.25
  0
LINE
  8
0
 10
87.9625
 20
88.25
 11
73.9625
 21
88.25
  0
LINE
  8
0
 10
328.756
 20
85.8687
 11
328.756
 21
99.8687
  0
LINE
  8
0
 10
328.756
 20
99.8687
 11
342.756
 21
99.8687
  0
LINE
  8
0
 10
342.756
 20
99.8687
 11
342.756
 21
85.8687
  0
LINE
  8
0
 10
342.756
 20
85.8687
 11
328.756
 21
85.8687
  0
LINE
  8
0
 10
19.1937
 20
69.2
 11
19.1937
 21
83.2
  0
LINE
  8
0
 10
19.1937
 20
83.2
 11
33.1937
 21
83.2
  0
LINE
  8
0
 10
33.1937
 20
83.2
 11
33.1937
 21
69.2
  0
LINE
  8
0
 10
33.1937
 20
69.2
 11
19.1937
 21
69.2
  0
LINE
  8
0
 10
159.687
 20
69.2
 11
159.687
 21
83.2
  0
LINE
  8
0
 10
159.687
 20
83.2
 11
173.687
 21
83.2
  0
LINE
  8
0
 10
173.687
 20
83.2
 11
173.687
 21
69.2
  0
LINE
  8
0
 10
173.687
 20
69.2
 11
159.687
 21
69.2
  0
LINE
  8
0
 10
278.75
 20
69.2
 11
278.75
 21
83.2
  0
LINE
  8
0
 10
278.75
 20
83.2
 11
292.75
 21
83.2
  0
LINE
  8
0
 10
292.75
 20
83.2
 11
292.75
 21
69.2
  0
LINE
  8
0
 10
292.75
 20
69.2
 11
278.75
 21
69.2
  0
LINE
  8
0
 10
254.937
 20
69.2
 11
254.937
 21
83.2
  0
LINE
  8
0
 10
254.937
 20
83.2
 11
268.937
 21
83.2
  0
LINE
  8
0
 10
268.937
 20
83.2
 11
268.937
 21
69.2
  0
LINE
  8
0
 10
268.937
 20
69.2
 11
254.937
 21
69.2
  0
LINE
  8
0
 10
235.887
 20
69.2
 11
235.887
 21
83.2
  0
LINE
  8
0
 10
235.887
 20
83.2
 11
249.887
 21
83.2
  0
LINE
  8
0
 10
249.887
 20
83.2
 11
249.887
 21
69.2
  0
LINE
  8
0
 10
249.887
 20
69.2
 11
235.887
 21
69.2
  0
LINE
  8
0
 10
216.837
 20
69.2
 11
216.837
 21
83.2
  0
LINE
  8
0
 10
216.837
 20
83.2
 11
230.837
 21
83.2
  0
LINE
  8
0
 10
230.837
 20
83.2
 11
230.837
 21
69.2
  0
LINE
  8
0
 10
230.837
 20
69.2
 11
216.837
 21
69.2
  0
LINE
  8
0
 10
197.787
 20
69.2
 11
197.787
 21
83.2
  0
LINE
  8
0
 10
197.787
 20
83.2
 11
211.787
 21
83.2
  0
LINE
  8
0
 10
211.787
 20
83.2
 11
211.787
 21
69.2
  0
LINE
  8
0
 10
211.787
 20
69.2
 11
197.787
 21
69.2
  0
LINE
  8
0
 10
140.637
 20
69.2
 11
140.637
 21
83.2
  0
LINE
  8
0
 10
140.637
 20
83.2
 11
154.637
 21
83.2
  0
LINE
  8
0
 10
154.637
 20
83.2
 11
154.637
 21
69.2
  0
LINE
  8
0
 10
154.637
 20
69.2
 11
140.637
 21
69.2
  0
LINE
  8
0
 10
45.3875
 20
69.2
 11
45.3875
 21
83.2
  0
LINE
  8
0
 10
45.3875
 20
83.2
 11
59.3875
 21
83.2
  0
LINE
  8
0
 10
59.3875
 20
83.2
 11
59.3875
 21
69.2
  0
LINE
  8
0
 10
59.3875
 20
69.2
 11
45.3875
 21
69.2
  0
LINE
  8
0
 10
64.4375
 20
69.2
 11
64.4375
 21
83.2
  0
LINE
  8
0
 10
64.4375
 20
83.2
 11
78.4375
 21
83.2
  0
LINE
  8
0
 10
78.4375
 20
83.2
 11
78.4375
 21
69.2
  0
LINE
  8
0
 10
78.4375
 20
69.2
 11
64.4375
 21
69.2
  0
LINE
  8
0
 10
83.4875
 20
69.2
 11
83.4875
 21
83.2
  0
LINE
  8
0
 10
83.4875
 20
83.2
 11
97.4875
 21
83.2
  0
LINE
  8
0
 10
97.4875
 20
83.2
 11
97.4875
 21
69.2
  0
LINE
  8
0
 10
97.4875
 20
69.2
 11
83.4875
 21
69.2
  0
LINE
  8
0
 10
121.587
 20
69.2
 11
121.587
 21
83.2
  0
LINE
  8
0
 10
121.587
 20
83.2
 11
135.587
 21
83.2
  0
LINE
  8
0
 10
135.587
 20
83.2
 11
135.587
 21
69.2
  0
LINE
  8
0
 10
135.587
 20
69.2
 11
121.587
 21
69.2
  0
LINE
  8
0
 10
178.737
 20
69.2
 11
178.737
 21
83.2
  0
LINE
  8
0
 10
178.737
 20
83.2
 11
192.737
 21
83.2
  0
LINE
  8
0
 10
192.737
 20
83.2
 11
192.737
 21
69.2
  0
LINE
  8
0
 10
192.737
 20
69.2
 11
178.737
 21
69.2
  0
LINE
  8
0
 10
102.537
 20
69.2
 11
102.537
 21
83.2
  0
LINE
  8
0
 10
102.537
 20
83.2
 11
116.537
 21
83.2
  0
LINE
  8
0
 10
116.537
 20
83.2
 11
116.537
 21
69.2
  0
LINE
  8
0
 10
116.537
 20
69.2
 11
102.537
 21
69.2
  0
LINE
  8
0
 10
328.756
 20
62.0562
 11
328.756
 21
76.0562
  0
LINE
  8
0
 10
328.756
 20
76.0562
 11
342.756
 21
76.0562
  0
LINE
  8
0
 10
342.756
 20
76.0562
 11
342.756
 21
62.0562
  0
LINE
  8
0
 10
342.756
 20
62.0562
 11
328.756
 21
62.0562
  0
LINE
  8
0
 10
240.65
 20
50.15
 11
240.65
 21
64.15
  0
LINE
  8
0
 10
240.65
 20
64.15
 11
254.65
 21
64.15
  0
LINE
  8
0
 10
254.65
 20
64.15
 11
254.65
 21
50.15
  0
LINE
  8
0
 10
254.65
 20
50.15
 11
240.65
 21
50.15
  0
LINE
  8
0
 10
15.135
 20
49.28
 11
15.135
 21
50.48
  0
LINE
  8
0
 10
15.135
 20
50.48
 11
13.31
 21
50.48
  0
LINE
  8
0
 10
13.31
 20
50.48
 11
13.31
 21
56.75
  0
LINE
  8
0
 10
13.31
 20
56.75
 11
12.435
 21
56.75
  0
LINE
  8
0
 10
12.435
 20
56.75
 11
12.435
 21
59.55
  0
LINE
  8
0
 10
12.435
 20
59.55
 11
13.31
 21
59.55
  0
LINE
  8
0
 10
13.31
 20
59.55
 11
13.31
 21
62.78
  0
LINE
  8
0
 10
13.31
 20
62.78
 11
19.96
 21
62.78
  0
LINE
  8
0
 10
19.96
 20
62.78
 11
19.96
 21
61.88
  0
LINE
  8
0
 10
19.96
 20
61.88
 11
21.575
 21
61.88
  0
LINE
  8
0
 10
21.575
 20
61.88
 11
21.575
 21
64.15
  0
LINE
  8
0
 10
21.575
 20
64.15
 11
35.575
 21
64.15
  0
LINE
  8
0
 10
35.575
 20
64.15
 11
35.575
 21
61.88
  0
LINE
  8
0
 10
35.575
 20
61.88
 11
37.19
 21
61.88
  0
LINE
  8
0
 10
37.19
 20
61.88
 11
37.19
 21
62.78
  0
LINE
  8
0
 10
37.19
 20
62.78
 11
43.84
 21
62.78
  0
LINE
  8
0
 10
43.84
 20
62.78
 11
43.84
 21
59.55
  0
LINE
  8
0
 10
43.84
 20
59.55
 11
44.715
 21
59.55
  0
LINE
  8
0
 10
44.715
 20
59.55
 11
44.715
 21
56.75
  0
LINE
  8
0
 10
44.715
 20
56.75
 11
43.84
 21
56.75
  0
LINE
  8
0
 10
43.84
 20
56.75
 11
43.84
 21
50.48
  0
LINE
  8
0
 10
43.84
 20
50.48
 11
42.015
 21
50.48
  0
LINE
  8
0
 10
42.015
 20
50.48
 11
42.015
 21
49.28
  0
LINE
  8
0
 10
42.015
 20
49.28
 11
39.015
 21
49.28
  0
LINE
  8
0
 10
39.015
 20
49.28
 11
39.015
 21
50.48
  0
LINE
  8
0
 10
39.015
 20
50.48
 11
37.19
 21
50.48
  0
LINE
  8
0
 10
37.19
 20
50.48
 11
37.19
 21
51.18
  0
LINE
  8
0
 10
37.19
 20
51.18
 11
35.575
 21
51.18
  0
LINE
  8
0
 10
35.575
 20
51.18
 11
35.575
 21
50.15
  0
LINE
  8
0
 10
35.575
 20
50.15
 11
21.575
 21
50.15
  0
LINE
  8
0
 10
21.575
 20
50.15
 11
21.575
 21
51.18
  0
LINE
  8
0
 10
21.575
 20
51.18
 11
19.96
 21
51.18
  0
LINE
  8
0
 10
19.96
 20
51.18
 11
19.96
 21
50.48
  0
LINE
  8
0
 10
19.96
 20
50.48
 11
18.135
 21
50.48
  0
LINE
  8
0
 10
18.135
 20
50.48
 11
18.135
 21
49.28
  0
LINE
  8
0
 10
18.135
 20
49.28
 11
15.135
 21
49.28
  0
LINE
  8
0
 10
107.3
 20
50.15
 11
107.3
 21
64.15
  0
LINE
  8
0
 10
107.3
 20
64.15
 11
121.3
 21
64.15
  0
LINE
  8
0
 10
121.3
 20
64.15
 11
121.3
 21
50.15
  0
LINE
  8
0
 10
121.3
 20
50.15
 11
107.3
 21
50.15
  0
LINE
  8
0
 10
126.35
 20
50.15
 11
126.35
 21
64.15
  0
LINE
  8
0
 10
126.35
 20
64.15
 11
140.35
 21
64.15
  0
LINE
  8
0
 10
140.35
 20
64.15
 11
140.35
 21
50.15
  0
LINE
  8
0
 10
140.35
 20
50.15
 11
126.35
 21
50.15
  0
LINE
  8
0
 10
145.4
 20
50.15
 11
145.4
 21
64.15
  0
LINE
  8
0
 10
145.4
 20
64.15
 11
159.4
 21
64.15
  0
LINE
  8
0
 10
159.4
 20
64.15
 11
159.4
 21
50.15
  0
LINE
  8
0
 10
159.4
 20
50.15
 11
145.4
 21
50.15
  0
LINE
  8
0
 10
164.45
 20
50.15
 11
164.45
 21
64.15
  0
LINE
  8
0
 10
164.45
 20
64.15
 11
178.45
 21
64.15
  0
LINE
  8
0
 10
178.45
 20
64.15
 11
178.45
 21
50.15
  0
LINE
  8
0
 10
178.45
 20
50.15
 11
164.45
 21
50.15
  0
LINE
  8
0
 10
183.5
 20
50.15
 11
183.5
 21
64.15
  0
LINE
  8
0
 10
183.5
 20
64.15
 11
197.5
 21
64.15
  0
LINE
  8
0
 10
197.5
 20
64.15
 11
197.5
 21
50.15
  0
LINE
  8
0
 10
197.5
 20
50.15
 11
183.5
 21
50.15
  0
LINE
  8
0
 10
221.6
 20
50.15
 11
221.6
 21
64.15
  0
LINE
  8
0
 10
221.6
 20
64.15
 11
235.6
 21
64.15
  0
LINE
  8
0
 10
235.6
 20
64.15
 11
235.6
 21
50.15
  0
LINE
  8
0
 10
235.6
 20
50.15
 11
221.6
 21
50.15
  0
LINE
  8
0
 10
50.15
 20
50.15
 11
50.15
 21
64.15
  0
LINE
  8
0
 10
50.15
 20
64.15
 11
64.15
 21
64.15
  0
LINE
  8
0
 10
64.15
 20
64.15
 11
64.15
 21
50.15
  0
LINE
  8
0
 10
64.15
 20
50.15
 11
50.15
 21
50.15
  0
LINE
  8
0
 10
88.25
 20
50.15
 11
88.25
 21
64.15
  0
LINE
  8
0
 10
88.25
 20
64.15
 11
102.25
 21
64.15
  0
LINE
  8
0
 10
102.25
 20
64.15
 11
102.25
 21
50.15
  0
LINE
  8
0
 10
102.25
 20
50.15
 11
88.25
 21
50.15
  0
LINE
  8
0
 10
69.2
 20
50.15
 11
69.2
 21
64.15
  0
LINE
  8
0
 10
69.2
 20
64.15
 11
83.2
 21
64.15
  0
LINE
  8
0
 10
83.2
 20
64.15
 11
83.2
 21
50.15
  0
LINE
  8
0
 10
83.2
 20
50.15
 11
69.2
 21
50.15
  0
LINE
  8
0
 10
281.131
 20
50.15
 11
281.131
 21
64.15
  0
LINE
  8
0
 10
281.131
 20
64.15
 11
295.131
 21
64.15
  0
LINE
  8
0
 10
295.131
 20
64.15
 11
295.131
 21
50.15
  0
LINE
  8
0
 10
295.131
 20
50.15
 11
281.131
 21
50.15
  0
LINE
  8
0
 10
202.55
 20
50.15
 11
202.55
 21
64.15
  0
LINE
  8
0
 10
202.55
 20
64.15
 11
216.55
 21
64.15
  0
LINE
  8
0
 10
216.55
 20
64.15
 11
216.55
 21
50.15
  0
LINE
  8
0
 10
216.55
 20
50.15
 11
202.55
 21
50.15
  0
LINE
  8
0
 10
259.7
 20
50.15
 11
259.7
 21
64.15
  0
LINE
  8
0
 10
259.7
 20
64.15
 11
273.7
 21
64.15
  0
LINE
  8
0
 10
273.7
 20
64.15
 11
273.7
 21
50.15
  0
LINE
  8
0
 10
273.7
 20
50.15
 11
259.7
 21
50.15
  0
LINE
  8
0
 10
328.756
 20
38.2437
 11
328.756
 21
52.2437
  0
LINE
  8
0
 10
328.756
 20
52.2437
 11
342.756
 21
52.2437
  0
LINE
  8
0
 10
342.756
 20
52.2437
 11
342.756
 21
38.2437
  0
LINE
  8
0
 10
342.756
 20
38.2437
 11
328.756
 21
38.2437
  0
LINE
  8
0
 10
231.125
 20
31.1
 11
231.125
 21
45.1
  0
LINE
  8
0
 10
231.125
 20
45.1
 11
245.125
 21
45.1
  0
LINE
  8
0
 10
245.125
 20
45.1
 11
245.125
 21
31.1
  0
LINE
  8
0
 10
245.125
 20
31.1
 11
231.125
 21
31.1
  0
LINE
  8
0
 10
193.025
 20
31.1
 11
193.025
 21
45.1
  0
LINE
  8
0
 10
193.025
 20
45.1
 11
207.025
 21
45.1
  0
LINE
  8
0
 10
207.025
 20
45.1
 11
207.025
 21
31.1
  0
LINE
  8
0
 10
207.025
 20
31.1
 11
193.025
 21
31.1
  0
LINE
  8
0
 10
154.925
 20
31.1
 11
154.925
 21
45.1
  0
LINE
  8
0
 10
154.925
 20
45.1
 11
168.925
 21
45.1
  0
LINE
  8
0
 10
168.925
 20
45.1
 11
168.925
 21
31.1
  0
LINE
  8
0
 10
168.925
 20
31.1
 11
154.925
 21
31.1
  0
LINE
  8
0
 10
212.075
 20
31.1
 11
212.075
 21
45.1
  0
LINE
  8
0
 10
212.075
 20
45.1
 11
226.075
 21
45.1
  0
LINE
  8
0
 10
226.075
 20
45.1
 11
226.075
 21
31.1
  0
LINE
  8
0
 10
226.075
 20
31.1
 11
212.075
 21
31.1
  0
LINE
  8
0
 10
302.562
 20
31.1
 11
302.562
 21
45.1
  0
LINE
  8
0
 10
302.562
 20
45.1
 11
316.562
 21
45.1
  0
LINE
  8
0
 10
316.562
 20
45.1
 11
316.562
 21
31.1
  0
LINE
  8
0
 10
316.562
 20
31.1
 11
302.562
 21
31.1
  0
LINE
  8
0
 10
257.319
 20
31.1
 11
257.319
 21
45.1
  0
LINE
  8
0
 10
257.319
 20
45.1
 11
271.319
 21
45.1
  0
LINE
  8
0
 10
271.319
 20
45.1
 11
271.319
 21
31.1
  0
LINE
  8
0
 10
271.319
 20
31.1
 11
257.319
 21
31.1
  0
LINE
  8
0
 10
283.512
 20
31.1
 11
283.512
 21
45.1
  0
LINE
  8
0
 10
283.512
 20
45.1
 11
297.512
 21
45.1
  0
LINE
  8
0
 10
297.512
 20
45.1
 11
297.512
 21
31.1
  0
LINE
  8
0
 10
297.512
 20
31.1
 11
283.512
 21
31.1
  0
LINE
  8
0
 10
173.975
 20
31.1
 11
173.975
 21
45.1
  0
LINE
  8
0
 10
173.975
 20
45.1
 11
187.975
 21
45.1
  0
LINE
  8
0
 10
187.975
 20
45.1
 11
187.975
 21
31.1
  0
LINE
  8
0
 10
187.975
 20
31.1
 11
173.975
 21
31.1
  0
LINE
  8
0
 10
135.875
 20
31.1
 11
135.875
 21
45.1
  0
LINE
  8
0
 10
135.875
 20
45.1
 11
149.875
 21
45.1
  0
LINE
  8
0
 10
149.875
 20
45.1
 11
149.875
 21
31.1
  0
LINE
  8
0
 10
149.875
 20
31.1
 11
135.875
 21
31.1
  0
LINE
  8
0
 10
116.825
 20
31.1
 11
116.825
 21
45.1
  0
LINE
  8
0
 10
116.825
 20
45.1
 11
130.825
 21
45.1
  0
LINE
  8
0
 10
130.825
 20
45.1
 11
130.825
 21
31.1
  0
LINE
  8
0
 10
130.825
 20
31.1
 11
116.825
 21
31.1
  0
LINE
  8
0
 10
59.675
 20
31.1
 11
59.675
 21
45.1
  0
LINE
  8
0
 10
59.675
 20
45.1
 11
73.675
 21
45.1
  0
LINE
  8
0
 10
73.675
 20
45.1
 11
73.675
 21
31.1
  0
LINE
  8
0
 10
73.675
 20
31.1
 11
59.675
 21
31.1
  0
LINE
  8
0
 10
97.775
 20
31.1
 11
97.775
 21
45.1
  0
LINE
  8
0
 10
97.775
 20
45.1
 11
111.775
 21
45.1
  0
LINE
  8
0
 10
111.775
 20
45.1
 11
111.775
 21
31.1
  0
LINE
  8
0
 10
111.775
 20
31.1
 11
97.775
 21
31.1
  0
LINE
  8
0
 10
24.66
 20
30.23
 11
24.66
 21
31.43
  0
LINE
  8
0
 10
24.66
 20
31.43
 11
22.835
 21
31.43
  0
LINE
  8
0
 10
22.835
 20
31.43
 11
22.835
 21
37.7
  0
LINE
  8
0
 10
22.835
 20
37.7
 11
21.96
 21
37.7
  0
LINE
  8
0
 10
21.96
 20
37.7
 11
21.96
 21
40.5
  0
LINE
  8
0
 10
21.96
 20
40.5
 11
22.835
 21
40.5
  0
LINE
  8
0
 10
22.835
 20
40.5
 11
22.835
 21
43.73
  0
LINE
  8
0
 10
22.835
 20
43.73
 11
29.485
 21
43.73
  0
LINE
  8
0
 10
29.485
 20
43.73
 11
29.485
 21
42.83
  0
LINE
  8
0
 10
29.485
 20
42.83
 11
31.1
 21
42.83
  0
LINE
  8
0
 10
31.1
 20
42.83
 11
31.1
 21
45.1
  0
LINE
  8
0
 10
31.1
 20
45.1
 11
45.1
 21
45.1
  0
LINE
  8
0
 10
45.1
 20
45.1
 11
45.1
 21
42.83
  0
LINE
  8
0
 10
45.1
 20
42.83
 11
46.715
 21
42.83
  0
LINE
  8
0
 10
46.715
 20
42.83
 11
46.715
 21
43.73
  0
LINE
  8
0
 10
46.715
 20
43.73
 11
53.365
 21
43.73
  0
LINE
  8
0
 10
53.365
 20
43.73
 11
53.365
 21
40.5
  0
LINE
  8
0
 10
53.365
 20
40.5
 11
54.24
 21
40.5
  0
LINE
  8
0
 10
54.24
 20
40.5
 11
54.24
 21
37.7
  0
LINE
  8
0
 10
54.24
 20
37.7
 11
53.365
 21
37.7
  0
LINE
  8
0
 10
53.365
 20
37.7
 11
53.365
 21
31.43
  0
LINE
  8
0
 10
53.365
 20
31.43
 11
51.54
 21
31.43
  0
LINE
  8
0
 10
51.54
 20
31.43
 11
51.54
 21
30.23
  0
LINE
  8
0
 10
51.54
 20
30.23
 11
48.54
 21
30.23
  0
LINE
  8
0
 10
48.54
 20
30.23
 11
48.54
 21
31.43
  0
LINE
  8
0
 10
48.54
 20
31.43
 11
46.715
 21
31.43
  0
LINE
  8
0
 10
46.715
 20
31.43
 11
46.715
 21
32.13
  0
LINE
  8
0
 10
46.715
 20
32.13
 11
45.1
 21
32.13
  0
LINE
  8
0
 10
45.1
 20
32.13
 11
45.1
 21
31.1
  0
LINE
  8
0
 10
45.1
 20
31.1
 11
31.1
 21
31.1
  0
LINE
  8
0
 10
31.1
 20
31.1
 11
31.1
 21
32.13
  0
LINE
  8
0
 10
31.1
 20
32.13
 11
29.485
 21
32.13
  0
LINE
  8
0
 10
29.485
 20
32.13
 11
29.485
 21
31.43
  0
LINE
  8
0
 10
29.485
 20
31.43
 11
27.66
 21
31.43
  0
LINE
  8
0
 10
27.66
 20
31.43
 11
27.66
 21
30.23
  0
LINE
  8
0
 10
27.66
 20
30.23
 11
24.66
 21
30.23
  0
LINE
  8
0
 10
78.725
 20
31.1
 11
78.725
 21
45.1
  0
LINE
  8
0
 10
78.725
 20
45.1
 11
92.725
 21
45.1
  0
LINE
  8
0
 10
92.725
 20
45.1
 11
92.725
 21
31.1
  0
LINE
  8
0
 10
92.725
 20
31.1
 11
78.725
 21
31.1
  0
LINE
  8
0
 10
328.756
 20
14.4312
 11
328.756
 21
28.4312
  0
LINE
  8
0
 10
328.756
 20
28.4312
 11
342.756
 21
28.4312
  0
LINE
  8
0
 10
342.756
 20
28.4312
 11
342.756
 21
14.4312
  0
LINE
  8
0
 10
342.756
 20
14.4312
 11
328.756
 21
14.4312
  0
LINE
  8
0
 10
108.044
 20
11.18
 11
108.044
 21
12.38
  0
LINE
  8
0
 10
108.044
 20
12.38
 11
106.219
 21
12.38
  0
LINE
  8
0
 10
106.219
 20
12.38
 11
106.219
 21
18.65
  0
LINE
  8
0
 10
106.219
 20
18.65
 11
105.344
 21
18.65
  0
LINE
  8
0
 10
105.344
 20
18.65
 11
105.344
 21
21.45
  0
LINE
  8
0
 10
105.344
 20
21.45
 11
106.219
 21
21.45
  0
LINE
  8
0
 10
106.219
 20
21.45
 11
106.219
 21
24.68
  0
LINE
  8
0
 10
106.219
 20
24.68
 11
112.869
 21
24.68
  0
LINE
  8
0
 10
112.869
 20
24.68
 11
112.869
 21
21.35
  0
LINE
  8
0
 10
112.869
 20
21.35
 11
152.544
 21
21.35
  0
LINE
  8
0
 10
152.544
 20
21.35
 11
152.544
 21
26.05
  0
LINE
  8
0
 10
152.544
 20
26.05
 11
166.544
 21
26.05
  0
LINE
  8
0
 10
166.544
 20
26.05
 11
166.544
 21
21.35
  0
LINE
  8
0
 10
166.544
 20
21.35
 11
206.219
 21
21.35
  0
LINE
  8
0
 10
206.219
 20
21.35
 11
206.219
 21
24.68
  0
LINE
  8
0
 10
206.219
 20
24.68
 11
212.869
 21
24.68
  0
LINE
  8
0
 10
212.869
 20
24.68
 11
212.869
 21
21.45
  0
LINE
  8
0
 10
212.869
 20
21.45
 11
213.744
 21
21.45
  0
LINE
  8
0
 10
213.744
 20
21.45
 11
213.744
 21
18.65
  0
LINE
  8
0
 10
213.744
 20
18.65
 11
212.869
 21
18.65
  0
LINE
  8
0
 10
212.869
 20
18.65
 11
212.869
 21
12.38
  0
LINE
  8
0
 10
212.869
 20
12.38
 11
211.044
 21
12.38
  0
LINE
  8
0
 10
211.044
 20
12.38
 11
211.044
 21
11.18
  0
LINE
  8
0
 10
211.044
 20
11.18
 11
208.044
 21
11.18
  0
LINE
  8
0
 10
208.044
 20
11.18
 11
208.044
 21
12.38
  0
LINE
  8
0
 10
208.044
 20
12.38
 11
206.219
 21
12.38
  0
LINE
  8
0
 10
206.219
 20
12.38
 11
206.219
 21
16.75
  0
LINE
  8
0
 10
206.219
 20
16.75
 11
166.544
 21
16.75
  0
LINE
  8
0
 10
166.544
 20
16.75
 11
166.544
 21
12.05
  0
LINE
  8
0
 10
166.544
 20
12.05
 11
152.544
 21
12.05
  0
LINE
  8
0
 10
152.544
 20
12.05
 11
152.544
 21
16.75
  0
LINE
  8
0
 10
152.544
 20
16.75
 11
112.869
 21
16.75
  0
LINE
  8
0
 10
112.869
 20
16.75
 11
112.869
 21
12.38
  0
LINE
  8
0
 10
112.869
 20
12.38
 11
111.044
 21
12.38
  0
LINE
  8
0
 10
111.044
 20
12.38
 11
111.044
 21
11.18
  0
LINE
  8
0
 10
111.044
 20
11.18
 11
108.044
 21
11.18
  0
LINE
  8
0
 10
283.512
 20
12.05
 11
283.512
 21
26.05
  0
LINE
  8
0
 10
283.512
 20
26.05
 11
297.512
 21
26.05
  0
LINE
  8
0
 10
297.512
 20
26.05
 11
297.512
 21
12.05
  0
LINE
  8
0
 10
297.512
 20
12.05
 11
283.512
 21
12.05
  0
LINE
  8
0
 10
264.462
 20
12.05
 11
264.462
 21
26.05
  0
LINE
  8
0
 10
264.462
 20
26.05
 11
278.462
 21
26.05
  0
LINE
  8
0
 10
278.462
 20
26.05
 11
278.462
 21
12.05
  0
LINE
  8
0
 10
278.462
 20
12.05
 11
264.462
 21
12.05
  0
LINE
  8
0
 10
50.15
 20
12.05
 11
50.15
 21
26.05
  0
LINE
  8
0
 10
50.15
 20
26.05
 11
64.15
 21
26.05
  0
LINE
  8
0
 10
64.15
 20
26.05
 11
64.15
 21
12.05
  0
LINE
  8
0
 10
64.15
 20
12.05
 11
50.15
 21
12.05
  0
LINE
  8
0
 10
302.562
 20
12.05
 11
302.562
 21
26.05
  0
LINE
  8
0
 10
302.562
 20
26.05
 11
316.562
 21
26.05
  0
LINE
  8
0
 10
316.562
 20
26.05
 11
316.562
 21
12.05
  0
LINE
  8
0
 10
316.562
 20
12.05
 11
302.562
 21
12.05
  0
ENDSEC
  0
SECTION
  2
OBJECTS
  0
DICTIONARY
  0
ENDSEC
  0
EOF
